{"asset":{"version":"2.0","generator":"babylon.js glTF exporter for 3dsmax 2023 v20250127.3"},"scene":0,"scenes":[{"nodes":[0]}],"nodes":[{"children":[1,2,3,4,5,6],"name":"Arc"},{"mesh":0,"translation":[7.324219E-07,-2.44140642E-06,-1.22070321E-06],"rotation":[0.7071068,0.0,0.0,0.7071067],"name":"Arc002"},{"mesh":1,"translation":[7.324219E-07,-2.44140642E-06,-1.22070321E-06],"rotation":[0.7071068,0.0,0.0,0.7071067],"name":"Arc003"},{"mesh":2,"translation":[7.324219E-07,-2.44140642E-06,-1.22070321E-06],"rotation":[0.7071068,0.0,0.0,0.7071067],"name":"Arc004"},{"translation":[7.324219E-07,-2.44140642E-06,-1.22070321E-06],"rotation":[0.7071068,0.0,0.0,0.7071067],"name":"Arc001"},{"translation":[7.324219E-07,16.2188282,-1.22070321E-06],"rotation":[0.7071068,0.0,0.0,0.7071067],"name":"Arc005Coll"},{"mesh":3,"translation":[7.324219E-07,-1.953125E-06,-1.22070321E-06],"rotation":[0.7071068,0.0,0.0,0.7071067],"name":"Arc002Coll"}],"meshes":[{"primitives":[{"attributes":{"POSITION":1,"NORMAL":2,"TEXCOORD_0":3},"indices":0,"material":0}],"name":"Arc002"},{"primitives":[{"attributes":{"POSITION":5,"NORMAL":6,"COLOR_0":7,"TEXCOORD_0":8},"indices":4,"material":1}],"name":"Arc003"},{"primitives":[{"attributes":{"POSITION":10,"NORMAL":11,"COLOR_0":12,"TEXCOORD_0":13},"indices":9,"material":2}],"name":"Arc004"},{"primitives":[{"attributes":{"POSITION":15,"NORMAL":16,"COLOR_0":17,"TEXCOORD_0":18},"indices":14,"material":0},{"attributes":{"POSITION":20,"NORMAL":21,"COLOR_0":22,"TEXCOORD_0":23},"indices":19,"material":1},{"attributes":{"POSITION":25,"NORMAL":26,"COLOR_0":27,"TEXCOORD_0":28},"indices":24,"material":2}],"name":"Arc002Coll"}],"accessors":[{"bufferView":0,"componentType":5123,"count":90,"type":"SCALAR","name":"accessorIndices"},{"bufferView":1,"componentType":5126,"count":40,"max":[0.567699254,4.449595,0.0],"min":[-0.449558616,-4.449595,-13.6973581],"type":"VEC3","name":"accessorPositions"},{"bufferView":1,"byteOffset":480,"componentType":5126,"count":40,"type":"VEC3","name":"accessorNormals"},{"bufferView":2,"componentType":5126,"count":40,"type":"VEC2","name":"accessorUVs"},{"bufferView":0,"byteOffset":180,"componentType":5123,"count":366,"type":"SCALAR","name":"accessorIndices"},{"bufferView":1,"byteOffset":960,"componentType":5126,"count":220,"max":[0.7440352,3.70596623,4.882813E-07],"min":[-0.7440367,-3.5557673,-8.247157],"type":"VEC3","name":"accessorPositions"},{"bufferView":1,"byteOffset":3600,"componentType":5126,"count":220,"type":"VEC3","name":"accessorNormals"},{"bufferView":3,"componentType":5126,"count":220,"type":"VEC4","name":"accessorColors"},{"bufferView":2,"byteOffset":320,"componentType":5126,"count":220,"type":"VEC2","name":"accessorUVs"},{"bufferView":0,"byteOffset":912,"componentType":5123,"count":18,"type":"SCALAR","name":"accessorIndices"},{"bufferView":1,"byteOffset":6240,"componentType":5126,"count":12,"max":[0.294523954,3.0774982,-0.4495093],"min":[-0.294526875,-2.927299,-7.653434],"type":"VEC3","name":"accessorPositions"},{"bufferView":1,"byteOffset":6384,"componentType":5126,"count":12,"type":"VEC3","name":"accessorNormals"},{"bufferView":3,"byteOffset":3520,"componentType":5126,"count":12,"type":"VEC4","name":"accessorColors"},{"bufferView":2,"byteOffset":2080,"componentType":5126,"count":12,"type":"VEC2","name":"accessorUVs"},{"bufferView":0,"byteOffset":948,"componentType":5123,"count":90,"type":"SCALAR","name":"accessorIndices"},{"bufferView":1,"byteOffset":6528,"componentType":5126,"count":40,"max":[0.567699254,4.449595,0.0],"min":[-0.449558616,-4.449595,-13.6973581],"type":"VEC3","name":"accessorPositions"},{"bufferView":1,"byteOffset":7008,"componentType":5126,"count":40,"type":"VEC3","name":"accessorNormals"},{"bufferView":3,"byteOffset":3712,"componentType":5126,"count":40,"type":"VEC4","name":"accessorColors"},{"bufferView":2,"byteOffset":2176,"componentType":5126,"count":40,"type":"VEC2","name":"accessorUVs"},{"bufferView":0,"byteOffset":1128,"componentType":5123,"count":366,"type":"SCALAR","name":"accessorIndices"},{"bufferView":1,"byteOffset":7488,"componentType":5126,"count":220,"max":[0.7440352,3.70596623,4.882813E-07],"min":[-0.7440367,-3.5557673,-8.247157],"type":"VEC3","name":"accessorPositions"},{"bufferView":1,"byteOffset":10128,"componentType":5126,"count":220,"type":"VEC3","name":"accessorNormals"},{"bufferView":3,"byteOffset":4352,"componentType":5126,"count":220,"type":"VEC4","name":"accessorColors"},{"bufferView":2,"byteOffset":2496,"componentType":5126,"count":220,"type":"VEC2","name":"accessorUVs"},{"bufferView":0,"byteOffset":1860,"componentType":5123,"count":18,"type":"SCALAR","name":"accessorIndices"},{"bufferView":1,"byteOffset":12768,"componentType":5126,"count":12,"max":[0.294523954,3.0774982,-0.4495093],"min":[-0.294526875,-2.927299,-7.653434],"type":"VEC3","name":"accessorPositions"},{"bufferView":1,"byteOffset":12912,"componentType":5126,"count":12,"type":"VEC3","name":"accessorNormals"},{"bufferView":3,"byteOffset":7872,"componentType":5126,"count":12,"type":"VEC4","name":"accessorColors"},{"bufferView":2,"byteOffset":4256,"componentType":5126,"count":12,"type":"VEC2","name":"accessorUVs"}],"bufferViews":[{"buffer":0,"byteLength":1896,"name":"bufferViewScalar"},{"buffer":0,"byteOffset":1896,"byteLength":13056,"byteStride":12,"name":"bufferViewFloatVec3"},{"buffer":0,"byteOffset":14952,"byteLength":4352,"byteStride":8,"name":"bufferViewFloatVec2"},{"buffer":0,"byteOffset":19304,"byteLength":8064,"byteStride":16,"name":"bufferViewFloatVec4"}],"buffers":[{"uri":"Arc.bin","byteLength":27368}],"materials":[{"pbrMetallicRoughness":{"metallicFactor":0.0,"roughnessFactor":0.0},"name":"Gray"},{"pbrMetallicRoughness":{"metallicFactor":0.0,"roughnessFactor":0.0},"name":"OrangeMat"},{"pbrMetallicRoughness":{"metallicFactor":0.0,"roughnessFactor":0.0},"name":"LightMat1"}]}