{"asset":{"version":"2.0","generator":"babylon.js glTF exporter for 3dsmax 2023 v20250127.3"},"scene":0,"scenes":[{"nodes":[0]}],"nodes":[{"children":[1,2,3],"name":"ArenaObject005"},{"mesh":0,"translation":[0.0,2.44140637E-07,-0.640810549],"rotation":[0.7071068,0.0,0.0,0.7071067],"name":"ArenaObject027"},{"mesh":1,"translation":[0.0,2.44140637E-07,-0.640810549],"rotation":[0.7071068,0.0,0.0,0.7071067],"name":"ArenaObject028"},{"translation":[0.0,2.44140637E-07,-0.640810549],"rotation":[0.7071068,0.0,0.0,0.7071067],"name":"ArenaObject026"}],"meshes":[{"primitives":[{"attributes":{"POSITION":1,"NORMAL":2,"TEXCOORD_0":3},"indices":0,"material":0}],"name":"ArenaObject027"},{"primitives":[{"attributes":{"POSITION":5,"NORMAL":6,"TEXCOORD_0":7},"indices":4,"material":1}],"name":"ArenaObject028"}],"accessors":[{"bufferView":0,"componentType":5123,"count":60,"type":"SCALAR","name":"accessorIndices"},{"bufferView":1,"componentType":5126,"count":36,"max":[0.688434243,0.640810966,4.882813E-07],"min":[-0.688435,-0.6408097,-2.08005],"type":"VEC3","name":"accessorPositions"},{"bufferView":1,"byteOffset":432,"componentType":5126,"count":36,"type":"VEC3","name":"accessorNormals"},{"bufferView":2,"componentType":5126,"count":36,"type":"VEC2","name":"accessorUVs"},{"bufferView":0,"byteOffset":120,"componentType":5123,"count":60,"type":"SCALAR","name":"accessorIndices"},{"bufferView":1,"byteOffset":864,"componentType":5126,"count":40,"max":[0.6100623,-0.277690381,-2.07666731],"min":[-0.630104,-0.379285961,-2.15565252],"type":"VEC3","name":"accessorPositions"},{"bufferView":1,"byteOffset":1344,"componentType":5126,"count":40,"type":"VEC3","name":"accessorNormals"},{"bufferView":2,"byteOffset":288,"componentType":5126,"count":40,"type":"VEC2","name":"accessorUVs"}],"bufferViews":[{"buffer":0,"byteLength":240,"name":"bufferViewScalar"},{"buffer":0,"byteOffset":240,"byteLength":1824,"byteStride":12,"name":"bufferViewFloatVec3"},{"buffer":0,"byteOffset":2064,"byteLength":608,"byteStride":8,"name":"bufferViewFloatVec2"}],"buffers":[{"uri":"ArenaObject005.bin","byteLength":2672}],"materials":[{"pbrMetallicRoughness":{"metallicFactor":0.0,"roughnessFactor":0.0},"name":"White"},{"pbrMetallicRoughness":{"metallicFactor":0.0,"roughnessFactor":0.0},"name":"LightMat1"}]}