{"asset":{"version":"2.0","generator":"babylon.js glTF exporter for 3dsmax 2023 v20250127.3"},"scene":0,"scenes":[{"nodes":[0]}],"nodes":[{"children":[1,2,3],"name":"ArenaObject004"},{"mesh":0,"translation":[-1.953125E-06,-0.312334955,3.90625E-06],"rotation":[0.7071068,0.0,0.0,0.7071067],"name":"ArenaObject034"},{"mesh":1,"translation":[-1.953125E-06,-0.312334955,3.90625E-06],"rotation":[0.7071068,0.0,0.0,0.7071067],"name":"ArenaObject035"},{"translation":[-1.953125E-06,-0.312334955,3.90625E-06],"rotation":[0.7071068,0.0,0.0,0.7071067],"name":"ArenaObject033"}],"meshes":[{"primitives":[{"attributes":{"POSITION":1,"NORMAL":2,"TEXCOORD_0":3},"indices":0,"material":0}],"name":"ArenaObject034"},{"primitives":[{"attributes":{"POSITION":5,"NORMAL":6,"TEXCOORD_0":7},"indices":4,"material":1}],"name":"ArenaObject035"}],"accessors":[{"bufferView":0,"componentType":5123,"count":108,"type":"SCALAR","name":"accessorIndices"},{"bufferView":1,"componentType":5126,"count":72,"max":[1.20662761,0.215139925,0.312334329],"min":[-1.20477164,-0.215140432,-0.126915231],"type":"VEC3","name":"accessorPositions"},{"bufferView":1,"byteOffset":864,"componentType":5126,"count":72,"type":"VEC3","name":"accessorNormals"},{"bufferView":2,"componentType":5126,"count":72,"type":"VEC2","name":"accessorUVs"},{"bufferView":0,"byteOffset":216,"componentType":5123,"count":36,"type":"SCALAR","name":"accessorIndices"},{"bufferView":1,"byteOffset":1728,"componentType":5126,"count":24,"max":[1.552006,0.3951649,-0.126916975],"min":[-1.55200207,-0.3951648,-0.312334865],"type":"VEC3","name":"accessorPositions"},{"bufferView":1,"byteOffset":2016,"componentType":5126,"count":24,"type":"VEC3","name":"accessorNormals"},{"bufferView":2,"byteOffset":576,"componentType":5126,"count":24,"type":"VEC2","name":"accessorUVs"}],"bufferViews":[{"buffer":0,"byteLength":288,"name":"bufferViewScalar"},{"buffer":0,"byteOffset":288,"byteLength":2304,"byteStride":12,"name":"bufferViewFloatVec3"},{"buffer":0,"byteOffset":2592,"byteLength":768,"byteStride":8,"name":"bufferViewFloatVec2"}],"buffers":[{"uri":"ArenaObject004.bin","byteLength":3360}],"materials":[{"pbrMetallicRoughness":{"metallicFactor":0.0,"roughnessFactor":0.0},"name":"LightMat1"},{"pbrMetallicRoughness":{"metallicFactor":0.0,"roughnessFactor":0.0},"name":"Gray"}]}