{"asset":{"version":"2.0","generator":"babylon.js glTF exporter for 3dsmax 2023 v20250127.3"},"scene":0,"scenes":[{"nodes":[0]}],"nodes":[{"mesh":0,"rotation":[0.7071068,0.0,0.0,0.7071067],"name":"ArenaObject011"}],"meshes":[{"primitives":[{"attributes":{"POSITION":1,"NORMAL":2,"TEXCOORD_0":3},"indices":0,"material":0}],"name":"ArenaObject011"}],"accessors":[{"bufferView":0,"componentType":5123,"count":108,"type":"SCALAR","name":"accessorIndices"},{"bufferView":1,"componentType":5126,"count":72,"max":[7.44699955,6.55643129,0.323281825],"min":[-7.44699574,0.0,-0.3232835],"type":"VEC3","name":"accessorPositions"},{"bufferView":1,"byteOffset":864,"componentType":5126,"count":72,"type":"VEC3","name":"accessorNormals"},{"bufferView":2,"componentType":5126,"count":72,"type":"VEC2","name":"accessorUVs"}],"bufferViews":[{"buffer":0,"byteLength":216,"name":"bufferViewScalar"},{"buffer":0,"byteOffset":216,"byteLength":1728,"byteStride":12,"name":"bufferViewFloatVec3"},{"buffer":0,"byteOffset":1944,"byteLength":576,"byteStride":8,"name":"bufferViewFloatVec2"}],"buffers":[{"uri":"ArenaObject011.bin","byteLength":2520}],"materials":[{"pbrMetallicRoughness":{"metallicFactor":0.0,"roughnessFactor":0.0},"name":"Black"}]}