{"asset":{"version":"2.0","generator":"babylon.js glTF exporter for 3dsmax 2023 v20250127.3"},"scene":0,"scenes":[{"nodes":[0]}],"nodes":[{"mesh":0,"rotation":[0.7071068,0.0,0.0,0.7071067],"name":"ArenaObject017"}],"meshes":[{"primitives":[{"attributes":{"POSITION":1,"NORMAL":2,"TEXCOORD_0":3},"indices":0,"material":0}],"name":"ArenaObject017"}],"accessors":[{"bufferView":0,"componentType":5123,"count":414,"type":"SCALAR","name":"accessorIndices"},{"bufferView":1,"componentType":5126,"count":220,"max":[6.005141,7.59887735E-06,2.624312],"min":[-6.005141,-0.7860492,-2.62431264],"type":"VEC3","name":"accessorPositions"},{"bufferView":1,"byteOffset":2640,"componentType":5126,"count":220,"type":"VEC3","name":"accessorNormals"},{"bufferView":2,"componentType":5126,"count":220,"type":"VEC2","name":"accessorUVs"}],"bufferViews":[{"buffer":0,"byteLength":828,"name":"bufferViewScalar"},{"buffer":0,"byteOffset":828,"byteLength":5280,"byteStride":12,"name":"bufferViewFloatVec3"},{"buffer":0,"byteOffset":6108,"byteLength":1760,"byteStride":8,"name":"bufferViewFloatVec2"}],"buffers":[{"uri":"ArenaObject017.bin","byteLength":7868}],"materials":[{"pbrMetallicRoughness":{"metallicFactor":0.0,"roughnessFactor":0.0},"name":"Green"}]}