{"asset":{"version":"2.0","generator":"babylon.js glTF exporter for 3dsmax 2023 v20250127.3"},"scene":0,"scenes":[{"nodes":[0]}],"nodes":[{"mesh":0,"rotation":[0.7071068,0.0,0.0,0.7071067],"name":"ArenaObject014"}],"meshes":[{"primitives":[{"attributes":{"POSITION":1,"NORMAL":2,"TEXCOORD_0":3},"indices":0,"material":0}],"name":"ArenaObject014"}],"accessors":[{"bufferView":0,"componentType":5123,"count":360,"type":"SCALAR","name":"accessorIndices"},{"bufferView":1,"componentType":5126,"count":205,"max":[2.096681,0.1050675,-7.324219E-07],"min":[-2.096681,-0.105067506,-0.8729255],"type":"VEC3","name":"accessorPositions"},{"bufferView":1,"byteOffset":2460,"componentType":5126,"count":205,"type":"VEC3","name":"accessorNormals"},{"bufferView":2,"componentType":5126,"count":205,"type":"VEC2","name":"accessorUVs"}],"bufferViews":[{"buffer":0,"byteLength":720,"name":"bufferViewScalar"},{"buffer":0,"byteOffset":720,"byteLength":4920,"byteStride":12,"name":"bufferViewFloatVec3"},{"buffer":0,"byteOffset":5640,"byteLength":1640,"byteStride":8,"name":"bufferViewFloatVec2"}],"buffers":[{"uri":"ArenaObject014.bin","byteLength":7280}],"materials":[{"pbrMetallicRoughness":{"metallicFactor":0.0,"roughnessFactor":0.0},"name":"OrangeMat"}]}