{"asset":{"version":"2.0","generator":"babylon.js glTF exporter for 3dsmax 2023 v20250127.3"},"scene":0,"scenes":[{"nodes":[0]}],"nodes":[{"mesh":0,"rotation":[0.7071068,0.0,0.0,0.7071067],"name":"ArenaObject010"}],"meshes":[{"primitives":[{"attributes":{"POSITION":1,"NORMAL":2,"TEXCOORD_0":3},"indices":0,"material":0}],"name":"ArenaObject010"}],"accessors":[{"bufferView":0,"componentType":5123,"count":588,"type":"SCALAR","name":"accessorIndices"},{"bufferView":1,"componentType":5126,"count":222,"max":[3.58977652,1.64794926E-06,3.53524017],"min":[-3.58977652,-1.0743382,-3.53524017],"type":"VEC3","name":"accessorPositions"},{"bufferView":1,"byteOffset":2664,"componentType":5126,"count":222,"type":"VEC3","name":"accessorNormals"},{"bufferView":2,"componentType":5126,"count":222,"type":"VEC2","name":"accessorUVs"}],"bufferViews":[{"buffer":0,"byteLength":1176,"name":"bufferViewScalar"},{"buffer":0,"byteOffset":1176,"byteLength":5328,"byteStride":12,"name":"bufferViewFloatVec3"},{"buffer":0,"byteOffset":6504,"byteLength":1776,"byteStride":8,"name":"bufferViewFloatVec2"}],"buffers":[{"uri":"ArenaObject010.bin","byteLength":8280}],"materials":[{"pbrMetallicRoughness":{"metallicFactor":0.0,"roughnessFactor":0.0},"name":"Gray"}]}