{"asset":{"version":"2.0","generator":"babylon.js glTF exporter for 3dsmax 2023 v20250127.3"},"scene":0,"scenes":[{"nodes":[0]}],"nodes":[{"children":[1,2,3],"name":"ArenaObject002"},{"mesh":0,"translation":[7.324219E-07,5.56758928,0.970375061],"rotation":[0.7071068,0.0,0.0,0.7071067],"name":"ArenaObject022"},{"mesh":1,"translation":[7.324219E-07,5.56758928,0.970375061],"rotation":[0.7071068,0.0,0.0,0.7071067],"name":"ArenaObject023"},{"translation":[7.324219E-07,5.56758928,0.970375061],"rotation":[0.7071068,0.0,0.0,0.7071067],"name":"ArenaObject021"}],"meshes":[{"primitives":[{"attributes":{"POSITION":1,"NORMAL":2,"TEXCOORD_0":3},"indices":0,"material":0}],"name":"ArenaObject022"},{"primitives":[{"attributes":{"POSITION":5,"NORMAL":6,"TEXCOORD_0":7},"indices":4,"material":1}],"name":"ArenaObject023"}],"accessors":[{"bufferView":0,"componentType":5123,"count":732,"type":"SCALAR","name":"accessorIndices"},{"bufferView":1,"componentType":5126,"count":336,"max":[2.28400636,1.83105476E-06,5.567589],"min":[-2.284008,-1.94070935,-5.567587],"type":"VEC3","name":"accessorPositions"},{"bufferView":1,"byteOffset":4032,"componentType":5126,"count":336,"type":"VEC3","name":"accessorNormals"},{"bufferView":2,"componentType":5126,"count":336,"type":"VEC2","name":"accessorUVs"},{"bufferView":0,"byteOffset":1464,"componentType":5123,"count":30,"type":"SCALAR","name":"accessorIndices"},{"bufferView":1,"byteOffset":8064,"componentType":5126,"count":20,"max":[1.52102292,-1.71550858,1.131927],"min":[-1.52102411,-1.7155087,-1.0387522],"type":"VEC3","name":"accessorPositions"},{"bufferView":1,"byteOffset":8304,"componentType":5126,"count":20,"type":"VEC3","name":"accessorNormals"},{"bufferView":2,"byteOffset":2688,"componentType":5126,"count":20,"type":"VEC2","name":"accessorUVs"}],"bufferViews":[{"buffer":0,"byteLength":1524,"name":"bufferViewScalar"},{"buffer":0,"byteOffset":1524,"byteLength":8544,"byteStride":12,"name":"bufferViewFloatVec3"},{"buffer":0,"byteOffset":10068,"byteLength":2848,"byteStride":8,"name":"bufferViewFloatVec2"}],"buffers":[{"uri":"ArenaObject002.bin","byteLength":12916}],"materials":[{"pbrMetallicRoughness":{"metallicFactor":0.0,"roughnessFactor":0.0},"name":"Gray"},{"pbrMetallicRoughness":{"metallicFactor":0.0,"roughnessFactor":0.0},"name":"LightMat1"}]}