{"asset":{"version":"2.0","generator":"babylon.js glTF exporter for 3dsmax 2023 v20250127.3"},"scene":0,"scenes":[{"nodes":[0]}],"nodes":[{"mesh":0,"rotation":[0.7071068,0.0,0.0,0.7071067],"name":"ArenaObject003"}],"meshes":[{"primitives":[{"attributes":{"POSITION":1,"NORMAL":2,"TEXCOORD_0":3},"indices":0,"material":0}],"name":"ArenaObject003"}],"accessors":[{"bufferView":0,"componentType":5123,"count":144,"type":"SCALAR","name":"accessorIndices"},{"bufferView":1,"componentType":5126,"count":74,"max":[1.26282883,9.765625E-07,0.588457346],"min":[-1.26282775,-0.330022752,-0.588458538],"type":"VEC3","name":"accessorPositions"},{"bufferView":1,"byteOffset":888,"componentType":5126,"count":74,"type":"VEC3","name":"accessorNormals"},{"bufferView":2,"componentType":5126,"count":74,"type":"VEC2","name":"accessorUVs"}],"bufferViews":[{"buffer":0,"byteLength":288,"name":"bufferViewScalar"},{"buffer":0,"byteOffset":288,"byteLength":1776,"byteStride":12,"name":"bufferViewFloatVec3"},{"buffer":0,"byteOffset":2064,"byteLength":592,"byteStride":8,"name":"bufferViewFloatVec2"}],"buffers":[{"uri":"ArenaObject003.bin","byteLength":2656}],"materials":[{"pbrMetallicRoughness":{"metallicFactor":0.0,"roughnessFactor":0.0},"name":"Gray"}]}