{"asset":{"version":"2.0","generator":"babylon.js glTF exporter for 3dsmax 2023 v20250127.3"},"scene":0,"scenes":[{"nodes":[0]}],"nodes":[{"children":[1,2,3,4],"name":"ArenaObject008"},{"mesh":0,"translation":[0.0,1.159668E-06,9.765625E-07],"rotation":[0.7071068,0.0,0.0,0.7071067],"name":"ArenaObject030"},{"mesh":1,"translation":[0.0,1.159668E-06,9.765625E-07],"rotation":[0.7071068,0.0,0.0,0.7071067],"name":"ArenaObject031"},{"mesh":2,"translation":[0.0,1.159668E-06,9.765625E-07],"rotation":[0.7071068,0.0,0.0,0.7071067],"name":"ArenaObject032"},{"translation":[0.0,1.159668E-06,9.765625E-07],"rotation":[0.7071068,0.0,0.0,0.7071067],"name":"ArenaObject029"}],"meshes":[{"primitives":[{"attributes":{"POSITION":1,"NORMAL":2,"TEXCOORD_0":3},"indices":0,"material":0}],"name":"ArenaObject030"},{"primitives":[{"attributes":{"POSITION":5,"NORMAL":6,"TEXCOORD_0":7},"indices":4,"material":1}],"name":"ArenaObject031"},{"primitives":[{"attributes":{"POSITION":9,"NORMAL":10,"TEXCOORD_0":11},"indices":8,"material":2}],"name":"ArenaObject032"}],"accessors":[{"bufferView":0,"componentType":5123,"count":66,"type":"SCALAR","name":"accessorIndices"},{"bufferView":1,"componentType":5126,"count":28,"max":[0.5247989,-1.61743174E-06,1.0746454],"min":[-0.524798036,-0.513769865,-0.7834932],"type":"VEC3","name":"accessorPositions"},{"bufferView":1,"byteOffset":336,"componentType":5126,"count":28,"type":"VEC3","name":"accessorNormals"},{"bufferView":2,"componentType":5126,"count":28,"type":"VEC2","name":"accessorUVs"},{"bufferView":0,"byteOffset":132,"componentType":5123,"count":102,"type":"SCALAR","name":"accessorIndices"},{"bufferView":1,"byteOffset":672,"componentType":5126,"count":60,"max":[0.37256813,-0.101047121,-0.30199793],"min":[-0.263885647,-0.513769865,-1.07464314],"type":"VEC3","name":"accessorPositions"},{"bufferView":1,"byteOffset":1392,"componentType":5126,"count":60,"type":"VEC3","name":"accessorNormals"},{"bufferView":2,"byteOffset":224,"componentType":5126,"count":60,"type":"VEC2","name":"accessorUVs"},{"bufferView":0,"byteOffset":336,"componentType":5123,"count":6,"type":"SCALAR","name":"accessorIndices"},{"bufferView":1,"byteOffset":2112,"componentType":5126,"count":4,"max":[0.37256813,-0.408665627,-0.30199793],"min":[-0.180682018,-0.408665627,-0.622948468],"type":"VEC3","name":"accessorPositions"},{"bufferView":1,"byteOffset":2160,"componentType":5126,"count":4,"type":"VEC3","name":"accessorNormals"},{"bufferView":2,"byteOffset":704,"componentType":5126,"count":4,"type":"VEC2","name":"accessorUVs"}],"bufferViews":[{"buffer":0,"byteLength":348,"name":"bufferViewScalar"},{"buffer":0,"byteOffset":348,"byteLength":2208,"byteStride":12,"name":"bufferViewFloatVec3"},{"buffer":0,"byteOffset":2556,"byteLength":736,"byteStride":8,"name":"bufferViewFloatVec2"}],"buffers":[{"uri":"ArenaObject008.bin","byteLength":3292}],"materials":[{"pbrMetallicRoughness":{"metallicFactor":0.0,"roughnessFactor":0.0},"name":"Green"},{"pbrMetallicRoughness":{"metallicFactor":0.0,"roughnessFactor":0.0},"name":"Black"},{"pbrMetallicRoughness":{"metallicFactor":0.0,"roughnessFactor":0.0},"name":"LightMat1"}]}