{"asset":{"version":"2.0","generator":"babylon.js glTF exporter for 3dsmax 2023 v20250127.3"},"scene":0,"scenes":[{"nodes":[0]}],"nodes":[{"mesh":0,"rotation":[0.7071068,0.0,0.0,0.7071067],"name":"ArenaObject018"}],"meshes":[{"primitives":[{"attributes":{"POSITION":1,"NORMAL":2,"TEXCOORD_0":3},"indices":0,"material":0}],"name":"ArenaObject018"}],"accessors":[{"bufferView":0,"componentType":5123,"count":414,"type":"SCALAR","name":"accessorIndices"},{"bufferView":1,"componentType":5126,"count":252,"max":[5.9430337,0.849266648,2.6297524],"min":[-5.9430337,2.50244148E-06,-2.6297524],"type":"VEC3","name":"accessorPositions"},{"bufferView":1,"byteOffset":3024,"componentType":5126,"count":252,"type":"VEC3","name":"accessorNormals"},{"bufferView":2,"componentType":5126,"count":252,"type":"VEC2","name":"accessorUVs"}],"bufferViews":[{"buffer":0,"byteLength":828,"name":"bufferViewScalar"},{"buffer":0,"byteOffset":828,"byteLength":6048,"byteStride":12,"name":"bufferViewFloatVec3"},{"buffer":0,"byteOffset":6876,"byteLength":2016,"byteStride":8,"name":"bufferViewFloatVec2"}],"buffers":[{"uri":"ArenaObject018.bin","byteLength":8892}],"materials":[{"pbrMetallicRoughness":{"metallicFactor":0.0,"roughnessFactor":0.0},"name":"Green"}]}