{"asset":{"version":"2.0","generator":"babylon.js glTF exporter for 3dsmax 2023 v20250127.3"},"scene":0,"scenes":[{"nodes":[0]}],"nodes":[{"children":[1,2,3,4,5],"name":"ArenaObject007"},{"translation":[9.765625E-07,-1.98364262E-07,3.555298E-06],"rotation":[0.7071068,0.0,0.0,0.7071067],"name":"ArenaObject016"},{"translation":[9.765625E-07,-1.98364262E-07,3.555298E-06],"rotation":[0.7071068,0.0,0.0,0.7071067],"name":"ArenaObject036"},{"mesh":0,"translation":[9.765625E-07,-1.98364262E-07,3.555298E-06],"rotation":[0.7071068,0.0,0.0,0.7071067],"name":"ArenaObject038"},{"translation":[9.765625E-07,-1.98364262E-07,3.555298E-06],"rotation":[0.7071068,0.0,0.0,0.7071067],"name":"ArenaObject009"},{"mesh":1,"translation":[9.765625E-07,-1.98364262E-07,3.555298E-06],"rotation":[0.7071068,0.0,0.0,0.7071067],"name":"ArenaObject037"}],"meshes":[{"primitives":[{"attributes":{"POSITION":1,"NORMAL":2,"TEXCOORD_0":3},"indices":0,"material":0}],"name":"ArenaObject038"},{"primitives":[{"attributes":{"POSITION":5,"NORMAL":6,"TEXCOORD_0":7},"indices":4,"material":1}],"name":"ArenaObject037"}],"accessors":[{"bufferView":0,"componentType":5123,"count":48,"type":"SCALAR","name":"accessorIndices"},{"bufferView":1,"componentType":5126,"count":32,"max":[0.07916456,-0.292545527,0.146370217],"min":[-0.0859121159,-0.418088168,-0.148084179],"type":"VEC3","name":"accessorPositions"},{"bufferView":1,"byteOffset":384,"componentType":5126,"count":32,"type":"VEC3","name":"accessorNormals"},{"bufferView":2,"componentType":5126,"count":32,"type":"VEC2","name":"accessorUVs"},{"bufferView":0,"byteOffset":96,"componentType":5123,"count":126,"type":"SCALAR","name":"accessorIndices"},{"bufferView":1,"byteOffset":768,"componentType":5126,"count":68,"max":[0.2960071,-3.66210952E-06,0.349974364],"min":[-0.296009034,-0.443696856,-0.349974722],"type":"VEC3","name":"accessorPositions"},{"bufferView":1,"byteOffset":1584,"componentType":5126,"count":68,"type":"VEC3","name":"accessorNormals"},{"bufferView":2,"byteOffset":256,"componentType":5126,"count":68,"type":"VEC2","name":"accessorUVs"}],"bufferViews":[{"buffer":0,"byteLength":348,"name":"bufferViewScalar"},{"buffer":0,"byteOffset":348,"byteLength":2400,"byteStride":12,"name":"bufferViewFloatVec3"},{"buffer":0,"byteOffset":2748,"byteLength":800,"byteStride":8,"name":"bufferViewFloatVec2"}],"buffers":[{"uri":"ArenaObject007.bin","byteLength":3548}],"materials":[{"pbrMetallicRoughness":{"metallicFactor":0.0,"roughnessFactor":0.0},"name":"LightMat1"},{"pbrMetallicRoughness":{"metallicFactor":0.0,"roughnessFactor":0.0},"name":"Gray"}]}