{"asset":{"version":"2.0","generator":"babylon.js glTF exporter for 3dsmax 2023 v20250127.3"},"scene":0,"scenes":[{"nodes":[0]}],"nodes":[{"mesh":0,"rotation":[0.7071068,0.0,0.0,0.7071067],"name":"ArenaObject015"}],"meshes":[{"primitives":[{"attributes":{"POSITION":1,"NORMAL":2,"TEXCOORD_0":3},"indices":0,"material":0}],"name":"ArenaObject015"}],"accessors":[{"bufferView":0,"componentType":5123,"count":126,"type":"SCALAR","name":"accessorIndices"},{"bufferView":1,"componentType":5126,"count":68,"max":[2.59557652,1.7888304,1.59460521],"min":[-2.59557343,-2.44140637E-07,-1.59460318],"type":"VEC3","name":"accessorPositions"},{"bufferView":1,"byteOffset":816,"componentType":5126,"count":68,"type":"VEC3","name":"accessorNormals"},{"bufferView":2,"componentType":5126,"count":68,"type":"VEC2","name":"accessorUVs"}],"bufferViews":[{"buffer":0,"byteLength":252,"name":"bufferViewScalar"},{"buffer":0,"byteOffset":252,"byteLength":1632,"byteStride":12,"name":"bufferViewFloatVec3"},{"buffer":0,"byteOffset":1884,"byteLength":544,"byteStride":8,"name":"bufferViewFloatVec2"}],"buffers":[{"uri":"ArenaObject015.bin","byteLength":2428}],"materials":[{"pbrMetallicRoughness":{"metallicFactor":0.0,"roughnessFactor":0.0},"name":"Gray"}]}