{"asset":{"version":"2.0","generator":"babylon.js glTF exporter for 3dsmax 2023 v20250127.3"},"scene":0,"scenes":[{"nodes":[0]}],"nodes":[{"children":[1,2,3],"name":"ArenaObject019z"},{"mesh":0,"translation":[-1.953125E-06,-2.13623053E-07,-4.882813E-07],"rotation":[0.7071068,0.0,0.0,0.7071067],"name":"ArenaObject019z002"},{"mesh":1,"translation":[-1.953125E-06,-2.13623053E-07,-4.882813E-07],"rotation":[0.7071068,0.0,0.0,0.7071067],"name":"ArenaObject019z003"},{"translation":[-1.953125E-06,-2.13623053E-07,-4.882813E-07],"rotation":[0.7071068,0.0,0.0,0.7071067],"name":"ArenaObject019z001"}],"meshes":[{"primitives":[{"attributes":{"POSITION":1,"NORMAL":2,"TEXCOORD_0":3},"indices":0,"material":0}],"name":"ArenaObject019z002"},{"primitives":[{"attributes":{"POSITION":5,"NORMAL":6,"TEXCOORD_0":7},"indices":4,"material":1}],"name":"ArenaObject019z003"}],"accessors":[{"bufferView":0,"componentType":5123,"count":120,"type":"SCALAR","name":"accessorIndices"},{"bufferView":1,"componentType":5126,"count":64,"max":[0.818148,2.44140637E-07,0.349974364],"min":[-0.8181456,-0.6317172,-0.349974722],"type":"VEC3","name":"accessorPositions"},{"bufferView":1,"byteOffset":768,"componentType":5126,"count":64,"type":"VEC3","name":"accessorNormals"},{"bufferView":2,"componentType":5126,"count":64,"type":"VEC2","name":"accessorUVs"},{"bufferView":0,"byteOffset":240,"componentType":5123,"count":102,"type":"SCALAR","name":"accessorIndices"},{"bufferView":1,"byteOffset":1536,"componentType":5126,"count":58,"max":[0.5450523,-0.487949371,0.206824869],"min":[-0.6468311,-0.7997655,-0.206825241],"type":"VEC3","name":"accessorPositions"},{"bufferView":1,"byteOffset":2232,"componentType":5126,"count":58,"type":"VEC3","name":"accessorNormals"},{"bufferView":2,"byteOffset":512,"componentType":5126,"count":58,"type":"VEC2","name":"accessorUVs"}],"bufferViews":[{"buffer":0,"byteLength":444,"name":"bufferViewScalar"},{"buffer":0,"byteOffset":444,"byteLength":2928,"byteStride":12,"name":"bufferViewFloatVec3"},{"buffer":0,"byteOffset":3372,"byteLength":976,"byteStride":8,"name":"bufferViewFloatVec2"}],"buffers":[{"uri":"ArenaObject019z.bin","byteLength":4348}],"materials":[{"pbrMetallicRoughness":{"metallicFactor":0.0,"roughnessFactor":0.0},"name":"Gray"},{"pbrMetallicRoughness":{"metallicFactor":0.0,"roughnessFactor":0.0},"name":"LightMat1"}]}