{"asset":{"version":"2.0","generator":"babylon.js glTF exporter for 3dsmax 2023 v20250127.3"},"scene":0,"scenes":[{"nodes":[0]}],"nodes":[{"children":[1,2,3,4,5,6],"name":"Barrels"},{"mesh":0,"translation":[0.0,2.44140637E-07,-6.103516E-08],"rotation":[0.7071068,0.0,0.0,0.7071067],"name":"Barrels002"},{"mesh":1,"translation":[0.0,2.44140637E-07,-6.103516E-08],"rotation":[0.7071068,0.0,0.0,0.7071067],"name":"Barrels003"},{"mesh":2,"translation":[0.0,2.44140637E-07,-6.103516E-08],"rotation":[0.7071068,0.0,0.0,0.7071067],"name":"Barrels004"},{"translation":[0.0,2.44140637E-07,-6.103516E-08],"rotation":[0.7071068,0.0,0.0,0.7071067],"name":"Barrels001"},{"translation":[0.0,6.015146,-6.103516E-08],"rotation":[0.7071068,0.0,0.0,0.7071067],"name":"Barrels005"},{"mesh":3,"translation":[0.0,9.765625E-07,-6.103516E-08],"rotation":[0.7071068,0.0,0.0,0.7071067],"name":"Barrels006Coll"}],"meshes":[{"primitives":[{"attributes":{"POSITION":1,"NORMAL":2,"TEXCOORD_0":3},"indices":0,"material":0}],"name":"Barrels002"},{"primitives":[{"attributes":{"POSITION":5,"NORMAL":6,"TEXCOORD_0":7},"indices":4,"material":1}],"name":"Barrels003"},{"primitives":[{"attributes":{"POSITION":9,"NORMAL":10,"TEXCOORD_0":11},"indices":8,"material":2}],"name":"Barrels004"},{"primitives":[{"attributes":{"POSITION":13,"NORMAL":14,"TEXCOORD_0":15},"indices":12,"material":0},{"attributes":{"POSITION":17,"NORMAL":18,"TEXCOORD_0":19},"indices":16,"material":1},{"attributes":{"POSITION":21,"NORMAL":22,"TEXCOORD_0":23},"indices":20,"material":2}],"name":"Barrels006Coll"}],"accessors":[{"bufferView":0,"componentType":5123,"count":66,"type":"SCALAR","name":"accessorIndices"},{"bufferView":1,"componentType":5126,"count":44,"max":[1.97090387,1.97090459,7.324219E-07],"min":[-1.97090554,-1.97090483,-2.69094634],"type":"VEC3","name":"accessorPositions"},{"bufferView":1,"byteOffset":528,"componentType":5126,"count":44,"type":"VEC3","name":"accessorNormals"},{"bufferView":2,"componentType":5126,"count":44,"type":"VEC2","name":"accessorUVs"},{"bufferView":0,"byteOffset":132,"componentType":5123,"count":192,"type":"SCALAR","name":"accessorIndices"},{"bufferView":1,"byteOffset":1056,"componentType":5126,"count":96,"max":[1.72702372,1.75540435,-0.146968752],"min":[-1.7264806,-1.71843588,-3.16616321],"type":"VEC3","name":"accessorPositions"},{"bufferView":1,"byteOffset":2208,"componentType":5126,"count":96,"type":"VEC3","name":"accessorNormals"},{"bufferView":2,"byteOffset":352,"componentType":5126,"count":96,"type":"VEC2","name":"accessorUVs"},{"bufferView":0,"byteOffset":516,"componentType":5123,"count":120,"type":"SCALAR","name":"accessorIndices"},{"bufferView":1,"byteOffset":3360,"componentType":5126,"count":80,"max":[1.63120472,1.65958524,-3.16616321],"min":[-1.63066149,-1.62261677,-3.30716038],"type":"VEC3","name":"accessorPositions"},{"bufferView":1,"byteOffset":4320,"componentType":5126,"count":80,"type":"VEC3","name":"accessorNormals"},{"bufferView":2,"byteOffset":1120,"componentType":5126,"count":80,"type":"VEC2","name":"accessorUVs"},{"bufferView":0,"byteOffset":756,"componentType":5123,"count":66,"type":"SCALAR","name":"accessorIndices"},{"bufferView":1,"byteOffset":5280,"componentType":5126,"count":44,"max":[1.97090387,1.97090459,7.324219E-07],"min":[-1.97090554,-1.97090483,-2.69094634],"type":"VEC3","name":"accessorPositions"},{"bufferView":1,"byteOffset":5808,"componentType":5126,"count":44,"type":"VEC3","name":"accessorNormals"},{"bufferView":2,"byteOffset":1760,"componentType":5126,"count":44,"type":"VEC2","name":"accessorUVs"},{"bufferView":0,"byteOffset":888,"componentType":5123,"count":192,"type":"SCALAR","name":"accessorIndices"},{"bufferView":1,"byteOffset":6336,"componentType":5126,"count":96,"max":[1.72702372,1.75540435,-0.146968752],"min":[-1.7264806,-1.71843588,-3.16616321],"type":"VEC3","name":"accessorPositions"},{"bufferView":1,"byteOffset":7488,"componentType":5126,"count":96,"type":"VEC3","name":"accessorNormals"},{"bufferView":2,"byteOffset":2112,"componentType":5126,"count":96,"type":"VEC2","name":"accessorUVs"},{"bufferView":0,"byteOffset":1272,"componentType":5123,"count":120,"type":"SCALAR","name":"accessorIndices"},{"bufferView":1,"byteOffset":8640,"componentType":5126,"count":80,"max":[1.63120472,1.65958524,-3.16616321],"min":[-1.63066149,-1.62261677,-3.30716038],"type":"VEC3","name":"accessorPositions"},{"bufferView":1,"byteOffset":9600,"componentType":5126,"count":80,"type":"VEC3","name":"accessorNormals"},{"bufferView":2,"byteOffset":2880,"componentType":5126,"count":80,"type":"VEC2","name":"accessorUVs"}],"bufferViews":[{"buffer":0,"byteLength":1512,"name":"bufferViewScalar"},{"buffer":0,"byteOffset":1512,"byteLength":10560,"byteStride":12,"name":"bufferViewFloatVec3"},{"buffer":0,"byteOffset":12072,"byteLength":3520,"byteStride":8,"name":"bufferViewFloatVec2"}],"buffers":[{"uri":"Barrels.bin","byteLength":15592}],"materials":[{"pbrMetallicRoughness":{"metallicFactor":0.0,"roughnessFactor":0.0},"name":"Green"},{"pbrMetallicRoughness":{"metallicFactor":0.0,"roughnessFactor":0.0},"name":"OrangeMat"},{"pbrMetallicRoughness":{"metallicFactor":0.0,"roughnessFactor":0.0},"name":"White"}]}