{"asset":{"version":"2.0","generator":"babylon.js glTF exporter for 3dsmax 2023 v20250127.3"},"scene":0,"scenes":[{"nodes":[0]}],"nodes":[{"children":[1,2,3,4],"name":"Building004"},{"mesh":0,"translation":[0.0,0.0,-9.765626E-06],"rotation":[0.7071068,0.0,0.0,0.7071067],"name":"Building017"},{"mesh":1,"translation":[0.0,0.0,-9.765626E-06],"rotation":[0.7071068,0.0,0.0,0.7071067],"name":"Building018"},{"mesh":2,"translation":[0.0,0.0,-9.765626E-06],"rotation":[0.7071068,0.0,0.0,0.7071067],"name":"Building019"},{"translation":[0.0,0.0,-9.765626E-06],"rotation":[0.7071068,0.0,0.0,0.7071067],"name":"Building016"}],"meshes":[{"primitives":[{"attributes":{"POSITION":1,"NORMAL":2,"TEXCOORD_0":3},"indices":0,"material":0}],"name":"Building017"},{"primitives":[{"attributes":{"POSITION":5,"NORMAL":6,"TEXCOORD_0":7},"indices":4,"material":1}],"name":"Building018"},{"primitives":[{"attributes":{"POSITION":9,"NORMAL":10,"TEXCOORD_0":11},"indices":8,"material":2}],"name":"Building019"}],"accessors":[{"bufferView":0,"componentType":5123,"count":228,"type":"SCALAR","name":"accessorIndices"},{"bufferView":1,"componentType":5126,"count":124,"max":[21.688942,21.8098526,0.0],"min":[-21.688942,-21.8098373,-50.04638],"type":"VEC3","name":"accessorPositions"},{"bufferView":1,"byteOffset":1488,"componentType":5126,"count":124,"type":"VEC3","name":"accessorNormals"},{"bufferView":2,"componentType":5126,"count":124,"type":"VEC2","name":"accessorUVs"},{"bufferView":0,"byteOffset":456,"componentType":5123,"count":30,"type":"SCALAR","name":"accessorIndices"},{"bufferView":1,"byteOffset":2976,"componentType":5126,"count":12,"max":[21.688942,21.8098526,-24.112402],"min":[-21.688942,-21.8098373,-50.04638],"type":"VEC3","name":"accessorPositions"},{"bufferView":1,"byteOffset":3120,"componentType":5126,"count":12,"type":"VEC3","name":"accessorNormals"},{"bufferView":2,"byteOffset":992,"componentType":5126,"count":12,"type":"VEC2","name":"accessorUVs"},{"bufferView":0,"byteOffset":516,"componentType":5123,"count":12,"type":"SCALAR","name":"accessorIndices"},{"bufferView":1,"byteOffset":3264,"componentType":5126,"count":8,"max":[15.4976978,20.3081589,-13.085535],"min":[3.25806069,-10.8403444,-44.09677],"type":"VEC3","name":"accessorPositions"},{"bufferView":1,"byteOffset":3360,"componentType":5126,"count":8,"type":"VEC3","name":"accessorNormals"},{"bufferView":2,"byteOffset":1088,"componentType":5126,"count":8,"type":"VEC2","name":"accessorUVs"}],"bufferViews":[{"buffer":0,"byteLength":540,"name":"bufferViewScalar"},{"buffer":0,"byteOffset":540,"byteLength":3456,"byteStride":12,"name":"bufferViewFloatVec3"},{"buffer":0,"byteOffset":3996,"byteLength":1152,"byteStride":8,"name":"bufferViewFloatVec2"}],"buffers":[{"uri":"Building004.bin","byteLength":5148}],"materials":[{"pbrMetallicRoughness":{"metallicFactor":0.0,"roughnessFactor":0.0},"name":"Gray"},{"pbrMetallicRoughness":{"metallicFactor":0.0,"roughnessFactor":0.0},"name":"Black"},{"pbrMetallicRoughness":{"metallicFactor":0.0,"roughnessFactor":0.0},"name":"LightMat1"}]}