{"asset":{"version":"2.0","generator":"babylon.js glTF exporter for 3dsmax 2023 v20250127.3"},"scene":0,"scenes":[{"nodes":[0]}],"nodes":[{"children":[1,2,3,4,5],"name":"Building003"},{"mesh":0,"translation":[-1.36718754E-05,5.859375E-06,0.0],"rotation":[0.7071068,0.0,0.0,0.7071067],"name":"Building025"},{"mesh":1,"translation":[-1.36718754E-05,5.859375E-06,0.0],"rotation":[0.7071068,0.0,0.0,0.7071067],"name":"Building026"},{"mesh":2,"translation":[-1.36718754E-05,5.859375E-06,0.0],"rotation":[0.7071068,0.0,0.0,0.7071067],"name":"Building027"},{"mesh":3,"translation":[-1.36718754E-05,5.859375E-06,0.0],"rotation":[0.7071068,0.0,0.0,0.7071067],"name":"Building028"},{"translation":[-1.36718754E-05,5.859375E-06,0.0],"rotation":[0.7071068,0.0,0.0,0.7071067],"name":"Building024"}],"meshes":[{"primitives":[{"attributes":{"POSITION":1,"NORMAL":2,"TEXCOORD_0":3},"indices":0,"material":0}],"name":"Building025"},{"primitives":[{"attributes":{"POSITION":5,"NORMAL":6,"TEXCOORD_0":7},"indices":4,"material":1}],"name":"Building026"},{"primitives":[{"attributes":{"POSITION":9,"NORMAL":10,"TEXCOORD_0":11},"indices":8,"material":2}],"name":"Building027"},{"primitives":[{"attributes":{"POSITION":13,"NORMAL":14,"TEXCOORD_0":15},"indices":12,"material":3}],"name":"Building028"}],"accessors":[{"bufferView":0,"componentType":5123,"count":162,"type":"SCALAR","name":"accessorIndices"},{"bufferView":1,"componentType":5126,"count":86,"max":[17.1778984,17.0569916,-3.90625E-06],"min":[-17.1778831,-17.0570087,-47.1965752],"type":"VEC3","name":"accessorPositions"},{"bufferView":1,"byteOffset":1032,"componentType":5126,"count":86,"type":"VEC3","name":"accessorNormals"},{"bufferView":2,"componentType":5126,"count":86,"type":"VEC2","name":"accessorUVs"},{"bufferView":0,"byteOffset":324,"componentType":5123,"count":6,"type":"SCALAR","name":"accessorIndices"},{"bufferView":1,"byteOffset":2064,"componentType":5126,"count":4,"max":[8.698749,14.8706169,-30.8893719],"min":[-0.339826673,14.8706141,-39.8723564],"type":"VEC3","name":"accessorPositions"},{"bufferView":1,"byteOffset":2112,"componentType":5126,"count":4,"type":"VEC3","name":"accessorNormals"},{"bufferView":2,"byteOffset":688,"componentType":5126,"count":4,"type":"VEC2","name":"accessorUVs"},{"bufferView":0,"byteOffset":336,"componentType":5123,"count":72,"type":"SCALAR","name":"accessorIndices"},{"bufferView":1,"byteOffset":2160,"componentType":5126,"count":48,"max":[17.8261166,17.7051888,-25.6352482],"min":[-17.826088,-17.7051926,-29.5590019],"type":"VEC3","name":"accessorPositions"},{"bufferView":1,"byteOffset":2736,"componentType":5126,"count":48,"type":"VEC3","name":"accessorNormals"},{"bufferView":2,"byteOffset":720,"componentType":5126,"count":48,"type":"VEC2","name":"accessorUVs"},{"bufferView":0,"byteOffset":480,"componentType":5123,"count":6,"type":"SCALAR","name":"accessorIndices"},{"bufferView":1,"byteOffset":3312,"componentType":5126,"count":4,"max":[16.8828373,16.6091557,-47.1965752],"min":[-16.882822,-16.6091728,-47.1965752],"type":"VEC3","name":"accessorPositions"},{"bufferView":1,"byteOffset":3360,"componentType":5126,"count":4,"type":"VEC3","name":"accessorNormals"},{"bufferView":2,"byteOffset":1104,"componentType":5126,"count":4,"type":"VEC2","name":"accessorUVs"}],"bufferViews":[{"buffer":0,"byteLength":492,"name":"bufferViewScalar"},{"buffer":0,"byteOffset":492,"byteLength":3408,"byteStride":12,"name":"bufferViewFloatVec3"},{"buffer":0,"byteOffset":3900,"byteLength":1136,"byteStride":8,"name":"bufferViewFloatVec2"}],"buffers":[{"uri":"Building003.bin","byteLength":5036}],"materials":[{"pbrMetallicRoughness":{"metallicFactor":0.0,"roughnessFactor":0.0},"name":"White"},{"pbrMetallicRoughness":{"metallicFactor":0.0,"roughnessFactor":0.0},"name":"LightMat1"},{"pbrMetallicRoughness":{"metallicFactor":0.0,"roughnessFactor":0.0},"name":"Green"},{"pbrMetallicRoughness":{"metallicFactor":0.0,"roughnessFactor":0.0},"name":"Black"}]}