{"asset":{"version":"2.0","generator":"babylon.js glTF exporter for 3dsmax 2023 v20250127.3"},"scene":0,"scenes":[{"nodes":[0]}],"nodes":[{"children":[1,2,3,4,5],"name":"Building002"},{"mesh":0,"translation":[-4.882813E-07,3.90625E-06,-1.46484381E-05],"rotation":[0.7071068,0.0,0.0,0.7071067],"name":"Building012"},{"mesh":1,"translation":[-4.882813E-07,3.90625E-06,-1.46484381E-05],"rotation":[0.7071068,0.0,0.0,0.7071067],"name":"Building013"},{"mesh":2,"translation":[-4.882813E-07,3.90625E-06,-1.46484381E-05],"rotation":[0.7071068,0.0,0.0,0.7071067],"name":"Building014"},{"mesh":3,"translation":[-4.882813E-07,3.90625E-06,-1.46484381E-05],"rotation":[0.7071068,0.0,0.0,0.7071067],"name":"Building015"},{"translation":[-4.882813E-07,3.90625E-06,-1.46484381E-05],"rotation":[0.7071068,0.0,0.0,0.7071067],"name":"Building011"}],"meshes":[{"primitives":[{"attributes":{"POSITION":1,"NORMAL":2,"TEXCOORD_0":3},"indices":0,"material":0}],"name":"Building012"},{"primitives":[{"attributes":{"POSITION":5,"NORMAL":6,"TEXCOORD_0":7},"indices":4,"material":1}],"name":"Building013"},{"primitives":[{"attributes":{"POSITION":9,"NORMAL":10,"TEXCOORD_0":11},"indices":8,"material":2}],"name":"Building014"},{"primitives":[{"attributes":{"POSITION":13,"NORMAL":14,"TEXCOORD_0":15},"indices":12,"material":3}],"name":"Building015"}],"accessors":[{"bufferView":0,"componentType":5123,"count":312,"type":"SCALAR","name":"accessorIndices"},{"bufferView":1,"componentType":5126,"count":208,"max":[7.823323,9.306306,1.953125E-06],"min":[-7.82332,-9.30629349,-49.1072235],"type":"VEC3","name":"accessorPositions"},{"bufferView":1,"byteOffset":2496,"componentType":5126,"count":208,"type":"VEC3","name":"accessorNormals"},{"bufferView":2,"componentType":5126,"count":208,"type":"VEC2","name":"accessorUVs"},{"bufferView":0,"byteOffset":624,"componentType":5123,"count":96,"type":"SCALAR","name":"accessorIndices"},{"bufferView":1,"byteOffset":4992,"componentType":5126,"count":64,"max":[6.85921049,8.342193,-26.1183872],"min":[-6.85920668,-8.342176,-43.63111],"type":"VEC3","name":"accessorPositions"},{"bufferView":1,"byteOffset":5760,"componentType":5126,"count":64,"type":"VEC3","name":"accessorNormals"},{"bufferView":2,"byteOffset":1664,"componentType":5126,"count":64,"type":"VEC2","name":"accessorUVs"},{"bufferView":0,"byteOffset":816,"componentType":5123,"count":48,"type":"SCALAR","name":"accessorIndices"},{"bufferView":1,"byteOffset":6528,"componentType":5126,"count":24,"max":[10.3216486,11.3681583,-49.1072235],"min":[-10.3216476,-11.3681469,-56.031723],"type":"VEC3","name":"accessorPositions"},{"bufferView":1,"byteOffset":6816,"componentType":5126,"count":24,"type":"VEC3","name":"accessorNormals"},{"bufferView":2,"byteOffset":2176,"componentType":5126,"count":24,"type":"VEC2","name":"accessorUVs"},{"bufferView":0,"byteOffset":912,"componentType":5123,"count":6,"type":"SCALAR","name":"accessorIndices"},{"bufferView":1,"byteOffset":7104,"componentType":5126,"count":4,"max":[10.3216486,11.3681583,-56.03172],"min":[-10.3216476,-11.3681469,-56.031723],"type":"VEC3","name":"accessorPositions"},{"bufferView":1,"byteOffset":7152,"componentType":5126,"count":4,"type":"VEC3","name":"accessorNormals"},{"bufferView":2,"byteOffset":2368,"componentType":5126,"count":4,"type":"VEC2","name":"accessorUVs"}],"bufferViews":[{"buffer":0,"byteLength":924,"name":"bufferViewScalar"},{"buffer":0,"byteOffset":924,"byteLength":7200,"byteStride":12,"name":"bufferViewFloatVec3"},{"buffer":0,"byteOffset":8124,"byteLength":2400,"byteStride":8,"name":"bufferViewFloatVec2"}],"buffers":[{"uri":"Building002.bin","byteLength":10524}],"materials":[{"pbrMetallicRoughness":{"metallicFactor":0.0,"roughnessFactor":0.0},"name":"White"},{"pbrMetallicRoughness":{"metallicFactor":0.0,"roughnessFactor":0.0},"name":"LightMat1"},{"pbrMetallicRoughness":{"metallicFactor":0.0,"roughnessFactor":0.0},"name":"Green"},{"pbrMetallicRoughness":{"metallicFactor":0.0,"roughnessFactor":0.0},"name":"Black"}]}