{"asset":{"version":"2.0","generator":"babylon.js glTF exporter for 3dsmax 2023 v20250127.3"},"scene":0,"scenes":[{"nodes":[0]}],"nodes":[{"children":[1,2,3,4],"name":"Building000"},{"mesh":0,"translation":[-9.765625E-07,5.859375E-06,-3.125E-05],"rotation":[0.7071068,0.0,0.0,0.7071067],"name":"Building023"},{"mesh":1,"translation":[-9.765625E-07,5.859375E-06,-3.125E-05],"rotation":[0.7071068,0.0,0.0,0.7071067],"name":"Building022"},{"translation":[-9.765625E-07,5.859375E-06,-3.125E-05],"rotation":[0.7071068,0.0,0.0,0.7071067],"name":"Building020"},{"mesh":2,"translation":[-9.765625E-07,5.859375E-06,-3.125E-05],"rotation":[0.7071068,0.0,0.0,0.7071067],"name":"Building021"}],"meshes":[{"primitives":[{"attributes":{"POSITION":1,"NORMAL":2,"TEXCOORD_0":3},"indices":0,"material":0}],"name":"Building023"},{"primitives":[{"attributes":{"POSITION":5,"NORMAL":6,"TEXCOORD_0":7},"indices":4,"material":1}],"name":"Building022"},{"primitives":[{"attributes":{"POSITION":9,"NORMAL":10,"TEXCOORD_0":11},"indices":8,"material":2}],"name":"Building021"}],"accessors":[{"bufferView":0,"componentType":5123,"count":24,"type":"SCALAR","name":"accessorIndices"},{"bufferView":1,"componentType":5126,"count":12,"max":[-17.24236,-9.976422,5.859375E-06],"min":[-28.7372665,-16.6273766,-49.10722],"type":"VEC3","name":"accessorPositions"},{"bufferView":1,"byteOffset":144,"componentType":5126,"count":12,"type":"VEC3","name":"accessorNormals"},{"bufferView":2,"componentType":5126,"count":12,"type":"VEC2","name":"accessorUVs"},{"bufferView":0,"byteOffset":48,"componentType":5123,"count":24,"type":"SCALAR","name":"accessorIndices"},{"bufferView":1,"byteOffset":288,"componentType":5126,"count":16,"max":[17.2423611,9.976434,-15.3470211],"min":[-27.9030514,-15.7931576,-49.10722],"type":"VEC3","name":"accessorPositions"},{"bufferView":1,"byteOffset":480,"componentType":5126,"count":16,"type":"VEC3","name":"accessorNormals"},{"bufferView":2,"byteOffset":96,"componentType":5126,"count":16,"type":"VEC2","name":"accessorUVs"},{"bufferView":0,"byteOffset":96,"componentType":5123,"count":384,"type":"SCALAR","name":"accessorIndices"},{"bufferView":1,"byteOffset":672,"componentType":5126,"count":192,"max":[30.7991219,19.1257114,5.859375E-06],"min":[-30.79912,-19.1257038,-56.03172],"type":"VEC3","name":"accessorPositions"},{"bufferView":1,"byteOffset":2976,"componentType":5126,"count":192,"type":"VEC3","name":"accessorNormals"},{"bufferView":2,"byteOffset":224,"componentType":5126,"count":192,"type":"VEC2","name":"accessorUVs"}],"bufferViews":[{"buffer":0,"byteLength":864,"name":"bufferViewScalar"},{"buffer":0,"byteOffset":864,"byteLength":5280,"byteStride":12,"name":"bufferViewFloatVec3"},{"buffer":0,"byteOffset":6144,"byteLength":1760,"byteStride":8,"name":"bufferViewFloatVec2"}],"buffers":[{"uri":"Building000.bin","byteLength":7904}],"materials":[{"pbrMetallicRoughness":{"metallicFactor":0.0,"roughnessFactor":0.0},"name":"OrangeMat"},{"pbrMetallicRoughness":{"metallicFactor":0.0,"roughnessFactor":0.0},"name":"LightMat1"},{"pbrMetallicRoughness":{"metallicFactor":0.0,"roughnessFactor":0.0},"name":"Gray"}]}