{"asset":{"version":"2.0","generator":"babylon.js glTF exporter for 3dsmax 2023 v20250127.3"},"scene":0,"scenes":[{"nodes":[0]}],"nodes":[{"children":[1,2,3,4],"name":"Building006"},{"mesh":0,"translation":[0.0,3.90625E-06,-1.66015634E-05],"rotation":[0.7071068,0.0,0.0,0.7071067],"name":"Building008"},{"mesh":1,"translation":[0.0,3.90625E-06,-1.66015634E-05],"rotation":[0.7071068,0.0,0.0,0.7071067],"name":"Building009"},{"translation":[0.0,3.90625E-06,-1.66015634E-05],"rotation":[0.7071068,0.0,0.0,0.7071067],"name":"Building007"},{"mesh":2,"translation":[0.0,3.90625E-06,-1.66015634E-05],"rotation":[0.7071068,0.0,0.0,0.7071067],"name":"Building010"}],"meshes":[{"primitives":[{"attributes":{"POSITION":1,"NORMAL":2,"TEXCOORD_0":3},"indices":0,"material":0}],"name":"Building008"},{"primitives":[{"attributes":{"POSITION":5,"NORMAL":6,"TEXCOORD_0":7},"indices":4,"material":1}],"name":"Building009"},{"primitives":[{"attributes":{"POSITION":9,"NORMAL":10,"TEXCOORD_0":11},"indices":8,"material":2}],"name":"Building010"}],"accessors":[{"bufferView":0,"componentType":5123,"count":192,"type":"SCALAR","name":"accessorIndices"},{"bufferView":1,"componentType":5126,"count":122,"max":[16.6587658,16.6587639,3.90625E-06],"min":[-16.658762,-16.658762,-92.6256943],"type":"VEC3","name":"accessorPositions"},{"bufferView":1,"byteOffset":1464,"componentType":5126,"count":122,"type":"VEC3","name":"accessorNormals"},{"bufferView":2,"componentType":5126,"count":122,"type":"VEC2","name":"accessorUVs"},{"bufferView":0,"byteOffset":384,"componentType":5123,"count":240,"type":"SCALAR","name":"accessorIndices"},{"bufferView":1,"byteOffset":2928,"componentType":5126,"count":128,"max":[16.658762,16.658762,3.90625E-06],"min":[-16.658762,-16.658762,-92.6256943],"type":"VEC3","name":"accessorPositions"},{"bufferView":1,"byteOffset":4464,"componentType":5126,"count":128,"type":"VEC3","name":"accessorNormals"},{"bufferView":2,"byteOffset":976,"componentType":5126,"count":128,"type":"VEC2","name":"accessorUVs"},{"bufferView":0,"byteOffset":864,"componentType":5123,"count":144,"type":"SCALAR","name":"accessorIndices"},{"bufferView":1,"byteOffset":6000,"componentType":5126,"count":64,"max":[18.0385685,18.0385685,-92.6256943],"min":[-18.0385685,-18.0385685,-106.692513],"type":"VEC3","name":"accessorPositions"},{"bufferView":1,"byteOffset":6768,"componentType":5126,"count":64,"type":"VEC3","name":"accessorNormals"},{"bufferView":2,"byteOffset":2000,"componentType":5126,"count":64,"type":"VEC2","name":"accessorUVs"}],"bufferViews":[{"buffer":0,"byteLength":1152,"name":"bufferViewScalar"},{"buffer":0,"byteOffset":1152,"byteLength":7536,"byteStride":12,"name":"bufferViewFloatVec3"},{"buffer":0,"byteOffset":8688,"byteLength":2512,"byteStride":8,"name":"bufferViewFloatVec2"}],"buffers":[{"uri":"Building006.bin","byteLength":11200}],"materials":[{"pbrMetallicRoughness":{"metallicFactor":0.0,"roughnessFactor":0.0},"name":"White"},{"pbrMetallicRoughness":{"metallicFactor":0.0,"roughnessFactor":0.0},"name":"LightMat1"},{"pbrMetallicRoughness":{"metallicFactor":0.0,"roughnessFactor":0.0},"name":"OrangeMat"}]}