{"asset":{"version":"2.0","generator":"babylon.js glTF exporter for 3dsmax 2023 v20250127.3"},"scene":0,"scenes":[{"nodes":[0]}],"nodes":[{"children":[1,2,3],"name":"Building005"},{"mesh":0,"translation":[0.0,4.02832029E-06,7.324219E-07],"rotation":[0.7071068,0.0,0.0,0.7071067],"name":"Building036"},{"mesh":1,"translation":[0.0,4.02832029E-06,7.324219E-07],"rotation":[0.7071068,0.0,0.0,0.7071067],"name":"Building037"},{"translation":[0.0,4.02832029E-06,7.324219E-07],"rotation":[0.7071068,0.0,0.0,0.7071067],"name":"Building035"}],"meshes":[{"primitives":[{"attributes":{"POSITION":1,"NORMAL":2,"TEXCOORD_0":3},"indices":0,"material":0}],"name":"Building036"},{"primitives":[{"attributes":{"POSITION":5,"NORMAL":6,"TEXCOORD_0":7},"indices":4,"material":1}],"name":"Building037"}],"accessors":[{"bufferView":0,"componentType":5123,"count":6,"type":"SCALAR","name":"accessorIndices"},{"bufferView":1,"componentType":5126,"count":4,"max":[4.164049,2.85247469,-3.12478471],"min":[-4.16404724,-2.852477,-3.12478471],"type":"VEC3","name":"accessorPositions"},{"bufferView":1,"byteOffset":48,"componentType":5126,"count":4,"type":"VEC3","name":"accessorNormals"},{"bufferView":2,"componentType":5126,"count":4,"type":"VEC2","name":"accessorUVs"},{"bufferView":0,"byteOffset":12,"componentType":5123,"count":48,"type":"SCALAR","name":"accessorIndices"},{"bufferView":1,"byteOffset":96,"componentType":5126,"count":32,"max":[4.463868,3.15229368,4.39453152E-06],"min":[-4.46386528,-3.15229559,-3.12478471],"type":"VEC3","name":"accessorPositions"},{"bufferView":1,"byteOffset":480,"componentType":5126,"count":32,"type":"VEC3","name":"accessorNormals"},{"bufferView":2,"byteOffset":32,"componentType":5126,"count":32,"type":"VEC2","name":"accessorUVs"}],"bufferViews":[{"buffer":0,"byteLength":108,"name":"bufferViewScalar"},{"buffer":0,"byteOffset":108,"byteLength":864,"byteStride":12,"name":"bufferViewFloatVec3"},{"buffer":0,"byteOffset":972,"byteLength":288,"byteStride":8,"name":"bufferViewFloatVec2"}],"buffers":[{"uri":"Building005.bin","byteLength":1260}],"materials":[{"pbrMetallicRoughness":{"metallicFactor":0.0,"roughnessFactor":0.0},"name":"Black"},{"pbrMetallicRoughness":{"metallicFactor":0.0,"roughnessFactor":0.0},"name":"Green"}]}