{"asset":{"version":"2.0","generator":"babylon.js glTF exporter for 3dsmax 2023 v20250127.3"},"scene":0,"scenes":[{"nodes":[0]}],"nodes":[{"children":[1,2,3,4,5,6],"name":"Building001"},{"mesh":0,"translation":[1.953125E-06,7.8125E-06,0.0],"rotation":[0.7071068,0.0,0.0,0.7071067],"name":"Building030"},{"mesh":1,"translation":[1.953125E-06,7.8125E-06,0.0],"rotation":[0.7071068,0.0,0.0,0.7071067],"name":"Building034"},{"mesh":2,"translation":[1.953125E-06,7.8125E-06,0.0],"rotation":[0.7071068,0.0,0.0,0.7071067],"name":"Building032"},{"mesh":3,"translation":[1.953125E-06,7.8125E-06,0.0],"rotation":[0.7071068,0.0,0.0,0.7071067],"name":"Building033"},{"translation":[1.953125E-06,7.8125E-06,0.0],"rotation":[0.7071068,0.0,0.0,0.7071067],"name":"Building029"},{"mesh":4,"translation":[1.953125E-06,7.8125E-06,0.0],"rotation":[0.7071068,0.0,0.0,0.7071067],"name":"Building031"}],"meshes":[{"primitives":[{"attributes":{"POSITION":1,"NORMAL":2,"TEXCOORD_0":3},"indices":0,"material":0}],"name":"Building030"},{"primitives":[{"attributes":{"POSITION":5,"NORMAL":6,"TEXCOORD_0":7},"indices":4,"material":1}],"name":"Building034"},{"primitives":[{"attributes":{"POSITION":9,"NORMAL":10,"TEXCOORD_0":11},"indices":8,"material":2}],"name":"Building032"},{"primitives":[{"attributes":{"POSITION":13,"NORMAL":14,"TEXCOORD_0":15},"indices":12,"material":3}],"name":"Building033"},{"primitives":[{"attributes":{"POSITION":17,"NORMAL":18,"TEXCOORD_0":19},"indices":16,"material":4}],"name":"Building031"}],"accessors":[{"bufferView":0,"componentType":5123,"count":30,"type":"SCALAR","name":"accessorIndices"},{"bufferView":1,"componentType":5126,"count":12,"max":[6.669117,8.92483,-34.0790863],"min":[-6.669121,-8.924843,-38.45433],"type":"VEC3","name":"accessorPositions"},{"bufferView":1,"byteOffset":144,"componentType":5126,"count":12,"type":"VEC3","name":"accessorNormals"},{"bufferView":2,"componentType":5126,"count":12,"type":"VEC2","name":"accessorUVs"},{"bufferView":0,"byteOffset":60,"componentType":5123,"count":24,"type":"SCALAR","name":"accessorIndices"},{"bufferView":1,"byteOffset":288,"componentType":5126,"count":16,"max":[5.567605,7.82331371,-34.0790863],"min":[-5.56760454,-7.82332754,-35.6447639],"type":"VEC3","name":"accessorPositions"},{"bufferView":1,"byteOffset":480,"componentType":5126,"count":16,"type":"VEC3","name":"accessorNormals"},{"bufferView":2,"byteOffset":96,"componentType":5126,"count":16,"type":"VEC2","name":"accessorUVs"},{"bufferView":0,"byteOffset":108,"componentType":5123,"count":72,"type":"SCALAR","name":"accessorIndices"},{"bufferView":1,"byteOffset":672,"componentType":5126,"count":32,"max":[6.39250851,8.64821148,-35.6447639],"min":[-6.39250565,-8.648225,-37.85236],"type":"VEC3","name":"accessorPositions"},{"bufferView":1,"byteOffset":1056,"componentType":5126,"count":32,"type":"VEC3","name":"accessorNormals"},{"bufferView":2,"byteOffset":224,"componentType":5126,"count":32,"type":"VEC2","name":"accessorUVs"},{"bufferView":0,"byteOffset":252,"componentType":5123,"count":24,"type":"SCALAR","name":"accessorIndices"},{"bufferView":1,"byteOffset":1440,"componentType":5126,"count":16,"max":[5.944673,8.353148,-37.85236],"min":[-5.94466972,-8.353163,-38.45433],"type":"VEC3","name":"accessorPositions"},{"bufferView":1,"byteOffset":1632,"componentType":5126,"count":16,"type":"VEC3","name":"accessorNormals"},{"bufferView":2,"byteOffset":480,"componentType":5126,"count":16,"type":"VEC2","name":"accessorUVs"},{"bufferView":0,"byteOffset":300,"componentType":5123,"count":24,"type":"SCALAR","name":"accessorIndices"},{"bufferView":1,"byteOffset":1824,"componentType":5126,"count":16,"max":[6.669117,8.92483,0.0],"min":[-6.669121,-8.924844,-34.0790863],"type":"VEC3","name":"accessorPositions"},{"bufferView":1,"byteOffset":2016,"componentType":5126,"count":16,"type":"VEC3","name":"accessorNormals"},{"bufferView":2,"byteOffset":608,"componentType":5126,"count":16,"type":"VEC2","name":"accessorUVs"}],"bufferViews":[{"buffer":0,"byteLength":348,"name":"bufferViewScalar"},{"buffer":0,"byteOffset":348,"byteLength":2208,"byteStride":12,"name":"bufferViewFloatVec3"},{"buffer":0,"byteOffset":2556,"byteLength":736,"byteStride":8,"name":"bufferViewFloatVec2"}],"buffers":[{"uri":"Building001.bin","byteLength":3292}],"materials":[{"pbrMetallicRoughness":{"metallicFactor":0.0,"roughnessFactor":0.0},"name":"Black"},{"pbrMetallicRoughness":{"metallicFactor":0.0,"roughnessFactor":0.0},"name":"LightMat1"},{"pbrMetallicRoughness":{"metallicFactor":0.0,"roughnessFactor":0.0},"name":"Green"},{"pbrMetallicRoughness":{"metallicFactor":0.0,"roughnessFactor":0.0},"name":"Gray"},{"pbrMetallicRoughness":{"metallicFactor":0.0,"roughnessFactor":0.0},"name":"White"}]}