{"asset":{"version":"2.0","generator":"babylon.js glTF exporter for 3dsmax 2023 v20250127.3"},"scene":0,"scenes":[{"nodes":[0]}],"nodes":[{"mesh":0,"rotation":[0.7071068,6.181724E-08,-6.181724E-08,0.7071067],"name":"Cond"}],"meshes":[{"primitives":[{"attributes":{"POSITION":1,"NORMAL":2,"TEXCOORD_0":3},"indices":0,"material":0}],"name":"Cond"}],"accessors":[{"bufferView":0,"componentType":5123,"count":288,"type":"SCALAR","name":"accessorIndices"},{"bufferView":1,"componentType":5126,"count":122,"max":[1.61787057,3.051758E-07,1.08065975],"min":[-1.61787176,-1.3200599,-1.0806607],"type":"VEC3","name":"accessorPositions"},{"bufferView":1,"byteOffset":1464,"componentType":5126,"count":122,"type":"VEC3","name":"accessorNormals"},{"bufferView":2,"componentType":5126,"count":122,"type":"VEC2","name":"accessorUVs"}],"bufferViews":[{"buffer":0,"byteLength":576,"name":"bufferViewScalar"},{"buffer":0,"byteOffset":576,"byteLength":2928,"byteStride":12,"name":"bufferViewFloatVec3"},{"buffer":0,"byteOffset":3504,"byteLength":976,"byteStride":8,"name":"bufferViewFloatVec2"}],"buffers":[{"uri":"Cond.bin","byteLength":4480}],"materials":[{"pbrMetallicRoughness":{"metallicFactor":0.0,"roughnessFactor":0.0},"name":"Gray"}]}