{"asset":{"version":"2.0","generator":"babylon.js glTF exporter for 3dsmax 2023 v20250127.3"},"scene":0,"scenes":[{"nodes":[0]}],"nodes":[{"children":[1,2,3,4],"name":"Door"},{"mesh":0,"translation":[0.0,1.70898443E-06,0.164873049],"rotation":[0.7071068,0.0,0.0,0.7071067],"name":"Door002"},{"mesh":1,"translation":[0.0,1.70898443E-06,0.164873049],"rotation":[0.7071068,0.0,0.0,0.7071067],"name":"Door003"},{"mesh":2,"translation":[0.0,1.70898443E-06,0.164873049],"rotation":[0.7071068,0.0,0.0,0.7071067],"name":"Door004"},{"translation":[0.0,1.70898443E-06,0.164873049],"rotation":[0.7071068,0.0,0.0,0.7071067],"name":"Door001"}],"meshes":[{"primitives":[{"attributes":{"POSITION":1,"NORMAL":2,"TEXCOORD_0":3},"indices":0,"material":0}],"name":"Door002"},{"primitives":[{"attributes":{"POSITION":5,"NORMAL":6,"TEXCOORD_0":7},"indices":4,"material":1}],"name":"Door003"},{"primitives":[{"attributes":{"POSITION":9,"NORMAL":10,"TEXCOORD_0":11},"indices":8,"material":2}],"name":"Door004"}],"accessors":[{"bufferView":0,"componentType":5123,"count":180,"type":"SCALAR","name":"accessorIndices"},{"bufferView":1,"componentType":5126,"count":96,"max":[1.123103,0.164871976,2.19726576E-06],"min":[-1.28212893,-0.164872974,-3.278955],"type":"VEC3","name":"accessorPositions"},{"bufferView":1,"byteOffset":1152,"componentType":5126,"count":96,"type":"VEC3","name":"accessorNormals"},{"bufferView":2,"componentType":5126,"count":96,"type":"VEC2","name":"accessorUVs"},{"bufferView":0,"byteOffset":360,"componentType":5123,"count":30,"type":"SCALAR","name":"accessorIndices"},{"bufferView":1,"byteOffset":2304,"componentType":5126,"count":16,"max":[1.123103,0.105745792,-0.1344978],"min":[-1.1476289,0.00182604231,-3.144455],"type":"VEC3","name":"accessorPositions"},{"bufferView":1,"byteOffset":2496,"componentType":5126,"count":16,"type":"VEC3","name":"accessorNormals"},{"bufferView":2,"byteOffset":768,"componentType":5126,"count":16,"type":"VEC2","name":"accessorUVs"},{"bufferView":0,"byteOffset":420,"componentType":5123,"count":54,"type":"SCALAR","name":"accessorIndices"},{"bufferView":1,"byteOffset":2688,"componentType":5126,"count":24,"max":[1.28212893,0.164871976,2.19726576E-06],"min":[0.582826257,-0.164873123,-3.278955],"type":"VEC3","name":"accessorPositions"},{"bufferView":1,"byteOffset":2976,"componentType":5126,"count":24,"type":"VEC3","name":"accessorNormals"},{"bufferView":2,"byteOffset":896,"componentType":5126,"count":24,"type":"VEC2","name":"accessorUVs"}],"bufferViews":[{"buffer":0,"byteLength":528,"name":"bufferViewScalar"},{"buffer":0,"byteOffset":528,"byteLength":3264,"byteStride":12,"name":"bufferViewFloatVec3"},{"buffer":0,"byteOffset":3792,"byteLength":1088,"byteStride":8,"name":"bufferViewFloatVec2"}],"buffers":[{"uri":"Door.bin","byteLength":4880}],"materials":[{"pbrMetallicRoughness":{"metallicFactor":0.0,"roughnessFactor":0.0},"name":"Green"},{"pbrMetallicRoughness":{"metallicFactor":0.0,"roughnessFactor":0.0},"name":"LightMat1"},{"pbrMetallicRoughness":{"metallicFactor":0.0,"roughnessFactor":0.0},"name":"OrangeMat"}]}