{"asset":{"version":"2.0","generator":"babylon.js glTF exporter for 3dsmax 2023 v20250127.3"},"scene":0,"scenes":[{"nodes":[0]}],"nodes":[{"children":[1,2,3,4,5],"name":"Garage"},{"mesh":0,"translation":[0.0,-2.92968753E-06,-3.66210941E-07],"rotation":[0.7071068,0.0,0.0,0.7071067],"name":"Garage002"},{"mesh":1,"translation":[0.0,-2.92968753E-06,-3.66210941E-07],"rotation":[0.7071068,0.0,0.0,0.7071067],"name":"Garage003"},{"mesh":2,"translation":[0.0,-2.92968753E-06,-3.66210941E-07],"rotation":[0.7071068,0.0,0.0,0.7071067],"name":"Garage004"},{"mesh":3,"translation":[0.0,-2.92968753E-06,-3.66210941E-07],"rotation":[0.7071068,0.0,0.0,0.7071067],"name":"Garage005"},{"translation":[0.0,-2.92968753E-06,-3.66210941E-07],"rotation":[0.7071068,0.0,0.0,0.7071067],"name":"Garage001"}],"meshes":[{"primitives":[{"attributes":{"POSITION":1,"NORMAL":2,"COLOR_0":3,"TEXCOORD_0":4},"indices":0,"material":0}],"name":"Garage002"},{"primitives":[{"attributes":{"POSITION":6,"NORMAL":7,"COLOR_0":8,"TEXCOORD_0":9},"indices":5,"material":1}],"name":"Garage003"},{"primitives":[{"attributes":{"POSITION":11,"NORMAL":12,"TEXCOORD_0":13},"indices":10,"material":2}],"name":"Garage004"},{"primitives":[{"attributes":{"POSITION":15,"NORMAL":16,"COLOR_0":17,"TEXCOORD_0":18},"indices":14,"material":3}],"name":"Garage005"}],"accessors":[{"bufferView":0,"componentType":5123,"count":186,"type":"SCALAR","name":"accessorIndices"},{"bufferView":1,"componentType":5126,"count":120,"max":[2.66550064,0.669525,-2.685547E-06],"min":[-2.665497,-0.4378626,-4.92727375],"type":"VEC3","name":"accessorPositions"},{"bufferView":1,"byteOffset":1440,"componentType":5126,"count":120,"type":"VEC3","name":"accessorNormals"},{"bufferView":2,"componentType":5126,"count":120,"type":"VEC4","name":"accessorColors"},{"bufferView":3,"componentType":5126,"count":120,"type":"VEC2","name":"accessorUVs"},{"bufferView":0,"byteOffset":372,"componentType":5123,"count":6,"type":"SCALAR","name":"accessorIndices"},{"bufferView":1,"byteOffset":2880,"componentType":5126,"count":4,"max":[2.38305116,-0.241593271,-2.685547E-06],"min":[-2.38304663,-0.241593271,-4.23061848],"type":"VEC3","name":"accessorPositions"},{"bufferView":1,"byteOffset":2928,"componentType":5126,"count":4,"type":"VEC3","name":"accessorNormals"},{"bufferView":2,"byteOffset":1920,"componentType":5126,"count":4,"type":"VEC4","name":"accessorColors"},{"bufferView":3,"byteOffset":960,"componentType":5126,"count":4,"type":"VEC2","name":"accessorUVs"},{"bufferView":0,"byteOffset":384,"componentType":5123,"count":96,"type":"SCALAR","name":"accessorIndices"},{"bufferView":1,"byteOffset":2976,"componentType":5126,"count":64,"max":[2.40862918,-0.356940925,-3.96158147],"min":[-2.42018652,-0.6695258,-4.45517349],"type":"VEC3","name":"accessorPositions"},{"bufferView":1,"byteOffset":3744,"componentType":5126,"count":64,"type":"VEC3","name":"accessorNormals"},{"bufferView":3,"byteOffset":992,"componentType":5126,"count":64,"type":"VEC2","name":"accessorUVs"},{"bufferView":0,"byteOffset":576,"componentType":5123,"count":60,"type":"SCALAR","name":"accessorIndices"},{"bufferView":1,"byteOffset":4512,"componentType":5126,"count":40,"max":[-2.475758,-0.380764872,-4.12931776],"min":[-2.55923676,-0.4378626,-4.39227629],"type":"VEC3","name":"accessorPositions"},{"bufferView":1,"byteOffset":4992,"componentType":5126,"count":40,"type":"VEC3","name":"accessorNormals"},{"bufferView":2,"byteOffset":1984,"componentType":5126,"count":40,"type":"VEC4","name":"accessorColors"},{"bufferView":3,"byteOffset":1504,"componentType":5126,"count":40,"type":"VEC2","name":"accessorUVs"}],"bufferViews":[{"buffer":0,"byteLength":696,"name":"bufferViewScalar"},{"buffer":0,"byteOffset":696,"byteLength":5472,"byteStride":12,"name":"bufferViewFloatVec3"},{"buffer":0,"byteOffset":6168,"byteLength":2624,"byteStride":16,"name":"bufferViewFloatVec4"},{"buffer":0,"byteOffset":8792,"byteLength":1824,"byteStride":8,"name":"bufferViewFloatVec2"}],"buffers":[{"uri":"Garage.bin","byteLength":10616}],"materials":[{"pbrMetallicRoughness":{"metallicFactor":0.0,"roughnessFactor":0.0},"name":"Gray"},{"pbrMetallicRoughness":{"metallicFactor":0.0,"roughnessFactor":0.0},"name":"Black"},{"pbrMetallicRoughness":{"metallicFactor":0.0,"roughnessFactor":0.0},"name":"White"},{"pbrMetallicRoughness":{"metallicFactor":0.0,"roughnessFactor":0.0},"name":"LightMat1"}]}