{"asset":{"version":"2.0","generator":"babylon.js glTF exporter for 3dsmax 2023 v20250127.3"},"scene":0,"scenes":[{"nodes":[0]}],"nodes":[{"children":[1,2,3,4,5],"name":"Gate"},{"mesh":0,"translation":[0.701524556,3.97905684,0.0],"rotation":[0.7071068,0.0,0.0,0.7071067],"name":"Gate002"},{"mesh":1,"translation":[0.701524556,3.97905684,0.0],"rotation":[0.7071068,0.0,0.0,0.7071067],"name":"Gate003"},{"mesh":2,"translation":[0.701524556,3.97905684,0.0],"rotation":[0.7071068,0.0,0.0,0.7071067],"name":"Gate004"},{"mesh":3,"translation":[0.701524556,3.97905684,0.0],"rotation":[0.7071068,0.0,0.0,0.7071067],"name":"Gate005"},{"translation":[0.701524556,3.97905684,0.0],"rotation":[0.7071068,0.0,0.0,0.7071067],"name":"Gate001"}],"meshes":[{"primitives":[{"attributes":{"POSITION":1,"NORMAL":2,"COLOR_0":3,"TEXCOORD_0":4},"indices":0,"material":0}],"name":"Gate002"},{"primitives":[{"attributes":{"POSITION":6,"NORMAL":7,"COLOR_0":8,"TEXCOORD_0":9},"indices":5,"material":1}],"name":"Gate003"},{"primitives":[{"attributes":{"POSITION":11,"NORMAL":12,"COLOR_0":13,"TEXCOORD_0":14},"indices":10,"material":2}],"name":"Gate004"},{"primitives":[{"attributes":{"POSITION":16,"NORMAL":17,"COLOR_0":18,"TEXCOORD_0":19},"indices":15,"material":3}],"name":"Gate005"}],"accessors":[{"bufferView":0,"componentType":5123,"count":120,"type":"SCALAR","name":"accessorIndices"},{"bufferView":1,"componentType":5126,"count":64,"max":[-0.339718044,7.754192,3.979051],"min":[-0.750647962,-7.75033951,-3.05265784],"type":"VEC3","name":"accessorPositions"},{"bufferView":1,"byteOffset":768,"componentType":5126,"count":64,"type":"VEC3","name":"accessorNormals"},{"bufferView":2,"componentType":5126,"count":64,"type":"VEC4","name":"accessorColors"},{"bufferView":3,"componentType":5126,"count":64,"type":"VEC2","name":"accessorUVs"},{"bufferView":0,"byteOffset":240,"componentType":5123,"count":72,"type":"SCALAR","name":"accessorIndices"},{"bufferView":1,"byteOffset":1536,"componentType":5126,"count":32,"max":[-0.1638625,7.754187,2.296618],"min":[-0.339718878,-7.75033474,-1.37022841],"type":"VEC3","name":"accessorPositions"},{"bufferView":1,"byteOffset":1920,"componentType":5126,"count":32,"type":"VEC3","name":"accessorNormals"},{"bufferView":2,"byteOffset":1024,"componentType":5126,"count":32,"type":"VEC4","name":"accessorColors"},{"bufferView":3,"byteOffset":512,"componentType":5126,"count":32,"type":"VEC2","name":"accessorUVs"},{"bufferView":0,"byteOffset":384,"componentType":5123,"count":54,"type":"SCALAR","name":"accessorIndices"},{"bufferView":1,"byteOffset":2304,"componentType":5126,"count":32,"max":[6.042481E-06,8.703255,3.97905612],"min":[-1.40305519,-8.703257,-3.979054],"type":"VEC3","name":"accessorPositions"},{"bufferView":1,"byteOffset":2688,"componentType":5126,"count":32,"type":"VEC3","name":"accessorNormals"},{"bufferView":2,"byteOffset":1536,"componentType":5126,"count":32,"type":"VEC4","name":"accessorColors"},{"bufferView":3,"byteOffset":768,"componentType":5126,"count":32,"type":"VEC2","name":"accessorUVs"},{"bufferView":0,"byteOffset":492,"componentType":5123,"count":6,"type":"SCALAR","name":"accessorIndices"},{"bufferView":1,"byteOffset":3072,"componentType":5126,"count":4,"max":[-0.1638625,3.13978839,1.03816926],"min":[-0.1638628,0.127814487,-0.111779116],"type":"VEC3","name":"accessorPositions"},{"bufferView":1,"byteOffset":3120,"componentType":5126,"count":4,"type":"VEC3","name":"accessorNormals"},{"bufferView":2,"byteOffset":2048,"componentType":5126,"count":4,"type":"VEC4","name":"accessorColors"},{"bufferView":3,"byteOffset":1024,"componentType":5126,"count":4,"type":"VEC2","name":"accessorUVs"}],"bufferViews":[{"buffer":0,"byteLength":504,"name":"bufferViewScalar"},{"buffer":0,"byteOffset":504,"byteLength":3168,"byteStride":12,"name":"bufferViewFloatVec3"},{"buffer":0,"byteOffset":3672,"byteLength":2112,"byteStride":16,"name":"bufferViewFloatVec4"},{"buffer":0,"byteOffset":5784,"byteLength":1056,"byteStride":8,"name":"bufferViewFloatVec2"}],"buffers":[{"uri":"Gate.bin","byteLength":6840}],"materials":[{"pbrMetallicRoughness":{"metallicFactor":0.0,"roughnessFactor":0.0},"name":"OrangeMat"},{"pbrMetallicRoughness":{"metallicFactor":0.0,"roughnessFactor":0.0},"name":"White"},{"pbrMetallicRoughness":{"metallicFactor":0.0,"roughnessFactor":0.0},"name":"Green"},{"pbrMetallicRoughness":{"metallicFactor":0.0,"roughnessFactor":0.0},"name":"LightMat1"}]}