{"asset":{"version":"2.0","generator":"babylon.js glTF exporter for 3dsmax 2023 v20250127.3"},"scene":0,"scenes":[{"nodes":[0]}],"nodes":[{"children":[1,2,3,4,5],"name":"Group001"},{"translation":[0.0,-2.019542,0.0],"rotation":[0.7071068,-6.181723E-08,6.181724E-08,0.7071067],"name":"StairsS008"},{"mesh":0,"translation":[0.0,-2.019542,0.0],"rotation":[0.7071068,0.0,0.0,0.7071067],"name":"StairsS010"},{"mesh":1,"translation":[0.0,-2.019542,0.0],"rotation":[0.7071068,0.0,0.0,0.7071067],"name":"StairsS011"},{"mesh":2,"translation":[0.0,-2.019542,0.0],"rotation":[0.7071068,0.0,0.0,0.7071067],"name":"StairsS009"},{"mesh":3,"translation":[0.0,-2.01954174,0.0],"rotation":[0.7071068,0.0,0.0,0.7071067],"name":"StairsS016Coll"}],"meshes":[{"primitives":[{"attributes":{"POSITION":1,"NORMAL":2,"TEXCOORD_0":3},"indices":0,"material":0}],"name":"StairsS010"},{"primitives":[{"attributes":{"POSITION":5,"NORMAL":6,"TEXCOORD_0":7},"indices":4,"material":1}],"name":"StairsS011"},{"primitives":[{"attributes":{"POSITION":9,"NORMAL":10,"TEXCOORD_0":11},"indices":8,"material":2}],"name":"StairsS009"},{"primitives":[{"attributes":{"POSITION":13,"NORMAL":14,"TEXCOORD_0":15},"indices":12,"material":2}],"name":"StairsS016Coll"}],"accessors":[{"bufferView":0,"componentType":5123,"count":36,"type":"SCALAR","name":"accessorIndices"},{"bufferView":1,"componentType":5126,"count":30,"max":[1.66889286,2.71820474,-0.205260634],"min":[-3.27924228,-2.71820378,-3.391922],"type":"VEC3","name":"accessorPositions"},{"bufferView":1,"byteOffset":360,"componentType":5126,"count":30,"type":"VEC3","name":"accessorNormals"},{"bufferView":2,"componentType":5126,"count":30,"type":"VEC2","name":"accessorUVs"},{"bufferView":0,"byteOffset":72,"componentType":5123,"count":12,"type":"SCALAR","name":"accessorIndices"},{"bufferView":1,"byteOffset":720,"componentType":5126,"count":8,"max":[3.484342,2.17634916,-0.07944373],"min":[-3.48434186,-2.17634916,-4.03908825],"type":"VEC3","name":"accessorPositions"},{"bufferView":1,"byteOffset":816,"componentType":5126,"count":8,"type":"VEC3","name":"accessorNormals"},{"bufferView":2,"byteOffset":240,"componentType":5126,"count":8,"type":"VEC2","name":"accessorUVs"},{"bufferView":0,"byteOffset":96,"componentType":5123,"count":210,"type":"SCALAR","name":"accessorIndices"},{"bufferView":1,"byteOffset":912,"componentType":5126,"count":156,"max":[3.484342,2.92356324,4.02832029E-06],"min":[-3.48434234,-2.92356253,-4.03908825],"type":"VEC3","name":"accessorPositions"},{"bufferView":1,"byteOffset":2784,"componentType":5126,"count":156,"type":"VEC3","name":"accessorNormals"},{"bufferView":2,"byteOffset":304,"componentType":5126,"count":156,"type":"VEC2","name":"accessorUVs"},{"bufferView":0,"byteOffset":516,"componentType":5123,"count":180,"type":"SCALAR","name":"accessorIndices"},{"bufferView":1,"byteOffset":4656,"componentType":5126,"count":113,"max":[3.484342,2.92356324,4.02832029E-06],"min":[-3.48434234,-2.92356253,-4.03908825],"type":"VEC3","name":"accessorPositions"},{"bufferView":1,"byteOffset":6012,"componentType":5126,"count":113,"type":"VEC3","name":"accessorNormals"},{"bufferView":2,"byteOffset":1552,"componentType":5126,"count":113,"type":"VEC2","name":"accessorUVs"}],"bufferViews":[{"buffer":0,"byteLength":876,"name":"bufferViewScalar"},{"buffer":0,"byteOffset":876,"byteLength":7368,"byteStride":12,"name":"bufferViewFloatVec3"},{"buffer":0,"byteOffset":8244,"byteLength":2456,"byteStride":8,"name":"bufferViewFloatVec2"}],"buffers":[{"uri":"Group001.bin","byteLength":10700}],"materials":[{"pbrMetallicRoughness":{"metallicFactor":0.0,"roughnessFactor":0.0},"name":"LightMat1"},{"pbrMetallicRoughness":{"metallicFactor":0.0,"roughnessFactor":0.0},"name":"Stairs"},{"pbrMetallicRoughness":{"metallicFactor":0.0,"roughnessFactor":0.0},"name":"Gray"}]}