{"asset":{"version":"2.0","generator":"babylon.js glTF exporter for 3dsmax 2023 v20250127.3"},"scene":0,"scenes":[{"nodes":[0]}],"nodes":[{"children":[1,2,3],"name":"Light001"},{"mesh":0,"translation":[0.0,-5.79834E-07,9.765625E-07],"rotation":[0.7071068,0.0,0.0,0.7071067],"name":"Light012"},{"mesh":1,"translation":[0.0,-5.79834E-07,9.765625E-07],"rotation":[0.7071068,0.0,0.0,0.7071067],"name":"Light013"},{"translation":[0.0,-5.79834E-07,9.765625E-07],"rotation":[0.7071068,0.0,0.0,0.7071067],"name":"Light011"}],"meshes":[{"primitives":[{"attributes":{"POSITION":1,"NORMAL":2,"TEXCOORD_0":3},"indices":0,"material":0}],"name":"Light012"},{"primitives":[{"attributes":{"POSITION":5,"NORMAL":6,"TEXCOORD_0":7},"indices":4,"material":1}],"name":"Light013"}],"accessors":[{"bufferView":0,"componentType":5123,"count":48,"type":"SCALAR","name":"accessorIndices"},{"bufferView":1,"componentType":5126,"count":32,"max":[0.614938855,0.226984978,0.061810825],"min":[-0.614939868,-0.226986483,-0.467740446],"type":"VEC3","name":"accessorPositions"},{"bufferView":1,"byteOffset":384,"componentType":5126,"count":32,"type":"VEC3","name":"accessorNormals"},{"bufferView":2,"componentType":5126,"count":32,"type":"VEC2","name":"accessorUVs"},{"bufferView":0,"byteOffset":96,"componentType":5123,"count":54,"type":"SCALAR","name":"accessorIndices"},{"bufferView":1,"byteOffset":768,"componentType":5126,"count":36,"max":[0.614938736,0.226984978,0.467739284],"min":[-0.614939868,-0.226986483,0.061810825],"type":"VEC3","name":"accessorPositions"},{"bufferView":1,"byteOffset":1200,"componentType":5126,"count":36,"type":"VEC3","name":"accessorNormals"},{"bufferView":2,"byteOffset":256,"componentType":5126,"count":36,"type":"VEC2","name":"accessorUVs"}],"bufferViews":[{"buffer":0,"byteLength":204,"name":"bufferViewScalar"},{"buffer":0,"byteOffset":204,"byteLength":1632,"byteStride":12,"name":"bufferViewFloatVec3"},{"buffer":0,"byteOffset":1836,"byteLength":544,"byteStride":8,"name":"bufferViewFloatVec2"}],"buffers":[{"uri":"Light001.bin","byteLength":2380}],"materials":[{"pbrMetallicRoughness":{"metallicFactor":0.0,"roughnessFactor":0.0},"name":"Gray"},{"pbrMetallicRoughness":{"metallicFactor":0.0,"roughnessFactor":0.0},"name":"LightMat1"}]}