{"asset":{"version":"2.0","generator":"babylon.js glTF exporter for 3dsmax 2023 v20250127.3"},"scene":0,"scenes":[{"nodes":[0]}],"nodes":[{"children":[1,2,3],"name":"LightBanner005"},{"translation":[-7.8125E-06,-4.36025,-1.83105476E-06],"rotation":[0.7071068,-6.181724E-08,-6.181723E-08,0.7071067],"name":"LightBanner025"},{"mesh":0,"translation":[-7.8125E-06,-4.36025,-1.83105476E-06],"rotation":[0.7071068,-6.181724E-08,-6.181723E-08,0.7071067],"name":"LightBanner027"},{"mesh":1,"translation":[-7.8125E-06,-4.36025,-1.83105476E-06],"rotation":[0.7071068,-6.181724E-08,-6.181723E-08,0.7071067],"name":"LightBanner026"}],"meshes":[{"primitives":[{"attributes":{"POSITION":1,"NORMAL":2,"TEXCOORD_0":3},"indices":0,"material":0}],"name":"LightBanner027"},{"primitives":[{"attributes":{"POSITION":5,"NORMAL":6,"TEXCOORD_0":7},"indices":4,"material":1}],"name":"LightBanner026"}],"accessors":[{"bufferView":0,"componentType":5123,"count":30,"type":"SCALAR","name":"accessorIndices"},{"bufferView":1,"componentType":5126,"count":20,"max":[0.3221627,1.92927229,9.765625E-07],"min":[-0.3221615,-0.636206746,-8.720501],"type":"VEC3","name":"accessorPositions"},{"bufferView":1,"byteOffset":240,"componentType":5126,"count":20,"type":"VEC3","name":"accessorNormals"},{"bufferView":2,"componentType":5126,"count":20,"type":"VEC2","name":"accessorUVs"},{"bufferView":0,"byteOffset":60,"componentType":5123,"count":54,"type":"SCALAR","name":"accessorIndices"},{"bufferView":1,"byteOffset":480,"componentType":5126,"count":36,"max":[0.3221627,1.92927229,9.765625E-07],"min":[-0.159618512,-1.92927063,-8.720501],"type":"VEC3","name":"accessorPositions"},{"bufferView":1,"byteOffset":912,"componentType":5126,"count":36,"type":"VEC3","name":"accessorNormals"},{"bufferView":2,"byteOffset":160,"componentType":5126,"count":36,"type":"VEC2","name":"accessorUVs"}],"bufferViews":[{"buffer":0,"byteLength":168,"name":"bufferViewScalar"},{"buffer":0,"byteOffset":168,"byteLength":1344,"byteStride":12,"name":"bufferViewFloatVec3"},{"buffer":0,"byteOffset":1512,"byteLength":448,"byteStride":8,"name":"bufferViewFloatVec2"}],"buffers":[{"uri":"LightBanner005.bin","byteLength":1960}],"materials":[{"pbrMetallicRoughness":{"metallicFactor":0.0,"roughnessFactor":0.0},"name":"LightMat1"},{"pbrMetallicRoughness":{"metallicFactor":0.0,"roughnessFactor":0.0},"name":"Gray"}]}