{"asset":{"version":"2.0","generator":"babylon.js glTF exporter for 3dsmax 2023 v20250127.3"},"scene":0,"scenes":[{"nodes":[0]}],"nodes":[{"children":[1,2,3],"name":"Light002"},{"mesh":0,"translation":[-3.90625E-06,0.0,0.0],"rotation":[0.7071068,0.0,0.0,0.7071067],"name":"Light015"},{"mesh":1,"translation":[-3.90625E-06,0.0,0.0],"rotation":[0.7071068,0.0,0.0,0.7071067],"name":"Light016"},{"translation":[-3.90625E-06,0.0,0.0],"rotation":[0.7071068,0.0,0.0,0.7071067],"name":"Light014"}],"meshes":[{"primitives":[{"attributes":{"POSITION":1,"NORMAL":2,"TEXCOORD_0":3},"indices":0,"material":0}],"name":"Light015"},{"primitives":[{"attributes":{"POSITION":5,"NORMAL":6,"TEXCOORD_0":7},"indices":4,"material":1}],"name":"Light016"}],"accessors":[{"bufferView":0,"componentType":5123,"count":78,"type":"SCALAR","name":"accessorIndices"},{"bufferView":1,"componentType":5126,"count":44,"max":[0.193144634,0.367434472,0.3674345],"min":[-0.193142548,-0.3674345,-0.3674345],"type":"VEC3","name":"accessorPositions"},{"bufferView":1,"byteOffset":528,"componentType":5126,"count":44,"type":"VEC3","name":"accessorNormals"},{"bufferView":2,"componentType":5126,"count":44,"type":"VEC2","name":"accessorUVs"},{"bufferView":0,"byteOffset":156,"componentType":5123,"count":6,"type":"SCALAR","name":"accessorIndices"},{"bufferView":1,"byteOffset":1056,"componentType":5126,"count":4,"max":[-0.111128181,0.230471373,0.230471388],"min":[-0.11112833,-0.2304714,-0.230471388],"type":"VEC3","name":"accessorPositions"},{"bufferView":1,"byteOffset":1104,"componentType":5126,"count":4,"type":"VEC3","name":"accessorNormals"},{"bufferView":2,"byteOffset":352,"componentType":5126,"count":4,"type":"VEC2","name":"accessorUVs"}],"bufferViews":[{"buffer":0,"byteLength":168,"name":"bufferViewScalar"},{"buffer":0,"byteOffset":168,"byteLength":1152,"byteStride":12,"name":"bufferViewFloatVec3"},{"buffer":0,"byteOffset":1320,"byteLength":384,"byteStride":8,"name":"bufferViewFloatVec2"}],"buffers":[{"uri":"Light002.bin","byteLength":1704}],"materials":[{"pbrMetallicRoughness":{"metallicFactor":0.0,"roughnessFactor":0.0},"name":"Gray"},{"pbrMetallicRoughness":{"metallicFactor":0.0,"roughnessFactor":0.0},"name":"LightMat1"}]}