{"asset":{"version":"2.0","generator":"babylon.js glTF exporter for 3dsmax 2023 v20250127.3"},"scene":0,"scenes":[{"nodes":[0]}],"nodes":[{"children":[1,2,3],"name":"Light003"},{"mesh":0,"translation":[0.1436133,2.44140637E-07,0.0],"rotation":[0.7071068,-3.09086232E-08,-3.090862E-08,0.7071067],"name":"Light006"},{"mesh":1,"translation":[0.1436133,2.44140637E-07,0.0],"rotation":[0.7071068,-3.09086232E-08,-3.090862E-08,0.7071067],"name":"Light007"},{"translation":[0.1436133,2.44140637E-07,0.0],"rotation":[0.7071068,-6.18172464E-08,0.0,0.7071068],"name":"Light005"}],"meshes":[{"primitives":[{"attributes":{"POSITION":1,"NORMAL":2,"TEXCOORD_0":3},"indices":0,"material":0}],"name":"Light006"},{"primitives":[{"attributes":{"POSITION":5,"NORMAL":6,"TEXCOORD_0":7},"indices":4,"material":1}],"name":"Light007"}],"accessors":[{"bufferView":0,"componentType":5123,"count":60,"type":"SCALAR","name":"accessorIndices"},{"bufferView":1,"componentType":5126,"count":40,"max":[3.37219262E-06,0.166189864,1.842203],"min":[-0.2872297,-0.1661877,-1.84220243],"type":"VEC3","name":"accessorPositions"},{"bufferView":1,"byteOffset":480,"componentType":5126,"count":40,"type":"VEC3","name":"accessorNormals"},{"bufferView":2,"componentType":5126,"count":40,"type":"VEC2","name":"accessorUVs"},{"bufferView":0,"byteOffset":120,"componentType":5123,"count":18,"type":"SCALAR","name":"accessorIndices"},{"bufferView":1,"byteOffset":960,"componentType":5126,"count":12,"max":[3.341675E-06,0.166189209,1.48835754],"min":[-0.2872297,-0.166187048,-1.48835731],"type":"VEC3","name":"accessorPositions"},{"bufferView":1,"byteOffset":1104,"componentType":5126,"count":12,"type":"VEC3","name":"accessorNormals"},{"bufferView":2,"byteOffset":320,"componentType":5126,"count":12,"type":"VEC2","name":"accessorUVs"}],"bufferViews":[{"buffer":0,"byteLength":156,"name":"bufferViewScalar"},{"buffer":0,"byteOffset":156,"byteLength":1248,"byteStride":12,"name":"bufferViewFloatVec3"},{"buffer":0,"byteOffset":1404,"byteLength":416,"byteStride":8,"name":"bufferViewFloatVec2"}],"buffers":[{"uri":"Light003.bin","byteLength":1820}],"materials":[{"pbrMetallicRoughness":{"metallicFactor":0.0,"roughnessFactor":0.0},"name":"Gray"},{"pbrMetallicRoughness":{"metallicFactor":0.0,"roughnessFactor":0.0},"name":"LightMat1"}]}