{"asset":{"version":"2.0","generator":"babylon.js glTF exporter for 3dsmax 2023 v20250127.3"},"scene":0,"scenes":[{"nodes":[0]}],"nodes":[{"children":[1,2,3],"name":"LightAntena000"},{"mesh":0,"translation":[0.0,0.0,-1.70898443E-06],"rotation":[0.7071068,0.0,0.0,0.7071067],"name":"LightAntena003"},{"mesh":1,"translation":[0.0,0.0,-1.70898443E-06],"rotation":[0.7071068,0.0,0.0,0.7071067],"name":"LightAntena004"},{"translation":[0.0,0.0,-1.70898443E-06],"rotation":[0.7071068,0.0,0.0,0.7071067],"name":"LightAntena002"}],"meshes":[{"primitives":[{"attributes":{"POSITION":1,"NORMAL":2,"TEXCOORD_0":3},"indices":0,"material":0}],"name":"LightAntena003"},{"primitives":[{"attributes":{"POSITION":5,"NORMAL":6,"TEXCOORD_0":7},"indices":4,"material":1}],"name":"LightAntena004"}],"accessors":[{"bufferView":0,"componentType":5123,"count":72,"type":"SCALAR","name":"accessorIndices"},{"bufferView":1,"componentType":5126,"count":36,"max":[0.150622934,1.09982872,0.0],"min":[-0.150622562,-1.0998292,-23.23398],"type":"VEC3","name":"accessorPositions"},{"bufferView":1,"byteOffset":432,"componentType":5126,"count":36,"type":"VEC3","name":"accessorNormals"},{"bufferView":2,"componentType":5126,"count":36,"type":"VEC2","name":"accessorUVs"},{"bufferView":0,"byteOffset":144,"componentType":5123,"count":30,"type":"SCALAR","name":"accessorIndices"},{"bufferView":1,"byteOffset":864,"componentType":5126,"count":20,"max":[0.150622934,1.09982872,-23.23398],"min":[-0.150617316,0.7985884,-23.5925789],"type":"VEC3","name":"accessorPositions"},{"bufferView":1,"byteOffset":1104,"componentType":5126,"count":20,"type":"VEC3","name":"accessorNormals"},{"bufferView":2,"byteOffset":288,"componentType":5126,"count":20,"type":"VEC2","name":"accessorUVs"}],"bufferViews":[{"buffer":0,"byteLength":204,"name":"bufferViewScalar"},{"buffer":0,"byteOffset":204,"byteLength":1344,"byteStride":12,"name":"bufferViewFloatVec3"},{"buffer":0,"byteOffset":1548,"byteLength":448,"byteStride":8,"name":"bufferViewFloatVec2"}],"buffers":[{"uri":"LightAntena000.bin","byteLength":1996}],"materials":[{"pbrMetallicRoughness":{"metallicFactor":0.0,"roughnessFactor":0.0},"name":"Gray"},{"pbrMetallicRoughness":{"metallicFactor":0.0,"roughnessFactor":0.0},"name":"LightMat1"}]}