{"asset":{"version":"2.0","generator":"babylon.js glTF exporter for 3dsmax 2023 v20250127.3"},"scene":0,"scenes":[{"nodes":[0]}],"nodes":[{"children":[1,2,3],"name":"Light000"},{"mesh":0,"translation":[0.0,-9.84192E-07,0.0],"rotation":[0.7071068,-3.09086232E-08,-3.090862E-08,0.7071067],"name":"Light009"},{"mesh":1,"translation":[0.0,-9.84192E-07,0.0],"rotation":[0.7071068,-3.09086232E-08,-3.090862E-08,0.7071067],"name":"Light010"},{"translation":[0.0,-9.84192E-07,0.0],"rotation":[0.7071068,-6.18172464E-08,0.0,0.7071068],"name":"Light008"}],"meshes":[{"primitives":[{"attributes":{"POSITION":1,"NORMAL":2,"TEXCOORD_0":3},"indices":0,"material":0}],"name":"Light009"},{"primitives":[{"attributes":{"POSITION":5,"NORMAL":6,"TEXCOORD_0":7},"indices":4,"material":1}],"name":"Light010"}],"accessors":[{"bufferView":0,"componentType":5123,"count":60,"type":"SCALAR","name":"accessorIndices"},{"bufferView":1,"componentType":5126,"count":40,"max":[0.143616751,1.32425368,0.166187331],"min":[-0.1436165,-1.32425368,-0.166189283],"type":"VEC3","name":"accessorPositions"},{"bufferView":1,"byteOffset":480,"componentType":5126,"count":40,"type":"VEC3","name":"accessorNormals"},{"bufferView":2,"componentType":5126,"count":40,"type":"VEC2","name":"accessorUVs"},{"bufferView":0,"byteOffset":120,"componentType":5123,"count":18,"type":"SCALAR","name":"accessorIndices"},{"bufferView":1,"byteOffset":960,"componentType":5126,"count":12,"max":[0.143616721,0.9704085,0.1661867],"min":[-0.143616483,-0.970408261,-0.166188657],"type":"VEC3","name":"accessorPositions"},{"bufferView":1,"byteOffset":1104,"componentType":5126,"count":12,"type":"VEC3","name":"accessorNormals"},{"bufferView":2,"byteOffset":320,"componentType":5126,"count":12,"type":"VEC2","name":"accessorUVs"}],"bufferViews":[{"buffer":0,"byteLength":156,"name":"bufferViewScalar"},{"buffer":0,"byteOffset":156,"byteLength":1248,"byteStride":12,"name":"bufferViewFloatVec3"},{"buffer":0,"byteOffset":1404,"byteLength":416,"byteStride":8,"name":"bufferViewFloatVec2"}],"buffers":[{"uri":"Light000.bin","byteLength":1820}],"materials":[{"pbrMetallicRoughness":{"metallicFactor":0.0,"roughnessFactor":0.0},"name":"Gray"},{"pbrMetallicRoughness":{"metallicFactor":0.0,"roughnessFactor":0.0},"name":"LightMat1"}]}