{"asset":{"version":"2.0","generator":"babylon.js glTF exporter for 3dsmax 2023 v20250127.3"},"scene":0,"scenes":[{"nodes":[0]}],"nodes":[{"children":[1,2,3],"name":"LightBanner001"},{"mesh":0,"translation":[1.953125E-06,-2.685547E-06,0.0],"rotation":[0.7071068,0.0,0.0,0.7071067],"name":"LightBanner018"},{"translation":[1.953125E-06,-2.685547E-06,0.0],"rotation":[0.7071068,0.0,0.0,0.7071067],"name":"LightBanner016"},{"mesh":1,"translation":[1.953125E-06,-2.685547E-06,0.0],"rotation":[0.7071068,0.0,0.0,0.7071067],"name":"LightBanner017"}],"meshes":[{"primitives":[{"attributes":{"POSITION":1,"NORMAL":2,"TEXCOORD_0":3},"indices":0,"material":0}],"name":"LightBanner018"},{"primitives":[{"attributes":{"POSITION":5,"NORMAL":6,"TEXCOORD_0":7},"indices":4,"material":1}],"name":"LightBanner017"}],"accessors":[{"bufferView":0,"componentType":5123,"count":36,"type":"SCALAR","name":"accessorIndices"},{"bufferView":1,"componentType":5126,"count":24,"max":[-1.33743775,1.89643133,-1.25020885],"min":[-2.218645,-1.89643252,-4.758885],"type":"VEC3","name":"accessorPositions"},{"bufferView":1,"byteOffset":288,"componentType":5126,"count":24,"type":"VEC3","name":"accessorNormals"},{"bufferView":2,"componentType":5126,"count":24,"type":"VEC2","name":"accessorUVs"},{"bufferView":0,"byteOffset":72,"componentType":5123,"count":120,"type":"SCALAR","name":"accessorIndices"},{"bufferView":1,"byteOffset":576,"componentType":5126,"count":72,"max":[2.21864462,1.32806611,-2.44140642E-06],"min":[-1.455875,-1.31393886,-4.31114769],"type":"VEC3","name":"accessorPositions"},{"bufferView":1,"byteOffset":1440,"componentType":5126,"count":72,"type":"VEC3","name":"accessorNormals"},{"bufferView":2,"byteOffset":192,"componentType":5126,"count":72,"type":"VEC2","name":"accessorUVs"}],"bufferViews":[{"buffer":0,"byteLength":312,"name":"bufferViewScalar"},{"buffer":0,"byteOffset":312,"byteLength":2304,"byteStride":12,"name":"bufferViewFloatVec3"},{"buffer":0,"byteOffset":2616,"byteLength":768,"byteStride":8,"name":"bufferViewFloatVec2"}],"buffers":[{"uri":"LightBanner001.bin","byteLength":3384}],"materials":[{"pbrMetallicRoughness":{"metallicFactor":0.0,"roughnessFactor":0.0},"name":"LightMat1"},{"pbrMetallicRoughness":{"metallicFactor":0.0,"roughnessFactor":0.0},"name":"Gray"}]}