{"asset":{"version":"2.0","generator":"babylon.js glTF exporter for 3dsmax 2023 v20250127.3"},"scene":0,"scenes":[{"nodes":[0]}],"nodes":[{"children":[1,2,3],"name":"LightBanner000"},{"mesh":0,"translation":[-4.882813E-07,-1.22070318E-07,0.0],"rotation":[0.7071068,6.181723E-08,-6.181724E-08,0.7071067],"name":"LightBanner008"},{"mesh":1,"translation":[-4.882813E-07,-1.22070318E-07,0.0],"rotation":[0.7071068,6.181723E-08,-6.181724E-08,0.7071067],"name":"LightBanner009"},{"translation":[-4.882813E-07,-1.22070318E-07,0.0],"rotation":[0.7071068,6.181723E-08,-6.181724E-08,0.7071067],"name":"LightBanner007"}],"meshes":[{"primitives":[{"attributes":{"POSITION":1,"NORMAL":2,"TEXCOORD_0":3},"indices":0,"material":0}],"name":"LightBanner008"},{"primitives":[{"attributes":{"POSITION":5,"NORMAL":6,"TEXCOORD_0":7},"indices":4,"material":1}],"name":"LightBanner009"}],"accessors":[{"bufferView":0,"componentType":5123,"count":360,"type":"SCALAR","name":"accessorIndices"},{"bufferView":1,"componentType":5126,"count":176,"max":[13.4954748,5.29701662,3.67430067],"min":[-13.4954729,-5.297018,-3.67430115],"type":"VEC3","name":"accessorPositions"},{"bufferView":1,"byteOffset":2112,"componentType":5126,"count":176,"type":"VEC3","name":"accessorNormals"},{"bufferView":2,"componentType":5126,"count":176,"type":"VEC2","name":"accessorUVs"},{"bufferView":0,"byteOffset":720,"componentType":5123,"count":60,"type":"SCALAR","name":"accessorIndices"},{"bufferView":1,"byteOffset":4224,"componentType":5126,"count":40,"max":[12.8238955,4.62543774,3.002721],"min":[-12.9651985,-4.76674366,-3.00272155],"type":"VEC3","name":"accessorPositions"},{"bufferView":1,"byteOffset":4704,"componentType":5126,"count":40,"type":"VEC3","name":"accessorNormals"},{"bufferView":2,"byteOffset":1408,"componentType":5126,"count":40,"type":"VEC2","name":"accessorUVs"}],"bufferViews":[{"buffer":0,"byteLength":840,"name":"bufferViewScalar"},{"buffer":0,"byteOffset":840,"byteLength":5184,"byteStride":12,"name":"bufferViewFloatVec3"},{"buffer":0,"byteOffset":6024,"byteLength":1728,"byteStride":8,"name":"bufferViewFloatVec2"}],"buffers":[{"uri":"LightBanner000.bin","byteLength":7752}],"materials":[{"pbrMetallicRoughness":{"metallicFactor":0.0,"roughnessFactor":0.0},"name":"Gray"},{"pbrMetallicRoughness":{"metallicFactor":0.0,"roughnessFactor":0.0},"name":"LightMat1"}]}