{"asset":{"version":"2.0","generator":"babylon.js glTF exporter for 3dsmax 2023 v20250127.3"},"scene":0,"scenes":[{"nodes":[0]}],"nodes":[{"mesh":0,"rotation":[0.7071068,0.0,0.0,0.7071067],"name":"Light004"}],"meshes":[{"primitives":[{"attributes":{"POSITION":1,"NORMAL":2,"TEXCOORD_0":3},"indices":0,"material":0}],"name":"Light004"}],"accessors":[{"bufferView":0,"componentType":5123,"count":66,"type":"SCALAR","name":"accessorIndices"},{"bufferView":1,"componentType":5126,"count":40,"max":[0.8858472,-4.425049E-06,0.296604276],"min":[-0.885848165,-0.192383975,-0.2966028],"type":"VEC3","name":"accessorPositions"},{"bufferView":1,"byteOffset":480,"componentType":5126,"count":40,"type":"VEC3","name":"accessorNormals"},{"bufferView":2,"componentType":5126,"count":40,"type":"VEC2","name":"accessorUVs"}],"bufferViews":[{"buffer":0,"byteLength":132,"name":"bufferViewScalar"},{"buffer":0,"byteOffset":132,"byteLength":960,"byteStride":12,"name":"bufferViewFloatVec3"},{"buffer":0,"byteOffset":1092,"byteLength":320,"byteStride":8,"name":"bufferViewFloatVec2"}],"buffers":[{"uri":"Light004.bin","byteLength":1412}],"materials":[{"pbrMetallicRoughness":{"metallicFactor":0.0,"roughnessFactor":0.0},"name":"LightMat1"}]}