{"asset":{"version":"2.0","generator":"babylon.js glTF exporter for 3dsmax 2023 v20250127.3"},"scene":0,"scenes":[{"nodes":[0]}],"nodes":[{"children":[1,2,3],"name":"LightBanner004"},{"mesh":0,"translation":[0.0,-2.155573,-4.882813E-07],"rotation":[0.7071068,0.0,0.0,0.7071067],"name":"LightBanner024"},{"translation":[0.0,-2.155573,-4.882813E-07],"rotation":[0.7071068,0.0,0.0,0.7071067],"name":"LightBanner022"},{"mesh":1,"translation":[0.0,-2.155573,-4.882813E-07],"rotation":[0.7071068,0.0,0.0,0.7071067],"name":"LightBanner023"}],"meshes":[{"primitives":[{"attributes":{"POSITION":1,"NORMAL":2,"TEXCOORD_0":3},"indices":0,"material":0}],"name":"LightBanner024"},{"primitives":[{"attributes":{"POSITION":5,"NORMAL":6,"TEXCOORD_0":7},"indices":4,"material":1}],"name":"LightBanner023"}],"accessors":[{"bufferView":0,"componentType":5123,"count":30,"type":"SCALAR","name":"accessorIndices"},{"bufferView":1,"componentType":5126,"count":20,"max":[-1.51510108,4.360251,-1.29306424],"min":[-2.15942359,-4.360252,-3.85854268],"type":"VEC3","name":"accessorPositions"},{"bufferView":1,"byteOffset":240,"componentType":5126,"count":20,"type":"VEC3","name":"accessorNormals"},{"bufferView":2,"componentType":5126,"count":20,"type":"VEC2","name":"accessorUVs"},{"bufferView":0,"byteOffset":60,"componentType":5123,"count":126,"type":"SCALAR","name":"accessorIndices"},{"bufferView":1,"byteOffset":480,"componentType":5126,"count":76,"max":[2.15942359,4.360251,0.0],"min":[-1.51510143,-4.360252,-4.311146],"type":"VEC3","name":"accessorPositions"},{"bufferView":1,"byteOffset":1392,"componentType":5126,"count":76,"type":"VEC3","name":"accessorNormals"},{"bufferView":2,"byteOffset":160,"componentType":5126,"count":76,"type":"VEC2","name":"accessorUVs"}],"bufferViews":[{"buffer":0,"byteLength":312,"name":"bufferViewScalar"},{"buffer":0,"byteOffset":312,"byteLength":2304,"byteStride":12,"name":"bufferViewFloatVec3"},{"buffer":0,"byteOffset":2616,"byteLength":768,"byteStride":8,"name":"bufferViewFloatVec2"}],"buffers":[{"uri":"LightBanner004.bin","byteLength":3384}],"materials":[{"pbrMetallicRoughness":{"metallicFactor":0.0,"roughnessFactor":0.0},"name":"LightMat1"},{"pbrMetallicRoughness":{"metallicFactor":0.0,"roughnessFactor":0.0},"name":"Gray"}]}