{"asset":{"version":"2.0","generator":"babylon.js glTF exporter for 3dsmax 2023 v20250127.3"},"scene":0,"scenes":[{"nodes":[0]}],"nodes":[{"children":[1,2,3],"name":"LightBanner002"},{"mesh":0,"translation":[-1.35803225E-06,1.22070321E-06,-1.92925012],"rotation":[0.7071068,-6.181724E-08,-6.181723E-08,0.7071067],"name":"LightBanner011"},{"mesh":1,"translation":[-1.35803225E-06,1.22070321E-06,-1.92925012],"rotation":[0.7071068,-6.181724E-08,-6.181723E-08,0.7071067],"name":"LightBanner012"},{"translation":[-1.35803225E-06,1.22070321E-06,-1.92925012],"rotation":[0.7071068,-6.181724E-08,-6.181723E-08,0.7071067],"name":"LightBanner010"}],"meshes":[{"primitives":[{"attributes":{"POSITION":1,"NORMAL":2,"TEXCOORD_0":3},"indices":0,"material":0}],"name":"LightBanner011"},{"primitives":[{"attributes":{"POSITION":5,"NORMAL":6,"TEXCOORD_0":7},"indices":4,"material":1}],"name":"LightBanner012"}],"accessors":[{"bufferView":0,"componentType":5123,"count":54,"type":"SCALAR","name":"accessorIndices"},{"bufferView":1,"componentType":5126,"count":36,"max":[0.322163433,3.85854,4.360252],"min":[-0.159617752,-2.92968753E-06,-4.36025047],"type":"VEC3","name":"accessorPositions"},{"bufferView":1,"byteOffset":432,"componentType":5126,"count":36,"type":"VEC3","name":"accessorNormals"},{"bufferView":2,"componentType":5126,"count":36,"type":"VEC2","name":"accessorUVs"},{"bufferView":0,"byteOffset":108,"componentType":5123,"count":30,"type":"SCALAR","name":"accessorIndices"},{"bufferView":1,"byteOffset":864,"componentType":5126,"count":20,"max":[0.322163433,3.85854,4.360252],"min":[-0.322160721,1.2930609,-4.36025047],"type":"VEC3","name":"accessorPositions"},{"bufferView":1,"byteOffset":1104,"componentType":5126,"count":20,"type":"VEC3","name":"accessorNormals"},{"bufferView":2,"byteOffset":288,"componentType":5126,"count":20,"type":"VEC2","name":"accessorUVs"}],"bufferViews":[{"buffer":0,"byteLength":168,"name":"bufferViewScalar"},{"buffer":0,"byteOffset":168,"byteLength":1344,"byteStride":12,"name":"bufferViewFloatVec3"},{"buffer":0,"byteOffset":1512,"byteLength":448,"byteStride":8,"name":"bufferViewFloatVec2"}],"buffers":[{"uri":"LightBanner002.bin","byteLength":1960}],"materials":[{"pbrMetallicRoughness":{"metallicFactor":0.0,"roughnessFactor":0.0},"name":"Gray"},{"pbrMetallicRoughness":{"metallicFactor":0.0,"roughnessFactor":0.0},"name":"LightMat1"}]}