{"asset":{"version":"2.0","generator":"babylon.js glTF exporter for 3dsmax 2023 v20250127.3"},"scene":0,"scenes":[{"nodes":[0]}],"nodes":[{"children":[1,2,3,4],"name":"Platform009"},{"mesh":0,"translation":[0.0,0.571857,0.0],"rotation":[0.7071068,0.0,0.0,0.7071067],"name":"Platform013"},{"mesh":1,"translation":[0.0,0.571857,0.0],"rotation":[0.7071068,0.0,0.0,0.7071067],"name":"Platform014"},{"mesh":2,"translation":[0.0,0.571857,0.0],"rotation":[0.7071068,0.0,0.0,0.7071067],"name":"Platform015"},{"translation":[0.0,0.571857,0.0],"rotation":[0.7071068,0.0,0.0,0.7071067],"name":"Platform012"}],"meshes":[{"primitives":[{"attributes":{"POSITION":1,"NORMAL":2,"TEXCOORD_0":3},"indices":0,"material":0}],"name":"Platform013"},{"primitives":[{"attributes":{"POSITION":5,"NORMAL":6,"TEXCOORD_0":7},"indices":4,"material":1}],"name":"Platform014"},{"primitives":[{"attributes":{"POSITION":9,"NORMAL":10,"TEXCOORD_0":11},"indices":8,"material":2}],"name":"Platform015"}],"accessors":[{"bufferView":0,"componentType":5123,"count":102,"type":"SCALAR","name":"accessorIndices"},{"bufferView":1,"componentType":5126,"count":78,"max":[4.87924242,5.25766563,0.5718565],"min":[-4.87924242,-5.25766563,-0.5718535],"type":"VEC3","name":"accessorPositions"},{"bufferView":1,"byteOffset":936,"componentType":5126,"count":78,"type":"VEC3","name":"accessorNormals"},{"bufferView":2,"componentType":5126,"count":78,"type":"VEC2","name":"accessorUVs"},{"bufferView":0,"byteOffset":204,"componentType":5123,"count":24,"type":"SCALAR","name":"accessorIndices"},{"bufferView":1,"byteOffset":1872,"componentType":5126,"count":24,"max":[4.66015625,5.038585,0.347515643],"min":[-4.66017,-5.044694,-0.01438086],"type":"VEC3","name":"accessorPositions"},{"bufferView":1,"byteOffset":2160,"componentType":5126,"count":24,"type":"VEC3","name":"accessorNormals"},{"bufferView":2,"byteOffset":624,"componentType":5126,"count":24,"type":"VEC2","name":"accessorUVs"},{"bufferView":0,"byteOffset":252,"componentType":5123,"count":6,"type":"SCALAR","name":"accessorIndices"},{"bufferView":1,"byteOffset":2448,"componentType":5126,"count":4,"max":[4.879225,5.257656,-0.5718535],"min":[-4.87924242,-5.257661,-0.5718535],"type":"VEC3","name":"accessorPositions"},{"bufferView":1,"byteOffset":2496,"componentType":5126,"count":4,"type":"VEC3","name":"accessorNormals"},{"bufferView":2,"byteOffset":816,"componentType":5126,"count":4,"type":"VEC2","name":"accessorUVs"}],"bufferViews":[{"buffer":0,"byteLength":264,"name":"bufferViewScalar"},{"buffer":0,"byteOffset":264,"byteLength":2544,"byteStride":12,"name":"bufferViewFloatVec3"},{"buffer":0,"byteOffset":2808,"byteLength":848,"byteStride":8,"name":"bufferViewFloatVec2"}],"buffers":[{"uri":"Platform009.bin","byteLength":3656}],"materials":[{"pbrMetallicRoughness":{"metallicFactor":0.0,"roughnessFactor":0.0},"name":"Gray"},{"pbrMetallicRoughness":{"metallicFactor":0.0,"roughnessFactor":0.0},"name":"LightMat1"},{"pbrMetallicRoughness":{"metallicFactor":0.0,"roughnessFactor":0.0},"name":"FloorPlatform"}]}