{"asset":{"version":"2.0","generator":"babylon.js glTF exporter for 3dsmax 2023 v20250127.3"},"scene":0,"scenes":[{"nodes":[0]}],"nodes":[{"children":[1,2,3,4],"name":"Platform007"},{"mesh":0,"translation":[-9.765625E-07,1.09863288E-06,0.0],"rotation":[0.7071068,6.181723E-08,-6.181724E-08,0.7071067],"name":"Platform044"},{"mesh":1,"translation":[-9.765625E-07,1.09863288E-06,0.0],"rotation":[0.7071068,6.181723E-08,-6.181724E-08,0.7071067],"name":"Platform043"},{"translation":[-9.765625E-07,1.09863288E-06,0.0],"rotation":[0.7071068,6.181723E-08,-6.181724E-08,0.7071067],"name":"Platform041"},{"mesh":2,"translation":[-9.765625E-07,1.09863288E-06,0.0],"rotation":[0.7071068,6.181723E-08,-6.181724E-08,0.7071067],"name":"Platform042"}],"meshes":[{"primitives":[{"attributes":{"POSITION":1,"NORMAL":2,"TEXCOORD_0":3},"indices":0,"material":0}],"name":"Platform044"},{"primitives":[{"attributes":{"POSITION":5,"NORMAL":6,"TEXCOORD_0":7},"indices":4,"material":1}],"name":"Platform043"},{"primitives":[{"attributes":{"POSITION":9,"NORMAL":10,"TEXCOORD_0":11},"indices":8,"material":2}],"name":"Platform042"}],"accessors":[{"bufferView":0,"componentType":5123,"count":6,"type":"SCALAR","name":"accessorIndices"},{"bufferView":1,"componentType":5126,"count":4,"max":[2.35594368,4.89759,-4.06712151],"min":[-2.35593724,-4.89760876,-4.06712151],"type":"VEC3","name":"accessorPositions"},{"bufferView":1,"byteOffset":48,"componentType":5126,"count":4,"type":"VEC3","name":"accessorNormals"},{"bufferView":2,"componentType":5126,"count":4,"type":"VEC2","name":"accessorUVs"},{"bufferView":0,"byteOffset":12,"componentType":5123,"count":24,"type":"SCALAR","name":"accessorIndices"},{"bufferView":1,"byteOffset":96,"componentType":5126,"count":24,"max":[2.14297748,4.67852259,-3.147752],"min":[-2.13686657,-4.67853546,-3.50964856],"type":"VEC3","name":"accessorPositions"},{"bufferView":1,"byteOffset":384,"componentType":5126,"count":24,"type":"VEC3","name":"accessorNormals"},{"bufferView":2,"byteOffset":32,"componentType":5126,"count":24,"type":"VEC2","name":"accessorUVs"},{"bufferView":0,"byteOffset":60,"componentType":5123,"count":96,"type":"SCALAR","name":"accessorIndices"},{"bufferView":1,"byteOffset":672,"componentType":5126,"count":72,"max":[2.35594869,4.89760876,-1.22070321E-06],"min":[-2.3559463,-4.89760876,-4.06712151],"type":"VEC3","name":"accessorPositions"},{"bufferView":1,"byteOffset":1536,"componentType":5126,"count":72,"type":"VEC3","name":"accessorNormals"},{"bufferView":2,"byteOffset":224,"componentType":5126,"count":72,"type":"VEC2","name":"accessorUVs"}],"bufferViews":[{"buffer":0,"byteLength":252,"name":"bufferViewScalar"},{"buffer":0,"byteOffset":252,"byteLength":2400,"byteStride":12,"name":"bufferViewFloatVec3"},{"buffer":0,"byteOffset":2652,"byteLength":800,"byteStride":8,"name":"bufferViewFloatVec2"}],"buffers":[{"uri":"Platform007.bin","byteLength":3452}],"materials":[{"pbrMetallicRoughness":{"metallicFactor":0.0,"roughnessFactor":0.0},"name":"FloorPlatform"},{"pbrMetallicRoughness":{"metallicFactor":0.0,"roughnessFactor":0.0},"name":"LightMat1"},{"pbrMetallicRoughness":{"metallicFactor":0.0,"roughnessFactor":0.0},"name":"Gray"}]}