{"asset":{"version":"2.0","generator":"babylon.js glTF exporter for 3dsmax 2023 v20250127.3"},"scene":0,"scenes":[{"nodes":[0]}],"nodes":[{"children":[1,2,3,4],"name":"Platform002"},{"mesh":0,"translation":[0.0,-1.22070321E-06,2.44140637E-07],"rotation":[0.7071068,0.0,0.0,0.7071067],"name":"Platform034"},{"mesh":1,"translation":[0.0,-1.22070321E-06,2.44140637E-07],"rotation":[0.7071068,0.0,0.0,0.7071067],"name":"Platform035"},{"mesh":2,"translation":[0.0,-1.22070321E-06,2.44140637E-07],"rotation":[0.7071068,0.0,0.0,0.7071067],"name":"Platform036"},{"translation":[0.0,-1.22070321E-06,2.44140637E-07],"rotation":[0.7071068,0.0,0.0,0.7071067],"name":"Platform033"}],"meshes":[{"primitives":[{"attributes":{"POSITION":1,"NORMAL":2,"TEXCOORD_0":3},"indices":0,"material":0}],"name":"Platform034"},{"primitives":[{"attributes":{"POSITION":5,"NORMAL":6,"TEXCOORD_0":7},"indices":4,"material":1}],"name":"Platform035"},{"primitives":[{"attributes":{"POSITION":9,"NORMAL":10,"TEXCOORD_0":11},"indices":8,"material":2}],"name":"Platform036"}],"accessors":[{"bufferView":0,"componentType":5123,"count":96,"type":"SCALAR","name":"accessorIndices"},{"bufferView":1,"componentType":5126,"count":48,"max":[4.7900157,2.28551579,-9.765625E-07],"min":[-4.79001236,-2.28551674,-2.72170424],"type":"VEC3","name":"accessorPositions"},{"bufferView":1,"byteOffset":576,"componentType":5126,"count":48,"type":"VEC3","name":"accessorNormals"},{"bufferView":2,"componentType":5126,"count":48,"type":"VEC2","name":"accessorUVs"},{"bufferView":0,"byteOffset":192,"componentType":5123,"count":24,"type":"SCALAR","name":"accessorIndices"},{"bufferView":1,"byteOffset":1152,"componentType":5126,"count":16,"max":[4.553977,2.04947853,-0.3505049],"min":[-4.553974,-2.04947948,-1.25773931],"type":"VEC3","name":"accessorPositions"},{"bufferView":1,"byteOffset":1344,"componentType":5126,"count":16,"type":"VEC3","name":"accessorNormals"},{"bufferView":2,"byteOffset":384,"componentType":5126,"count":16,"type":"VEC2","name":"accessorUVs"},{"bufferView":0,"byteOffset":240,"componentType":5123,"count":6,"type":"SCALAR","name":"accessorIndices"},{"bufferView":1,"byteOffset":1536,"componentType":5126,"count":4,"max":[4.7900157,2.28551579,-2.72170424],"min":[-4.79001236,-2.28551674,-2.72170424],"type":"VEC3","name":"accessorPositions"},{"bufferView":1,"byteOffset":1584,"componentType":5126,"count":4,"type":"VEC3","name":"accessorNormals"},{"bufferView":2,"byteOffset":512,"componentType":5126,"count":4,"type":"VEC2","name":"accessorUVs"}],"bufferViews":[{"buffer":0,"byteLength":252,"name":"bufferViewScalar"},{"buffer":0,"byteOffset":252,"byteLength":1632,"byteStride":12,"name":"bufferViewFloatVec3"},{"buffer":0,"byteOffset":1884,"byteLength":544,"byteStride":8,"name":"bufferViewFloatVec2"}],"buffers":[{"uri":"Platform002.bin","byteLength":2428}],"materials":[{"pbrMetallicRoughness":{"metallicFactor":0.0,"roughnessFactor":0.0},"name":"Gray"},{"pbrMetallicRoughness":{"metallicFactor":0.0,"roughnessFactor":0.0},"name":"LightMat1"},{"pbrMetallicRoughness":{"metallicFactor":0.0,"roughnessFactor":0.0},"name":"FloorPlatform"}]}