{"asset":{"version":"2.0","generator":"babylon.js glTF exporter for 3dsmax 2023 v20250127.3"},"scene":0,"scenes":[{"nodes":[0]}],"nodes":[{"children":[1,2,3,4,5],"name":"Platform005"},{"mesh":0,"translation":[0.0,-1.46484376E-06,0.0],"rotation":[0.7071068,0.0,0.0,0.7071067],"name":"Platform025"},{"mesh":1,"translation":[0.0,-1.46484376E-06,0.0],"rotation":[0.7071068,0.0,0.0,0.7071067],"name":"Platform026"},{"translation":[0.0,-1.46484376E-06,0.0],"rotation":[0.7071068,0.0,0.0,0.7071067],"name":"Platform024"},{"mesh":2,"translation":[0.0,-1.46484376E-06,0.0],"rotation":[0.7071068,0.0,0.0,0.7071067],"name":"Object003"},{"mesh":3,"translation":[0.0,-1.46484376E-06,0.0],"rotation":[0.7071068,0.0,0.0,0.7071067],"name":"Object004Coll"}],"meshes":[{"primitives":[{"attributes":{"POSITION":1,"NORMAL":2,"TEXCOORD_0":3},"indices":0,"material":0}],"name":"Platform025"},{"primitives":[{"attributes":{"POSITION":5,"NORMAL":6,"TEXCOORD_0":7},"indices":4,"material":1}],"name":"Platform026"},{"primitives":[{"attributes":{"POSITION":9,"NORMAL":10,"TEXCOORD_0":11},"indices":8,"material":2}],"name":"Object003"},{"primitives":[{"attributes":{"POSITION":13,"NORMAL":14,"TEXCOORD_0":15},"indices":12,"material":0}],"name":"Object004Coll"}],"accessors":[{"bufferView":0,"componentType":5123,"count":240,"type":"SCALAR","name":"accessorIndices"},{"bufferView":1,"componentType":5126,"count":112,"max":[5.833344,15.0242682,-2.92968753E-06],"min":[-5.833344,-15.0242682,-2.72170615],"type":"VEC3","name":"accessorPositions"},{"bufferView":1,"byteOffset":1344,"componentType":5126,"count":112,"type":"VEC3","name":"accessorNormals"},{"bufferView":2,"componentType":5126,"count":112,"type":"VEC2","name":"accessorUVs"},{"bufferView":0,"byteOffset":480,"componentType":5123,"count":60,"type":"SCALAR","name":"accessorIndices"},{"bufferView":1,"byteOffset":2688,"componentType":5126,"count":36,"max":[5.59730673,14.78823,-0.350506842],"min":[-5.59730673,-14.78823,-1.25774121],"type":"VEC3","name":"accessorPositions"},{"bufferView":1,"byteOffset":3120,"componentType":5126,"count":36,"type":"VEC3","name":"accessorNormals"},{"bufferView":2,"byteOffset":896,"componentType":5126,"count":36,"type":"VEC2","name":"accessorUVs"},{"bufferView":0,"byteOffset":600,"componentType":5123,"count":24,"type":"SCALAR","name":"accessorIndices"},{"bufferView":1,"byteOffset":3552,"componentType":5126,"count":14,"max":[5.833344,15.0242682,-2.72170615],"min":[-5.833344,-15.0242682,-2.72170615],"type":"VEC3","name":"accessorPositions"},{"bufferView":1,"byteOffset":3720,"componentType":5126,"count":14,"type":"VEC3","name":"accessorNormals"},{"bufferView":2,"byteOffset":1184,"componentType":5126,"count":14,"type":"VEC2","name":"accessorUVs"},{"bufferView":0,"byteOffset":648,"componentType":5123,"count":108,"type":"SCALAR","name":"accessorIndices"},{"bufferView":1,"byteOffset":3888,"componentType":5126,"count":56,"max":[5.833344,15.02427,-9.765625E-07],"min":[-5.833344,-15.0242682,-2.721706],"type":"VEC3","name":"accessorPositions"},{"bufferView":1,"byteOffset":4560,"componentType":5126,"count":56,"type":"VEC3","name":"accessorNormals"},{"bufferView":2,"byteOffset":1296,"componentType":5126,"count":56,"type":"VEC2","name":"accessorUVs"}],"bufferViews":[{"buffer":0,"byteLength":864,"name":"bufferViewScalar"},{"buffer":0,"byteOffset":864,"byteLength":5232,"byteStride":12,"name":"bufferViewFloatVec3"},{"buffer":0,"byteOffset":6096,"byteLength":1744,"byteStride":8,"name":"bufferViewFloatVec2"}],"buffers":[{"uri":"Platform005.bin","byteLength":7840}],"materials":[{"pbrMetallicRoughness":{"metallicFactor":0.0,"roughnessFactor":0.0},"name":"Gray"},{"pbrMetallicRoughness":{"metallicFactor":0.0,"roughnessFactor":0.0},"name":"LightMat1"},{"pbrMetallicRoughness":{"metallicFactor":0.0,"roughnessFactor":0.0},"name":"FloorPlatform"}]}