{"asset":{"version":"2.0","generator":"babylon.js glTF exporter for 3dsmax 2023 v20250127.3"},"scene":0,"scenes":[{"nodes":[0]}],"nodes":[{"children":[1,2,3,4],"name":"Platform008"},{"mesh":0,"translation":[0.0,0.5718533,0.0],"rotation":[0.7071068,0.0,0.0,0.7071067],"name":"Platform038"},{"mesh":1,"translation":[0.0,0.5718533,0.0],"rotation":[0.7071068,0.0,0.0,0.7071067],"name":"Platform039"},{"mesh":2,"translation":[0.0,0.5718533,0.0],"rotation":[0.7071068,0.0,0.0,0.7071067],"name":"Platform040"},{"translation":[0.0,0.5718533,0.0],"rotation":[0.7071068,0.0,0.0,0.7071067],"name":"Platform037"}],"meshes":[{"primitives":[{"attributes":{"POSITION":1,"NORMAL":2,"TEXCOORD_0":3},"indices":0,"material":0}],"name":"Platform038"},{"primitives":[{"attributes":{"POSITION":5,"NORMAL":6,"TEXCOORD_0":7},"indices":4,"material":1}],"name":"Platform039"},{"primitives":[{"attributes":{"POSITION":9,"NORMAL":10,"TEXCOORD_0":11},"indices":8,"material":2}],"name":"Platform040"}],"accessors":[{"bufferView":0,"componentType":5123,"count":126,"type":"SCALAR","name":"accessorIndices"},{"bufferView":1,"componentType":5126,"count":92,"max":[2.35595226,9.221484,0.571854532],"min":[-2.35595226,-9.221484,-0.5718555],"type":"VEC3","name":"accessorPositions"},{"bufferView":1,"byteOffset":1104,"componentType":5126,"count":92,"type":"VEC3","name":"accessorNormals"},{"bufferView":2,"componentType":5126,"count":92,"type":"VEC2","name":"accessorUVs"},{"bufferView":0,"byteOffset":252,"componentType":5123,"count":48,"type":"SCALAR","name":"accessorIndices"},{"bufferView":1,"byteOffset":2208,"componentType":5126,"count":28,"max":[2.136872,9.002412,0.571854532],"min":[-2.14298153,-9.002398,-0.0143828131],"type":"VEC3","name":"accessorPositions"},{"bufferView":1,"byteOffset":2544,"componentType":5126,"count":28,"type":"VEC3","name":"accessorNormals"},{"bufferView":2,"byteOffset":736,"componentType":5126,"count":28,"type":"VEC2","name":"accessorUVs"},{"bufferView":0,"byteOffset":348,"componentType":5123,"count":6,"type":"SCALAR","name":"accessorIndices"},{"bufferView":1,"byteOffset":2880,"componentType":5126,"count":4,"max":[2.35594249,9.221484,-0.5718555],"min":[-2.3559463,-9.221466,-0.5718555],"type":"VEC3","name":"accessorPositions"},{"bufferView":1,"byteOffset":2928,"componentType":5126,"count":4,"type":"VEC3","name":"accessorNormals"},{"bufferView":2,"byteOffset":960,"componentType":5126,"count":4,"type":"VEC2","name":"accessorUVs"}],"bufferViews":[{"buffer":0,"byteLength":360,"name":"bufferViewScalar"},{"buffer":0,"byteOffset":360,"byteLength":2976,"byteStride":12,"name":"bufferViewFloatVec3"},{"buffer":0,"byteOffset":3336,"byteLength":992,"byteStride":8,"name":"bufferViewFloatVec2"}],"buffers":[{"uri":"Platform008.bin","byteLength":4328}],"materials":[{"pbrMetallicRoughness":{"metallicFactor":0.0,"roughnessFactor":0.0},"name":"Gray"},{"pbrMetallicRoughness":{"metallicFactor":0.0,"roughnessFactor":0.0},"name":"LightMat1"},{"pbrMetallicRoughness":{"metallicFactor":0.0,"roughnessFactor":0.0},"name":"FloorPlatform"}]}