{"asset":{"version":"2.0","generator":"babylon.js glTF exporter for 3dsmax 2023 v20250127.3"},"scene":0,"scenes":[{"nodes":[0]}],"nodes":[{"children":[1,2,3,4],"name":"Platform010"},{"mesh":0,"translation":[-4.882813E-07,0.5718566,0.0],"rotation":[0.7071068,6.181723E-08,-6.181724E-08,0.7071067],"name":"Platform017"},{"mesh":1,"translation":[-4.882813E-07,0.5718566,0.0],"rotation":[0.7071068,6.181723E-08,-6.181724E-08,0.7071067],"name":"Platform018"},{"mesh":2,"translation":[-4.882813E-07,0.5718566,0.0],"rotation":[0.7071068,6.181723E-08,-6.181724E-08,0.7071067],"name":"Platform019"},{"translation":[-4.882813E-07,0.5718566,0.0],"rotation":[0.7071068,6.181723E-08,-6.181724E-08,0.7071067],"name":"Platform016"}],"meshes":[{"primitives":[{"attributes":{"POSITION":1,"NORMAL":2,"TEXCOORD_0":3},"indices":0,"material":0}],"name":"Platform017"},{"primitives":[{"attributes":{"POSITION":5,"NORMAL":6,"TEXCOORD_0":7},"indices":4,"material":1}],"name":"Platform018"},{"primitives":[{"attributes":{"POSITION":9,"NORMAL":10,"TEXCOORD_0":11},"indices":8,"material":2}],"name":"Platform019"}],"accessors":[{"bufferView":0,"componentType":5123,"count":126,"type":"SCALAR","name":"accessorIndices"},{"bufferView":1,"componentType":5126,"count":88,"max":[4.18385172,13.0589113,0.571854353],"min":[-4.183851,-13.0589113,-0.571855366],"type":"VEC3","name":"accessorPositions"},{"bufferView":1,"byteOffset":1056,"componentType":5126,"count":88,"type":"VEC3","name":"accessorNormals"},{"bufferView":2,"componentType":5126,"count":88,"type":"VEC2","name":"accessorUVs"},{"bufferView":0,"byteOffset":252,"componentType":5123,"count":48,"type":"SCALAR","name":"accessorIndices"},{"bufferView":1,"byteOffset":2112,"componentType":5126,"count":32,"max":[3.96477151,12.839838,0.571854353],"min":[-3.97088075,-12.8398256,-0.0143829044],"type":"VEC3","name":"accessorPositions"},{"bufferView":1,"byteOffset":2496,"componentType":5126,"count":32,"type":"VEC3","name":"accessorNormals"},{"bufferView":2,"byteOffset":704,"componentType":5126,"count":32,"type":"VEC2","name":"accessorUVs"},{"bufferView":0,"byteOffset":348,"componentType":5123,"count":6,"type":"SCALAR","name":"accessorIndices"},{"bufferView":1,"byteOffset":2880,"componentType":5126,"count":4,"max":[4.18384266,13.0589113,-0.571855366],"min":[-4.183847,-13.0588932,-0.571855366],"type":"VEC3","name":"accessorPositions"},{"bufferView":1,"byteOffset":2928,"componentType":5126,"count":4,"type":"VEC3","name":"accessorNormals"},{"bufferView":2,"byteOffset":960,"componentType":5126,"count":4,"type":"VEC2","name":"accessorUVs"}],"bufferViews":[{"buffer":0,"byteLength":360,"name":"bufferViewScalar"},{"buffer":0,"byteOffset":360,"byteLength":2976,"byteStride":12,"name":"bufferViewFloatVec3"},{"buffer":0,"byteOffset":3336,"byteLength":992,"byteStride":8,"name":"bufferViewFloatVec2"}],"buffers":[{"uri":"Platform010.bin","byteLength":4328}],"materials":[{"pbrMetallicRoughness":{"metallicFactor":0.0,"roughnessFactor":0.0},"name":"Gray"},{"pbrMetallicRoughness":{"metallicFactor":0.0,"roughnessFactor":0.0},"name":"LightMat1"},{"pbrMetallicRoughness":{"metallicFactor":0.0,"roughnessFactor":0.0},"name":"FloorPlatform"}]}