{"asset":{"version":"2.0","generator":"babylon.js glTF exporter for 3dsmax 2023 v20250127.3"},"scene":0,"scenes":[{"nodes":[0]}],"nodes":[{"children":[1,2,3,4],"name":"Platform000"},{"translation":[0.0,2.19726576E-06,0.0],"rotation":[0.7071068,0.0,0.0,0.7071067],"name":"Platform027"},{"mesh":0,"translation":[0.0,2.19726576E-06,0.0],"rotation":[0.7071068,0.0,0.0,0.7071067],"name":"Platform029"},{"mesh":1,"translation":[0.0,2.19726576E-06,0.0],"rotation":[0.7071068,0.0,0.0,0.7071067],"name":"Platform028"},{"mesh":2,"translation":[0.0,2.19726576E-06,0.0],"rotation":[0.7071068,0.0,0.0,0.7071067],"name":"Object001"}],"meshes":[{"primitives":[{"attributes":{"POSITION":1,"NORMAL":2,"TEXCOORD_0":3},"indices":0,"material":0}],"name":"Platform029"},{"primitives":[{"attributes":{"POSITION":5,"NORMAL":6,"TEXCOORD_0":7},"indices":4,"material":1}],"name":"Platform028"},{"primitives":[{"attributes":{"POSITION":9,"NORMAL":10,"TEXCOORD_0":11},"indices":8,"material":2}],"name":"Object001"}],"accessors":[{"bufferView":0,"componentType":5123,"count":24,"type":"SCALAR","name":"accessorIndices"},{"bufferView":1,"componentType":5126,"count":16,"max":[5.83206272,6.75890541,-0.350502938],"min":[-5.83206367,-6.75890541,-1.2577374],"type":"VEC3","name":"accessorPositions"},{"bufferView":1,"byteOffset":192,"componentType":5126,"count":16,"type":"VEC3","name":"accessorNormals"},{"bufferView":2,"componentType":5126,"count":16,"type":"VEC2","name":"accessorUVs"},{"bufferView":0,"byteOffset":48,"componentType":5123,"count":96,"type":"SCALAR","name":"accessorIndices"},{"bufferView":1,"byteOffset":384,"componentType":5126,"count":48,"max":[6.068102,6.99494362,9.765625E-07],"min":[-6.068102,-6.99494362,-2.72170234],"type":"VEC3","name":"accessorPositions"},{"bufferView":1,"byteOffset":960,"componentType":5126,"count":48,"type":"VEC3","name":"accessorNormals"},{"bufferView":2,"byteOffset":128,"componentType":5126,"count":48,"type":"VEC2","name":"accessorUVs"},{"bufferView":0,"byteOffset":240,"componentType":5123,"count":6,"type":"SCALAR","name":"accessorIndices"},{"bufferView":1,"byteOffset":1536,"componentType":5126,"count":4,"max":[6.068102,6.99494362,-2.72170234],"min":[-6.068102,-6.99494362,-2.72170234],"type":"VEC3","name":"accessorPositions"},{"bufferView":1,"byteOffset":1584,"componentType":5126,"count":4,"type":"VEC3","name":"accessorNormals"},{"bufferView":2,"byteOffset":512,"componentType":5126,"count":4,"type":"VEC2","name":"accessorUVs"}],"bufferViews":[{"buffer":0,"byteLength":252,"name":"bufferViewScalar"},{"buffer":0,"byteOffset":252,"byteLength":1632,"byteStride":12,"name":"bufferViewFloatVec3"},{"buffer":0,"byteOffset":1884,"byteLength":544,"byteStride":8,"name":"bufferViewFloatVec2"}],"buffers":[{"uri":"Platform000.bin","byteLength":2428}],"materials":[{"pbrMetallicRoughness":{"metallicFactor":0.0,"roughnessFactor":0.0},"name":"LightMat1"},{"pbrMetallicRoughness":{"metallicFactor":0.0,"roughnessFactor":0.0},"name":"Gray"},{"pbrMetallicRoughness":{"metallicFactor":0.0,"roughnessFactor":0.0},"name":"FloorPlatform"}]}