{"asset":{"version":"2.0","generator":"babylon.js glTF exporter for 3dsmax 2023 v20250127.3"},"scene":0,"scenes":[{"nodes":[0]}],"nodes":[{"children":[1,2,3,4],"name":"Platform004"},{"mesh":0,"translation":[0.0,8.544922E-07,-7.324219E-07],"rotation":[0.7071068,0.0,0.0,0.7071067],"name":"Platform031"},{"mesh":1,"translation":[0.0,8.544922E-07,-7.324219E-07],"rotation":[0.7071068,0.0,0.0,0.7071067],"name":"Platform032"},{"translation":[0.0,8.544922E-07,-7.324219E-07],"rotation":[0.7071068,0.0,0.0,0.7071067],"name":"Platform030"},{"mesh":2,"translation":[0.0,8.544922E-07,-7.324219E-07],"rotation":[0.7071068,0.0,0.0,0.7071067],"name":"Object002"}],"meshes":[{"primitives":[{"attributes":{"POSITION":1,"NORMAL":2,"TEXCOORD_0":3},"indices":0,"material":0}],"name":"Platform031"},{"primitives":[{"attributes":{"POSITION":5,"NORMAL":6,"TEXCOORD_0":7},"indices":4,"material":1}],"name":"Platform032"},{"primitives":[{"attributes":{"POSITION":9,"NORMAL":10,"TEXCOORD_0":11},"indices":8,"material":2}],"name":"Object002"}],"accessors":[{"bufferView":0,"componentType":5123,"count":96,"type":"SCALAR","name":"accessorIndices"},{"bufferView":1,"componentType":5126,"count":48,"max":[5.67411757,3.07777548,9.765625E-07],"min":[-5.67411757,-3.07777452,-2.72170234],"type":"VEC3","name":"accessorPositions"},{"bufferView":1,"byteOffset":576,"componentType":5126,"count":48,"type":"VEC3","name":"accessorNormals"},{"bufferView":2,"componentType":5126,"count":48,"type":"VEC2","name":"accessorUVs"},{"bufferView":0,"byteOffset":192,"componentType":5123,"count":24,"type":"SCALAR","name":"accessorIndices"},{"bufferView":1,"byteOffset":1152,"componentType":5126,"count":16,"max":[5.43807936,2.84173775,-0.350502938],"min":[-5.43808031,-2.84173679,-1.2577374],"type":"VEC3","name":"accessorPositions"},{"bufferView":1,"byteOffset":1344,"componentType":5126,"count":16,"type":"VEC3","name":"accessorNormals"},{"bufferView":2,"byteOffset":384,"componentType":5126,"count":16,"type":"VEC2","name":"accessorUVs"},{"bufferView":0,"byteOffset":240,"componentType":5123,"count":6,"type":"SCALAR","name":"accessorIndices"},{"bufferView":1,"byteOffset":1536,"componentType":5126,"count":4,"max":[5.67411757,3.07777548,-2.72170234],"min":[-5.67411757,-3.07777452,-2.72170234],"type":"VEC3","name":"accessorPositions"},{"bufferView":1,"byteOffset":1584,"componentType":5126,"count":4,"type":"VEC3","name":"accessorNormals"},{"bufferView":2,"byteOffset":512,"componentType":5126,"count":4,"type":"VEC2","name":"accessorUVs"}],"bufferViews":[{"buffer":0,"byteLength":252,"name":"bufferViewScalar"},{"buffer":0,"byteOffset":252,"byteLength":1632,"byteStride":12,"name":"bufferViewFloatVec3"},{"buffer":0,"byteOffset":1884,"byteLength":544,"byteStride":8,"name":"bufferViewFloatVec2"}],"buffers":[{"uri":"Platform004.bin","byteLength":2428}],"materials":[{"pbrMetallicRoughness":{"metallicFactor":0.0,"roughnessFactor":0.0},"name":"Gray"},{"pbrMetallicRoughness":{"metallicFactor":0.0,"roughnessFactor":0.0},"name":"LightMat1"},{"pbrMetallicRoughness":{"metallicFactor":0.0,"roughnessFactor":0.0},"name":"FloorPlatform"}]}