{"asset":{"version":"2.0","generator":"babylon.js glTF exporter for 3dsmax 2023 v20250127.3"},"scene":0,"scenes":[{"nodes":[0]}],"nodes":[{"children":[1,2,3,4],"name":"Platform006"},{"mesh":0,"translation":[0.0,0.571853936,0.0],"rotation":[0.7071068,6.181723E-08,-6.181724E-08,0.7071067],"name":"Platform050"},{"mesh":1,"translation":[0.0,0.571853936,0.0],"rotation":[0.7071068,6.181723E-08,-6.181724E-08,0.7071067],"name":"Platform051"},{"mesh":2,"translation":[0.0,0.571853936,0.0],"rotation":[0.7071068,6.181723E-08,-6.181724E-08,0.7071067],"name":"Platform052"},{"translation":[0.0,0.571853936,0.0],"rotation":[0.7071068,6.181723E-08,-6.181724E-08,0.7071067],"name":"Platform049"}],"meshes":[{"primitives":[{"attributes":{"POSITION":1,"NORMAL":2,"TEXCOORD_0":3},"indices":0,"material":0}],"name":"Platform050"},{"primitives":[{"attributes":{"POSITION":5,"NORMAL":6,"TEXCOORD_0":7},"indices":4,"material":1}],"name":"Platform051"},{"primitives":[{"attributes":{"POSITION":9,"NORMAL":10,"TEXCOORD_0":11},"indices":8,"material":2}],"name":"Platform052"}],"accessors":[{"bufferView":0,"componentType":5123,"count":102,"type":"SCALAR","name":"accessorIndices"},{"bufferView":1,"componentType":5126,"count":84,"max":[5.64845943,2.35595036,0.571854353],"min":[-5.648462,-2.35595036,-0.571855366],"type":"VEC3","name":"accessorPositions"},{"bufferView":1,"byteOffset":1008,"componentType":5126,"count":84,"type":"VEC3","name":"accessorNormals"},{"bufferView":2,"componentType":5126,"count":84,"type":"VEC2","name":"accessorUVs"},{"bufferView":0,"byteOffset":204,"componentType":5123,"count":24,"type":"SCALAR","name":"accessorIndices"},{"bufferView":1,"byteOffset":2016,"componentType":5126,"count":24,"max":[5.42937326,2.13687015,0.347513556],"min":[-5.42938852,-2.14297915,-0.0143829044],"type":"VEC3","name":"accessorPositions"},{"bufferView":1,"byteOffset":2304,"componentType":5126,"count":24,"type":"VEC3","name":"accessorNormals"},{"bufferView":2,"byteOffset":672,"componentType":5126,"count":24,"type":"VEC2","name":"accessorUVs"},{"bufferView":0,"byteOffset":252,"componentType":5123,"count":6,"type":"SCALAR","name":"accessorIndices"},{"bufferView":1,"byteOffset":2592,"componentType":5126,"count":4,"max":[5.648441,2.355941,-0.571855366],"min":[-5.648462,-2.35594535,-0.571855366],"type":"VEC3","name":"accessorPositions"},{"bufferView":1,"byteOffset":2640,"componentType":5126,"count":4,"type":"VEC3","name":"accessorNormals"},{"bufferView":2,"byteOffset":864,"componentType":5126,"count":4,"type":"VEC2","name":"accessorUVs"}],"bufferViews":[{"buffer":0,"byteLength":264,"name":"bufferViewScalar"},{"buffer":0,"byteOffset":264,"byteLength":2688,"byteStride":12,"name":"bufferViewFloatVec3"},{"buffer":0,"byteOffset":2952,"byteLength":896,"byteStride":8,"name":"bufferViewFloatVec2"}],"buffers":[{"uri":"Platform006.bin","byteLength":3848}],"materials":[{"pbrMetallicRoughness":{"metallicFactor":0.0,"roughnessFactor":0.0},"name":"Gray"},{"pbrMetallicRoughness":{"metallicFactor":0.0,"roughnessFactor":0.0},"name":"LightMat1"},{"pbrMetallicRoughness":{"metallicFactor":0.0,"roughnessFactor":0.0},"name":"FloorPlatform"}]}