{"asset":{"version":"2.0","generator":"babylon.js glTF exporter for 3dsmax 2023 v20250127.3"},"scene":0,"scenes":[{"nodes":[0]}],"nodes":[{"children":[1,2,3,4,5,6],"rotation":[0.7071068,0.0,0.0,0.7071067],"name":"Provoda"},{"mesh":0,"translation":[-27.6044121,8.790411,-6.44449854],"rotation":[-0.7071068,0.0,0.0,0.7071067],"name":"Line024"},{"mesh":1,"translation":[-24.8100529,4.53745,-6.06756067],"rotation":[-0.7071068,0.0,0.0,0.7071067],"name":"Line023"},{"mesh":2,"translation":[28.960701,-4.417883,0.145988777],"rotation":[-0.7071068,0.0,0.0,0.7071067],"name":"Line013"},{"mesh":3,"translation":[43.129467,-1.01282573,-4.849844],"rotation":[-0.7071068,0.0,0.0,0.7071067],"name":"Line014"},{"mesh":4,"translation":[21.7416534,-4.262597,0.145979017],"rotation":[-0.7071068,0.0,0.0,0.7071067],"name":"Line012"},{"mesh":5,"translation":[-25.82122,-35.44125,6.44586],"rotation":[-0.7071068,0.0,0.0,0.7071067],"name":"Line022"}],"meshes":[{"primitives":[{"attributes":{"POSITION":1,"NORMAL":2,"TEXCOORD_0":3},"indices":0,"material":0}],"name":"Line024"},{"primitives":[{"attributes":{"POSITION":5,"NORMAL":6,"TEXCOORD_0":7},"indices":4,"material":0}],"name":"Line023"},{"primitives":[{"attributes":{"POSITION":9,"NORMAL":10,"TEXCOORD_0":11},"indices":8,"material":0}],"name":"Line013"},{"primitives":[{"attributes":{"POSITION":13,"NORMAL":14,"TEXCOORD_0":15},"indices":12,"material":0}],"name":"Line014"},{"primitives":[{"attributes":{"POSITION":17,"NORMAL":18,"TEXCOORD_0":19},"indices":16,"material":0}],"name":"Line012"},{"primitives":[{"attributes":{"POSITION":21,"NORMAL":22,"TEXCOORD_0":23},"indices":20,"material":0}],"name":"Line022"}],"accessors":[{"bufferView":0,"componentType":5123,"count":348,"type":"SCALAR","name":"accessorIndices"},{"bufferView":1,"componentType":5126,"count":136,"max":[36.3463326,5.56349325,33.07858],"min":[-36.3463249,-5.563493,-33.0785828],"type":"VEC3","name":"accessorPositions"},{"bufferView":1,"byteOffset":1632,"componentType":5126,"count":136,"type":"VEC3","name":"accessorNormals"},{"bufferView":2,"componentType":5126,"count":136,"type":"VEC2","name":"accessorUVs"},{"bufferView":0,"byteOffset":696,"componentType":5123,"count":348,"type":"SCALAR","name":"accessorIndices"},{"bufferView":1,"byteOffset":3264,"componentType":5126,"count":132,"max":[39.06325,5.56349325,29.8017235],"min":[-39.0632553,-5.563493,-29.8017235],"type":"VEC3","name":"accessorPositions"},{"bufferView":1,"byteOffset":4848,"componentType":5126,"count":132,"type":"VEC3","name":"accessorNormals"},{"bufferView":2,"byteOffset":1088,"componentType":5126,"count":132,"type":"VEC2","name":"accessorUVs"},{"bufferView":0,"byteOffset":1392,"componentType":5123,"count":348,"type":"SCALAR","name":"accessorIndices"},{"bufferView":1,"byteOffset":6432,"componentType":5126,"count":128,"max":[6.429147,8.44507,35.5448151],"min":[-6.429147,-8.44507,-35.5448151],"type":"VEC3","name":"accessorPositions"},{"bufferView":1,"byteOffset":7968,"componentType":5126,"count":128,"type":"VEC3","name":"accessorNormals"},{"bufferView":2,"byteOffset":2144,"componentType":5126,"count":128,"type":"VEC2","name":"accessorUVs"},{"bufferView":0,"byteOffset":2088,"componentType":5123,"count":348,"type":"SCALAR","name":"accessorIndices"},{"bufferView":1,"byteOffset":9504,"componentType":5126,"count":128,"max":[20.8212738,5.562207,29.6348572],"min":[-20.8212757,-5.56220627,-29.6348553],"type":"VEC3","name":"accessorPositions"},{"bufferView":1,"byteOffset":11040,"componentType":5126,"count":128,"type":"VEC3","name":"accessorNormals"},{"bufferView":2,"byteOffset":3168,"componentType":5126,"count":128,"type":"VEC2","name":"accessorUVs"},{"bufferView":0,"byteOffset":2784,"componentType":5123,"count":348,"type":"SCALAR","name":"accessorIndices"},{"bufferView":1,"byteOffset":12576,"componentType":5126,"count":128,"max":[0.200648338,8.445057,36.063282],"min":[-0.200648353,-8.445057,-36.063282],"type":"VEC3","name":"accessorPositions"},{"bufferView":1,"byteOffset":14112,"componentType":5126,"count":128,"type":"VEC3","name":"accessorNormals"},{"bufferView":2,"byteOffset":4192,"componentType":5126,"count":128,"type":"VEC2","name":"accessorUVs"},{"bufferView":0,"byteOffset":3480,"componentType":5123,"count":348,"type":"SCALAR","name":"accessorIndices"},{"bufferView":1,"byteOffset":15648,"componentType":5126,"count":132,"max":[37.4776154,5.562132,6.42773962],"min":[-37.47761,-5.562132,-6.42773867],"type":"VEC3","name":"accessorPositions"},{"bufferView":1,"byteOffset":17232,"componentType":5126,"count":132,"type":"VEC3","name":"accessorNormals"},{"bufferView":2,"byteOffset":5216,"componentType":5126,"count":132,"type":"VEC2","name":"accessorUVs"}],"bufferViews":[{"buffer":0,"byteLength":4176,"name":"bufferViewScalar"},{"buffer":0,"byteOffset":4176,"byteLength":18816,"byteStride":12,"name":"bufferViewFloatVec3"},{"buffer":0,"byteOffset":22992,"byteLength":6272,"byteStride":8,"name":"bufferViewFloatVec2"}],"buffers":[{"uri":"Provoda.bin","byteLength":29264}],"materials":[{"pbrMetallicRoughness":{"metallicFactor":0.0,"roughnessFactor":0.0},"name":"Black"}]}