{"asset":{"version":"2.0","generator":"babylon.js glTF exporter for 3dsmax 2023 v20250127.3"},"scene":0,"scenes":[{"nodes":[0]}],"nodes":[{"children":[1,2,3,4,5],"name":"StairsS"},{"mesh":0,"translation":[0.0,-2.319336E-06,-4.882813E-07],"rotation":[0.7071068,0.0,0.0,0.7071067],"name":"StairsS013"},{"mesh":1,"translation":[0.0,-2.319336E-06,-4.882813E-07],"rotation":[0.7071068,0.0,0.0,0.7071067],"name":"StairsS014"},{"mesh":2,"translation":[0.0,-2.319336E-06,-4.882813E-07],"rotation":[0.7071068,0.0,0.0,0.7071067],"name":"StairsS015"},{"translation":[0.0,-2.319336E-06,-4.882813E-07],"rotation":[0.7071068,0.0,0.0,0.7071067],"name":"StairsS012"},{"mesh":3,"translation":[0.0,-2.44140642E-06,-4.882813E-07],"rotation":[0.7071068,0.0,0.0,0.7071067],"name":"StairsS016Coll"}],"meshes":[{"primitives":[{"attributes":{"POSITION":1,"NORMAL":2,"TEXCOORD_0":3},"indices":0,"material":0}],"name":"StairsS013"},{"primitives":[{"attributes":{"POSITION":5,"NORMAL":6,"TEXCOORD_0":7},"indices":4,"material":1}],"name":"StairsS014"},{"primitives":[{"attributes":{"POSITION":9,"NORMAL":10,"TEXCOORD_0":11},"indices":8,"material":2}],"name":"StairsS015"},{"primitives":[{"attributes":{"POSITION":13,"NORMAL":14,"TEXCOORD_0":15},"indices":12,"material":0}],"name":"StairsS016Coll"}],"accessors":[{"bufferView":0,"componentType":5123,"count":162,"type":"SCALAR","name":"accessorIndices"},{"bufferView":1,"componentType":5126,"count":142,"max":[2.89284778,2.28551579,1.953125E-06],"min":[-2.892844,-2.28551531,-2.72170329],"type":"VEC3","name":"accessorPositions"},{"bufferView":1,"byteOffset":1704,"componentType":5126,"count":142,"type":"VEC3","name":"accessorNormals"},{"bufferView":2,"componentType":5126,"count":142,"type":"VEC2","name":"accessorUVs"},{"bufferView":0,"byteOffset":324,"componentType":5123,"count":12,"type":"SCALAR","name":"accessorIndices"},{"bufferView":1,"byteOffset":3408,"componentType":5126,"count":8,"max":[2.89284778,1.538303,-0.0794458],"min":[-2.89284348,-1.53830171,-2.72170329],"type":"VEC3","name":"accessorPositions"},{"bufferView":1,"byteOffset":3504,"componentType":5126,"count":8,"type":"VEC3","name":"accessorNormals"},{"bufferView":2,"byteOffset":1136,"componentType":5126,"count":8,"type":"VEC2","name":"accessorUVs"},{"bufferView":0,"byteOffset":348,"componentType":5123,"count":36,"type":"SCALAR","name":"accessorIndices"},{"bufferView":1,"byteOffset":3600,"componentType":5126,"count":30,"max":[2.068336,2.08015728,-0.2052627],"min":[-2.68774366,-2.0801568,-2.41854763],"type":"VEC3","name":"accessorPositions"},{"bufferView":1,"byteOffset":3960,"componentType":5126,"count":30,"type":"VEC3","name":"accessorNormals"},{"bufferView":2,"byteOffset":1200,"componentType":5126,"count":30,"type":"VEC2","name":"accessorUVs"},{"bufferView":0,"byteOffset":420,"componentType":5123,"count":156,"type":"SCALAR","name":"accessorIndices"},{"bufferView":1,"byteOffset":4320,"componentType":5126,"count":117,"max":[2.89284778,2.28551579,1.953125E-06],"min":[-2.892844,-2.28551531,-2.72170329],"type":"VEC3","name":"accessorPositions"},{"bufferView":1,"byteOffset":5724,"componentType":5126,"count":117,"type":"VEC3","name":"accessorNormals"},{"bufferView":2,"byteOffset":1440,"componentType":5126,"count":117,"type":"VEC2","name":"accessorUVs"}],"bufferViews":[{"buffer":0,"byteLength":732,"name":"bufferViewScalar"},{"buffer":0,"byteOffset":732,"byteLength":7128,"byteStride":12,"name":"bufferViewFloatVec3"},{"buffer":0,"byteOffset":7860,"byteLength":2376,"byteStride":8,"name":"bufferViewFloatVec2"}],"buffers":[{"uri":"StairsS.bin","byteLength":10236}],"materials":[{"pbrMetallicRoughness":{"metallicFactor":0.0,"roughnessFactor":0.0},"name":"Gray"},{"pbrMetallicRoughness":{"metallicFactor":0.0,"roughnessFactor":0.0},"name":"Stairs"},{"pbrMetallicRoughness":{"metallicFactor":0.0,"roughnessFactor":0.0},"name":"LightMat1"}]}