{"asset":{"version":"2.0","generator":"babylon.js glTF exporter for 3dsmax 2023 v20250127.3"},"scene":0,"scenes":[{"nodes":[0]}],"nodes":[{"children":[1,2,3,4,5],"name":"StairsS3"},{"mesh":0,"translation":[-9.765625E-07,-1.22070321E-06,0.0],"rotation":[0.7071068,0.0,0.0,0.7071067],"name":"StairsS005"},{"mesh":1,"translation":[-9.765625E-07,-1.22070321E-06,0.0],"rotation":[0.7071068,0.0,0.0,0.7071067],"name":"StairsS006"},{"mesh":2,"translation":[-9.765625E-07,-1.22070321E-06,0.0],"rotation":[0.7071068,0.0,0.0,0.7071067],"name":"StairsS007"},{"translation":[-9.765625E-07,-1.22070321E-06,0.0],"rotation":[0.7071068,0.0,0.0,0.7071067],"name":"StairsS004"},{"mesh":3,"translation":[-9.765625E-07,-1.953125E-06,0.0],"rotation":[0.7071068,0.0,0.0,0.7071067],"name":"StairsS016Coll"}],"meshes":[{"primitives":[{"attributes":{"POSITION":1,"NORMAL":2,"TEXCOORD_0":3},"indices":0,"material":0}],"name":"StairsS005"},{"primitives":[{"attributes":{"POSITION":5,"NORMAL":6,"TEXCOORD_0":7},"indices":4,"material":1}],"name":"StairsS006"},{"primitives":[{"attributes":{"POSITION":9,"NORMAL":10,"TEXCOORD_0":11},"indices":8,"material":2}],"name":"StairsS007"},{"primitives":[{"attributes":{"POSITION":13,"NORMAL":14,"TEXCOORD_0":15},"indices":12,"material":0}],"name":"StairsS016Coll"}],"accessors":[{"bufferView":0,"componentType":5123,"count":210,"type":"SCALAR","name":"accessorIndices"},{"bufferView":1,"componentType":5126,"count":153,"max":[5.528592,3.4218204,1.953125E-06],"min":[-5.52859,-3.4218204,-4.03909],"type":"VEC3","name":"accessorPositions"},{"bufferView":1,"byteOffset":1836,"componentType":5126,"count":153,"type":"VEC3","name":"accessorNormals"},{"bufferView":2,"componentType":5126,"count":153,"type":"VEC2","name":"accessorUVs"},{"bufferView":0,"byteOffset":420,"componentType":5123,"count":36,"type":"SCALAR","name":"accessorIndices"},{"bufferView":1,"byteOffset":3672,"componentType":5126,"count":32,"max":[5.32349253,3.21646214,-0.2052627],"min":[-2.58785939,-3.21646214,-3.391924],"type":"VEC3","name":"accessorPositions"},{"bufferView":1,"byteOffset":4056,"componentType":5126,"count":32,"type":"VEC3","name":"accessorNormals"},{"bufferView":2,"byteOffset":1224,"componentType":5126,"count":32,"type":"VEC2","name":"accessorUVs"},{"bufferView":0,"byteOffset":492,"componentType":5123,"count":12,"type":"SCALAR","name":"accessorIndices"},{"bufferView":1,"byteOffset":4440,"componentType":5126,"count":8,"max":[5.528592,2.67460728,-0.0794458],"min":[-5.52859,-2.674607,-4.03909],"type":"VEC3","name":"accessorPositions"},{"bufferView":1,"byteOffset":4536,"componentType":5126,"count":8,"type":"VEC3","name":"accessorNormals"},{"bufferView":2,"byteOffset":1480,"componentType":5126,"count":8,"type":"VEC2","name":"accessorUVs"},{"bufferView":0,"byteOffset":516,"componentType":5123,"count":156,"type":"SCALAR","name":"accessorIndices"},{"bufferView":1,"byteOffset":4632,"componentType":5126,"count":107,"max":[5.528592,3.4218204,1.953125E-06],"min":[-5.52859,-3.4218204,-4.03909],"type":"VEC3","name":"accessorPositions"},{"bufferView":1,"byteOffset":5916,"componentType":5126,"count":107,"type":"VEC3","name":"accessorNormals"},{"bufferView":2,"byteOffset":1544,"componentType":5126,"count":107,"type":"VEC2","name":"accessorUVs"}],"bufferViews":[{"buffer":0,"byteLength":828,"name":"bufferViewScalar"},{"buffer":0,"byteOffset":828,"byteLength":7200,"byteStride":12,"name":"bufferViewFloatVec3"},{"buffer":0,"byteOffset":8028,"byteLength":2400,"byteStride":8,"name":"bufferViewFloatVec2"}],"buffers":[{"uri":"StairsS3.bin","byteLength":10428}],"materials":[{"pbrMetallicRoughness":{"metallicFactor":0.0,"roughnessFactor":0.0},"name":"Gray"},{"pbrMetallicRoughness":{"metallicFactor":0.0,"roughnessFactor":0.0},"name":"LightMat1"},{"pbrMetallicRoughness":{"metallicFactor":0.0,"roughnessFactor":0.0},"name":"Stairs"}]}