{"asset":{"version":"2.0","generator":"babylon.js glTF exporter for 3dsmax 2023 v20250127.3"},"scene":0,"scenes":[{"nodes":[0]}],"nodes":[{"children":[1,2,3,4,5],"name":"StairsB"},{"mesh":0,"translation":[0.0,-5.371094E-06,0.0],"rotation":[0.7071068,0.0,0.0,0.7071067],"name":"StairsB002"},{"mesh":1,"translation":[0.0,-5.371094E-06,0.0],"rotation":[0.7071068,0.0,0.0,0.7071067],"name":"StairsB003"},{"mesh":2,"translation":[0.0,-5.371094E-06,0.0],"rotation":[0.7071068,0.0,0.0,0.7071067],"name":"StairsB004"},{"translation":[0.0,-5.371094E-06,0.0],"rotation":[0.7071068,0.0,0.0,0.7071067],"name":"StairsB001"},{"mesh":3,"translation":[0.0,-7.8125E-06,0.0],"rotation":[0.7071068,0.0,0.0,0.7071067],"name":"StairsB005Coll"}],"meshes":[{"primitives":[{"attributes":{"POSITION":1,"NORMAL":2,"TEXCOORD_0":3},"indices":0,"material":0}],"name":"StairsB002"},{"primitives":[{"attributes":{"POSITION":5,"NORMAL":6,"TEXCOORD_0":7},"indices":4,"material":1}],"name":"StairsB003"},{"primitives":[{"attributes":{"POSITION":9,"NORMAL":10,"TEXCOORD_0":11},"indices":8,"material":2}],"name":"StairsB004"},{"primitives":[{"attributes":{"POSITION":13,"NORMAL":14,"TEXCOORD_0":15},"indices":12,"material":1}],"name":"StairsB005Coll"}],"accessors":[{"bufferView":0,"componentType":5123,"count":180,"type":"SCALAR","name":"accessorIndices"},{"bufferView":1,"componentType":5126,"count":132,"max":[18.94157,4.71156263,-1.953125E-06],"min":[-18.94157,-4.71156263,-11.998354],"type":"VEC3","name":"accessorPositions"},{"bufferView":1,"byteOffset":1584,"componentType":5126,"count":132,"type":"VEC3","name":"accessorNormals"},{"bufferView":2,"componentType":5126,"count":132,"type":"VEC2","name":"accessorUVs"},{"bufferView":0,"byteOffset":360,"componentType":5123,"count":36,"type":"SCALAR","name":"accessorIndices"},{"bufferView":1,"byteOffset":3168,"componentType":5126,"count":28,"max":[18.7364731,4.506204,-0.20526661],"min":[-15.243845,-4.506204,-11.3511877],"type":"VEC3","name":"accessorPositions"},{"bufferView":1,"byteOffset":3504,"componentType":5126,"count":28,"type":"VEC3","name":"accessorNormals"},{"bufferView":2,"byteOffset":1056,"componentType":5126,"count":28,"type":"VEC2","name":"accessorUVs"},{"bufferView":0,"byteOffset":432,"componentType":5123,"count":12,"type":"SCALAR","name":"accessorIndices"},{"bufferView":1,"byteOffset":3840,"componentType":5126,"count":6,"max":[18.367981,3.96434975,-0.07944971],"min":[-18.94157,-3.96434975,-11.998354],"type":"VEC3","name":"accessorPositions"},{"bufferView":1,"byteOffset":3912,"componentType":5126,"count":6,"type":"VEC3","name":"accessorNormals"},{"bufferView":2,"byteOffset":1280,"componentType":5126,"count":6,"type":"VEC2","name":"accessorUVs"},{"bufferView":0,"byteOffset":456,"componentType":5123,"count":156,"type":"SCALAR","name":"accessorIndices"},{"bufferView":1,"byteOffset":3984,"componentType":5126,"count":84,"max":[18.94157,4.71156263,-1.953125E-06],"min":[-18.94157,-4.71156263,-11.998354],"type":"VEC3","name":"accessorPositions"},{"bufferView":1,"byteOffset":4992,"componentType":5126,"count":84,"type":"VEC3","name":"accessorNormals"},{"bufferView":2,"byteOffset":1328,"componentType":5126,"count":84,"type":"VEC2","name":"accessorUVs"}],"bufferViews":[{"buffer":0,"byteLength":768,"name":"bufferViewScalar"},{"buffer":0,"byteOffset":768,"byteLength":6000,"byteStride":12,"name":"bufferViewFloatVec3"},{"buffer":0,"byteOffset":6768,"byteLength":2000,"byteStride":8,"name":"bufferViewFloatVec2"}],"buffers":[{"uri":"StairsB.bin","byteLength":8768}],"materials":[{"pbrMetallicRoughness":{"metallicFactor":0.0,"roughnessFactor":0.0},"name":"Gray"},{"pbrMetallicRoughness":{"metallicFactor":0.0,"roughnessFactor":0.0},"name":"LightMat1"},{"pbrMetallicRoughness":{"metallicFactor":0.0,"roughnessFactor":0.0},"name":"Stairs"}]}