{"asset":{"version":"2.0","generator":"babylon.js glTF exporter for 3dsmax 2023 v20250127.3"},"scene":0,"scenes":[{"nodes":[0]}],"nodes":[{"children":[1,2,3,4,5],"name":"StairsM"},{"mesh":0,"translation":[0.0,1.953125E-06,0.0],"rotation":[0.7071068,0.0,0.0,0.7071067],"name":"StairsM003"},{"translation":[0.0,1.953125E-06,0.0],"rotation":[0.7071068,0.0,0.0,0.7071067],"name":"StairsM001"},{"mesh":1,"translation":[0.0,1.953125E-06,0.0],"rotation":[0.7071068,0.0,0.0,0.7071067],"name":"StairsM004"},{"mesh":2,"translation":[0.0,1.953125E-06,0.0],"rotation":[0.7071068,0.0,0.0,0.7071067],"name":"StairsM002"},{"mesh":3,"translation":[0.0,9.765625E-07,0.0],"rotation":[0.7071068,0.0,0.0,0.7071067],"name":"StairsM005Coll"}],"meshes":[{"primitives":[{"attributes":{"POSITION":1,"NORMAL":2,"TEXCOORD_0":3},"indices":0,"material":0}],"name":"StairsM003"},{"primitives":[{"attributes":{"POSITION":5,"NORMAL":6,"TEXCOORD_0":7},"indices":4,"material":1}],"name":"StairsM004"},{"primitives":[{"attributes":{"POSITION":9,"NORMAL":10,"TEXCOORD_0":11},"indices":8,"material":2}],"name":"StairsM002"},{"primitives":[{"attributes":{"POSITION":13,"NORMAL":14,"TEXCOORD_0":15},"indices":12,"material":2}],"name":"StairsM005Coll"}],"accessors":[{"bufferView":0,"componentType":5123,"count":36,"type":"SCALAR","name":"accessorIndices"},{"bufferView":1,"componentType":5126,"count":32,"max":[8.402034,2.702429,-0.205257818],"min":[-6.27890635,-2.702429,-8.346229],"type":"VEC3","name":"accessorPositions"},{"bufferView":1,"byteOffset":384,"componentType":5126,"count":32,"type":"VEC3","name":"accessorNormals"},{"bufferView":2,"componentType":5126,"count":32,"type":"VEC2","name":"accessorUVs"},{"bufferView":0,"byteOffset":72,"componentType":5123,"count":12,"type":"SCALAR","name":"accessorIndices"},{"bufferView":1,"byteOffset":768,"componentType":5126,"count":6,"max":[8.033542,2.16057444,-0.07944043],"min":[-8.607133,-2.16057467,-8.993395],"type":"VEC3","name":"accessorPositions"},{"bufferView":1,"byteOffset":840,"componentType":5126,"count":6,"type":"VEC3","name":"accessorNormals"},{"bufferView":2,"byteOffset":256,"componentType":5126,"count":6,"type":"VEC2","name":"accessorUVs"},{"bufferView":0,"byteOffset":96,"componentType":5123,"count":204,"type":"SCALAR","name":"accessorIndices"},{"bufferView":1,"byteOffset":912,"componentType":5126,"count":139,"max":[8.607133,2.90778756,7.324219E-06],"min":[-8.607133,-2.90778756,-8.993395],"type":"VEC3","name":"accessorPositions"},{"bufferView":1,"byteOffset":2580,"componentType":5126,"count":139,"type":"VEC3","name":"accessorNormals"},{"bufferView":2,"byteOffset":304,"componentType":5126,"count":139,"type":"VEC2","name":"accessorUVs"},{"bufferView":0,"byteOffset":504,"componentType":5123,"count":177,"type":"SCALAR","name":"accessorIndices"},{"bufferView":1,"byteOffset":4248,"componentType":5126,"count":95,"max":[8.607133,2.90778756,7.324219E-06],"min":[-8.607133,-2.90778756,-8.993395],"type":"VEC3","name":"accessorPositions"},{"bufferView":1,"byteOffset":5388,"componentType":5126,"count":95,"type":"VEC3","name":"accessorNormals"},{"bufferView":2,"byteOffset":1416,"componentType":5126,"count":95,"type":"VEC2","name":"accessorUVs"}],"bufferViews":[{"buffer":0,"byteLength":860,"name":"bufferViewScalar"},{"buffer":0,"byteOffset":860,"byteLength":6528,"byteStride":12,"name":"bufferViewFloatVec3"},{"buffer":0,"byteOffset":7388,"byteLength":2176,"byteStride":8,"name":"bufferViewFloatVec2"}],"buffers":[{"uri":"StairsM.bin","byteLength":9564}],"materials":[{"pbrMetallicRoughness":{"metallicFactor":0.0,"roughnessFactor":0.0},"name":"LightMat1"},{"pbrMetallicRoughness":{"metallicFactor":0.0,"roughnessFactor":0.0},"name":"Stairs"},{"pbrMetallicRoughness":{"metallicFactor":0.0,"roughnessFactor":0.0},"name":"Gray"}]}