{"asset":{"version":"2.0","generator":"babylon.js glTF exporter for 3dsmax 2023 v20250127.3"},"scene":0,"scenes":[{"nodes":[0]}],"nodes":[{"mesh":0,"rotation":[0.7071068,0.0,0.0,0.7071067],"name":"Stolb000"}],"meshes":[{"primitives":[{"attributes":{"POSITION":1,"NORMAL":2,"TEXCOORD_0":3},"indices":0,"material":0}],"name":"Stolb000"}],"accessors":[{"bufferView":0,"componentType":5123,"count":126,"type":"SCALAR","name":"accessorIndices"},{"bufferView":1,"componentType":5126,"count":82,"max":[0.5425623,1.47235382,2.92968753E-06],"min":[-0.5425623,-1.47235453,-17.9178047],"type":"VEC3","name":"accessorPositions"},{"bufferView":1,"byteOffset":984,"componentType":5126,"count":82,"type":"VEC3","name":"accessorNormals"},{"bufferView":2,"componentType":5126,"count":82,"type":"VEC2","name":"accessorUVs"}],"bufferViews":[{"buffer":0,"byteLength":252,"name":"bufferViewScalar"},{"buffer":0,"byteOffset":252,"byteLength":1968,"byteStride":12,"name":"bufferViewFloatVec3"},{"buffer":0,"byteOffset":2220,"byteLength":656,"byteStride":8,"name":"bufferViewFloatVec2"}],"buffers":[{"uri":"Stolb000.bin","byteLength":2876}],"materials":[{"pbrMetallicRoughness":{"metallicFactor":0.0,"roughnessFactor":0.0},"name":"Green"}]}