{"asset":{"version":"2.0","generator":"babylon.js glTF exporter for 3dsmax 2023 v20250127.3"},"scene":0,"scenes":[{"nodes":[0]}],"nodes":[{"children":[1,2,3],"name":"StolbS000"},{"mesh":0,"translation":[0.0,-2.44140637E-07,-1.525879E-07],"rotation":[0.7071068,0.0,0.0,0.7071067],"name":"StolbS003"},{"mesh":1,"translation":[0.0,-2.44140637E-07,-1.525879E-07],"rotation":[0.7071068,0.0,0.0,0.7071067],"name":"StolbS004"},{"translation":[0.0,-2.44140637E-07,-1.525879E-07],"rotation":[0.7071068,0.0,0.0,0.7071067],"name":"StolbS002"}],"meshes":[{"primitives":[{"attributes":{"POSITION":1,"NORMAL":2,"TEXCOORD_0":3},"indices":0,"material":0}],"name":"StolbS003"},{"primitives":[{"attributes":{"POSITION":5,"NORMAL":6,"TEXCOORD_0":7},"indices":4,"material":1}],"name":"StolbS004"}],"accessors":[{"bufferView":0,"componentType":5123,"count":318,"type":"SCALAR","name":"accessorIndices"},{"bufferView":1,"componentType":5126,"count":172,"max":[1.901023,0.6254907,-4.882813E-07],"min":[-1.90102351,-0.6254907,-7.380267],"type":"VEC3","name":"accessorPositions"},{"bufferView":1,"byteOffset":2064,"componentType":5126,"count":172,"type":"VEC3","name":"accessorNormals"},{"bufferView":2,"componentType":5126,"count":172,"type":"VEC2","name":"accessorUVs"},{"bufferView":0,"byteOffset":636,"componentType":5123,"count":42,"type":"SCALAR","name":"accessorIndices"},{"bufferView":1,"byteOffset":4128,"componentType":5126,"count":28,"max":[1.05555451,0.298976243,-3.68925333],"min":[-1.11435235,-0.298976034,-6.378677],"type":"VEC3","name":"accessorPositions"},{"bufferView":1,"byteOffset":4464,"componentType":5126,"count":28,"type":"VEC3","name":"accessorNormals"},{"bufferView":2,"byteOffset":1376,"componentType":5126,"count":28,"type":"VEC2","name":"accessorUVs"}],"bufferViews":[{"buffer":0,"byteLength":720,"name":"bufferViewScalar"},{"buffer":0,"byteOffset":720,"byteLength":4800,"byteStride":12,"name":"bufferViewFloatVec3"},{"buffer":0,"byteOffset":5520,"byteLength":1600,"byteStride":8,"name":"bufferViewFloatVec2"}],"buffers":[{"uri":"StolbS000.bin","byteLength":7120}],"materials":[{"pbrMetallicRoughness":{"metallicFactor":0.0,"roughnessFactor":0.0},"name":"OrangeMat"},{"pbrMetallicRoughness":{"metallicFactor":0.0,"roughnessFactor":0.0},"name":"LightMat1"}]}