{"asset":{"version":"2.0","generator":"babylon.js glTF exporter for 3dsmax 2023 v20250127.3"},"scene":0,"scenes":[{"nodes":[0]}],"nodes":[{"mesh":0,"rotation":[0.7071068,0.0,0.0,0.7071067],"name":"Vent001"}],"meshes":[{"primitives":[{"attributes":{"POSITION":1,"NORMAL":2,"TEXCOORD_0":3},"indices":0,"material":0}],"name":"Vent001"}],"accessors":[{"bufferView":0,"componentType":5123,"count":210,"type":"SCALAR","name":"accessorIndices"},{"bufferView":1,"componentType":5126,"count":109,"max":[2.44436574,1.1529355,2.04727054],"min":[-2.444366,-1.1529355,-2.04727149],"type":"VEC3","name":"accessorPositions"},{"bufferView":1,"byteOffset":1308,"componentType":5126,"count":109,"type":"VEC3","name":"accessorNormals"},{"bufferView":2,"componentType":5126,"count":109,"type":"VEC2","name":"accessorUVs"}],"bufferViews":[{"buffer":0,"byteLength":420,"name":"bufferViewScalar"},{"buffer":0,"byteOffset":420,"byteLength":2616,"byteStride":12,"name":"bufferViewFloatVec3"},{"buffer":0,"byteOffset":3036,"byteLength":872,"byteStride":8,"name":"bufferViewFloatVec2"}],"buffers":[{"uri":"Vent001.bin","byteLength":3908}],"materials":[{"pbrMetallicRoughness":{"metallicFactor":0.0,"roughnessFactor":0.0},"name":"Gray"}]}