{"asset":{"version":"2.0","generator":"babylon.js glTF exporter for 3dsmax 2023 v20250127.3"},"scene":0,"scenes":[{"nodes":[0]}],"nodes":[{"mesh":0,"rotation":[0.7071068,0.0,0.0,0.7071067],"name":"Vent000"}],"meshes":[{"primitives":[{"attributes":{"POSITION":1,"NORMAL":2,"TEXCOORD_0":3},"indices":0,"material":0}],"name":"Vent000"}],"accessors":[{"bufferView":0,"componentType":5123,"count":120,"type":"SCALAR","name":"accessorIndices"},{"bufferView":1,"componentType":5126,"count":65,"max":[1.152935,4.30396032,1.15293586],"min":[-1.152935,-4.30395746,-1.15293515],"type":"VEC3","name":"accessorPositions"},{"bufferView":1,"byteOffset":780,"componentType":5126,"count":65,"type":"VEC3","name":"accessorNormals"},{"bufferView":2,"componentType":5126,"count":65,"type":"VEC2","name":"accessorUVs"}],"bufferViews":[{"buffer":0,"byteLength":240,"name":"bufferViewScalar"},{"buffer":0,"byteOffset":240,"byteLength":1560,"byteStride":12,"name":"bufferViewFloatVec3"},{"buffer":0,"byteOffset":1800,"byteLength":520,"byteStride":8,"name":"bufferViewFloatVec2"}],"buffers":[{"uri":"Vent000.bin","byteLength":2320}],"materials":[{"pbrMetallicRoughness":{"metallicFactor":0.0,"roughnessFactor":0.0},"name":"Gray"}]}