{"asset":{"version":"2.0","generator":"babylon.js glTF exporter for 3dsmax 2023 v20250127.3"},"scene":0,"scenes":[{"nodes":[0]}],"nodes":[{"children":[1,2,3],"name":"Walls001"},{"translation":[0.0,0.0,-2.74658214E-06],"rotation":[0.7071068,0.0,0.0,0.7071067],"name":"Walls017"},{"mesh":0,"translation":[0.0,0.0,-2.74658214E-06],"rotation":[0.7071068,0.0,0.0,0.7071067],"name":"Walls019"},{"mesh":1,"translation":[0.0,0.0,-2.74658214E-06],"rotation":[0.7071068,0.0,0.0,0.7071067],"name":"Walls018"}],"meshes":[{"primitives":[{"attributes":{"POSITION":1,"NORMAL":2,"TEXCOORD_0":3},"indices":0,"material":0}],"name":"Walls019"},{"primitives":[{"attributes":{"POSITION":5,"NORMAL":6,"TEXCOORD_0":7},"indices":4,"material":1}],"name":"Walls018"}],"accessors":[{"bufferView":0,"componentType":5123,"count":102,"type":"SCALAR","name":"accessorIndices"},{"bufferView":1,"componentType":5126,"count":60,"max":[1.73922956,0.687665641,-15.71845],"min":[-1.73923028,-0.6876654,-16.9977837],"type":"VEC3","name":"accessorPositions"},{"bufferView":1,"byteOffset":720,"componentType":5126,"count":60,"type":"VEC3","name":"accessorNormals"},{"bufferView":2,"componentType":5126,"count":60,"type":"VEC2","name":"accessorUVs"},{"bufferView":0,"byteOffset":204,"componentType":5123,"count":24,"type":"SCALAR","name":"accessorIndices"},{"bufferView":1,"byteOffset":1440,"componentType":5126,"count":16,"max":[1.739212,0.281577438,9.765625E-07],"min":[-1.73923028,-0.281577438,-15.71845],"type":"VEC3","name":"accessorPositions"},{"bufferView":1,"byteOffset":1632,"componentType":5126,"count":16,"type":"VEC3","name":"accessorNormals"},{"bufferView":2,"byteOffset":480,"componentType":5126,"count":16,"type":"VEC2","name":"accessorUVs"}],"bufferViews":[{"buffer":0,"byteLength":252,"name":"bufferViewScalar"},{"buffer":0,"byteOffset":252,"byteLength":1824,"byteStride":12,"name":"bufferViewFloatVec3"},{"buffer":0,"byteOffset":2076,"byteLength":608,"byteStride":8,"name":"bufferViewFloatVec2"}],"buffers":[{"uri":"Walls001.bin","byteLength":2684}],"materials":[{"pbrMetallicRoughness":{"metallicFactor":0.0,"roughnessFactor":0.0},"name":"OrangeMat"},{"pbrMetallicRoughness":{"metallicFactor":0.0,"roughnessFactor":0.0},"name":"Green"}]}