{"asset":{"version":"2.0","generator":"babylon.js glTF exporter for 3dsmax 2023 v20250127.3"},"scene":0,"scenes":[{"nodes":[0]}],"nodes":[{"children":[1,2,3],"name":"Walls000"},{"mesh":0,"translation":[-2.44140637E-07,-1.953125E-06,0.0],"rotation":[0.7071068,0.0,0.0,0.7071067],"name":"Walls006"},{"mesh":1,"translation":[-2.44140637E-07,-1.953125E-06,0.0],"rotation":[0.7071068,0.0,0.0,0.7071067],"name":"Walls007"},{"translation":[-2.44140637E-07,-1.953125E-06,0.0],"rotation":[0.7071068,0.0,0.0,0.7071067],"name":"Walls005"}],"meshes":[{"primitives":[{"attributes":{"POSITION":1,"NORMAL":2,"TEXCOORD_0":3},"indices":0,"material":0}],"name":"Walls006"},{"primitives":[{"attributes":{"POSITION":5,"NORMAL":6,"TEXCOORD_0":7},"indices":4,"material":1}],"name":"Walls007"}],"accessors":[{"bufferView":0,"componentType":5123,"count":96,"type":"SCALAR","name":"accessorIndices"},{"bufferView":1,"componentType":5126,"count":66,"max":[5.567589,0.3819539,-1.953125E-06],"min":[-5.56758833,-0.3819604,-17.73231],"type":"VEC3","name":"accessorPositions"},{"bufferView":1,"byteOffset":792,"componentType":5126,"count":66,"type":"VEC3","name":"accessorNormals"},{"bufferView":2,"componentType":5126,"count":66,"type":"VEC2","name":"accessorUVs"},{"bufferView":0,"byteOffset":192,"componentType":5123,"count":6,"type":"SCALAR","name":"accessorIndices"},{"bufferView":1,"byteOffset":1584,"componentType":5126,"count":4,"max":[5.56758738,-0.3819587,-9.999247],"min":[-5.56758642,-0.3819604,-15.0802612],"type":"VEC3","name":"accessorPositions"},{"bufferView":1,"byteOffset":1632,"componentType":5126,"count":4,"type":"VEC3","name":"accessorNormals"},{"bufferView":2,"byteOffset":528,"componentType":5126,"count":4,"type":"VEC2","name":"accessorUVs"}],"bufferViews":[{"buffer":0,"byteLength":204,"name":"bufferViewScalar"},{"buffer":0,"byteOffset":204,"byteLength":1680,"byteStride":12,"name":"bufferViewFloatVec3"},{"buffer":0,"byteOffset":1884,"byteLength":560,"byteStride":8,"name":"bufferViewFloatVec2"}],"buffers":[{"uri":"Walls000.bin","byteLength":2444}],"materials":[{"pbrMetallicRoughness":{"metallicFactor":0.0,"roughnessFactor":0.0},"name":"Gray"},{"pbrMetallicRoughness":{"metallicFactor":0.0,"roughnessFactor":0.0},"name":"OrangeMat"}]}