{"asset":{"version":"2.0","generator":"babylon.js glTF exporter for 3dsmax 2023 v20250127.3"},"scene":0,"scenes":[{"nodes":[0]}],"nodes":[{"children":[1,2,3],"name":"Walls002"},{"translation":[0.0,-1.953125E-06,-2.50244148E-06],"rotation":[0.7071068,0.0,0.0,0.7071067],"name":"Walls014"},{"mesh":0,"translation":[0.0,-1.953125E-06,-2.50244148E-06],"rotation":[0.7071068,0.0,0.0,0.7071067],"name":"Walls016"},{"mesh":1,"translation":[0.0,-1.953125E-06,-2.50244148E-06],"rotation":[0.7071068,0.0,0.0,0.7071067],"name":"Walls015"}],"meshes":[{"primitives":[{"attributes":{"POSITION":1,"NORMAL":2,"TEXCOORD_0":3},"indices":0,"material":0}],"name":"Walls016"},{"primitives":[{"attributes":{"POSITION":5,"NORMAL":6,"TEXCOORD_0":7},"indices":4,"material":1}],"name":"Walls015"}],"accessors":[{"bufferView":0,"componentType":5123,"count":24,"type":"SCALAR","name":"accessorIndices"},{"bufferView":1,"componentType":5126,"count":16,"max":[3.50134277,0.281577319,-9.765625E-07],"min":[-3.50136042,-0.2815778,-15.7184525],"type":"VEC3","name":"accessorPositions"},{"bufferView":1,"byteOffset":192,"componentType":5126,"count":16,"type":"VEC3","name":"accessorNormals"},{"bufferView":2,"componentType":5126,"count":16,"type":"VEC2","name":"accessorUVs"},{"bufferView":0,"byteOffset":48,"componentType":5123,"count":102,"type":"SCALAR","name":"accessorIndices"},{"bufferView":1,"byteOffset":384,"componentType":5126,"count":60,"max":[3.50136042,0.6876655,-15.7184525],"min":[-3.50136042,-0.687665761,-16.9977856],"type":"VEC3","name":"accessorPositions"},{"bufferView":1,"byteOffset":1104,"componentType":5126,"count":60,"type":"VEC3","name":"accessorNormals"},{"bufferView":2,"byteOffset":128,"componentType":5126,"count":60,"type":"VEC2","name":"accessorUVs"}],"bufferViews":[{"buffer":0,"byteLength":252,"name":"bufferViewScalar"},{"buffer":0,"byteOffset":252,"byteLength":1824,"byteStride":12,"name":"bufferViewFloatVec3"},{"buffer":0,"byteOffset":2076,"byteLength":608,"byteStride":8,"name":"bufferViewFloatVec2"}],"buffers":[{"uri":"Walls002.bin","byteLength":2684}],"materials":[{"pbrMetallicRoughness":{"metallicFactor":0.0,"roughnessFactor":0.0},"name":"Green"},{"pbrMetallicRoughness":{"metallicFactor":0.0,"roughnessFactor":0.0},"name":"OrangeMat"}]}