{"asset":{"version":"2.0","generator":"babylon.js glTF exporter for 3dsmax 2023 v20250127.3"},"scene":0,"scenes":[{"nodes":[0]}],"nodes":[{"children":[1,2,3],"name":"Walls004"},{"mesh":0,"translation":[2.44140637E-07,-5.859375E-06,0.0],"rotation":[0.7071068,0.0,0.0,0.7071067],"name":"Walls010"},{"translation":[2.44140637E-07,-5.859375E-06,0.0],"rotation":[0.7071068,0.0,0.0,0.7071067],"name":"Walls008"},{"mesh":1,"translation":[2.44140637E-07,-5.859375E-06,0.0],"rotation":[0.7071068,0.0,0.0,0.7071067],"name":"Walls009"}],"meshes":[{"primitives":[{"attributes":{"POSITION":1,"NORMAL":2,"TEXCOORD_0":3},"indices":0,"material":0}],"name":"Walls010"},{"primitives":[{"attributes":{"POSITION":5,"NORMAL":6,"TEXCOORD_0":7},"indices":4,"material":1}],"name":"Walls009"}],"accessors":[{"bufferView":0,"componentType":5123,"count":18,"type":"SCALAR","name":"accessorIndices"},{"bufferView":1,"componentType":5126,"count":12,"max":[5.5676136,0.587834358,-29.5933743],"min":[-5.567614,-0.2370641,-34.30627],"type":"VEC3","name":"accessorPositions"},{"bufferView":1,"byteOffset":144,"componentType":5126,"count":12,"type":"VEC3","name":"accessorNormals"},{"bufferView":2,"componentType":5126,"count":12,"type":"VEC2","name":"accessorUVs"},{"bufferView":0,"byteOffset":36,"componentType":5123,"count":36,"type":"SCALAR","name":"accessorIndices"},{"bufferView":1,"byteOffset":288,"componentType":5126,"count":24,"max":[5.5676136,0.292772174,-3.90625E-06],"min":[-5.567602,-0.5878205,-34.90824],"type":"VEC3","name":"accessorPositions"},{"bufferView":1,"byteOffset":576,"componentType":5126,"count":24,"type":"VEC3","name":"accessorNormals"},{"bufferView":2,"byteOffset":96,"componentType":5126,"count":24,"type":"VEC2","name":"accessorUVs"}],"bufferViews":[{"buffer":0,"byteLength":108,"name":"bufferViewScalar"},{"buffer":0,"byteOffset":108,"byteLength":864,"byteStride":12,"name":"bufferViewFloatVec3"},{"buffer":0,"byteOffset":972,"byteLength":288,"byteStride":8,"name":"bufferViewFloatVec2"}],"buffers":[{"uri":"Walls004.bin","byteLength":1260}],"materials":[{"pbrMetallicRoughness":{"metallicFactor":0.0,"roughnessFactor":0.0},"name":"Green"},{"pbrMetallicRoughness":{"metallicFactor":0.0,"roughnessFactor":0.0},"name":"Gray"}]}